{"glyphs":{"0":{"ha":617,"x_min":132,"x_max":671,"o":"m 314 -14 q 207 26 247 -14 q 149 131 167 67 q 132 267 132 196 q 167 500 132 392 q 258 688 203 608 q 371 807 314 768 q 488 847 431 847 q 597 808 557 847 q 654 706 638 768 q 671 572 671 643 q 652 403 671 486 q 604 251 633 319 q 544 138 575 182 q 424 21 488 56 q 314 -14 361 -14 m 479 803 q 438 794 461 803 q 390 757 414 785 q 342 676 369 735 q 290 538 315 618 q 247 369 264 458 q 229 196 229 279 q 249 79 229 128 q 324 31 268 31 q 361 38 336 31 q 416 73 386 46 q 472 157 446 100 q 506 247 488 190 q 539 372 524 304 q 564 509 554 440 q 574 635 574 578 q 563 727 574 692 q 536 779 553 763 q 479 803 515 803 z "},"1":{"ha":617,"x_min":169,"x_max":574,"o":"m 428 107 q 436 62 422 79 q 493 42 450 44 l 539 39 q 540 18 542 33 q 535 -1 539 3 q 448 0 483 0 q 363 0 413 0 q 266 0 307 0 q 174 -1 225 0 q 171 22 169 8 q 176 39 172 35 l 226 42 q 298 61 275 44 q 326 107 321 78 l 426 624 q 431 646 429 638 q 432 664 432 654 q 411 699 432 699 q 353 693 392 699 q 283 676 315 688 q 272 717 272 696 q 422 772 358 744 q 528 825 485 800 q 546 835 538 831 q 563 846 554 840 q 567 847 564 847 q 574 842 574 847 l 428 107 z "},"2":{"ha":617,"x_min":76,"x_max":674,"o":"m 339 815 q 403 839 368 831 q 476 847 438 847 q 567 833 521 847 q 643 782 613 818 q 674 683 674 746 q 642 567 674 624 q 568 465 611 511 q 490 388 525 418 l 332 251 q 310 232 329 249 q 268 190 292 215 q 225 137 244 165 q 200 83 206 108 l 433 83 q 494 108 469 83 q 544 194 518 132 q 581 183 565 194 q 572 152 581 183 q 548 78 563 121 q 517 -1 533 35 q 500 -1 517 -1 q 460 0 483 0 q 415 0 436 0 l 183 0 q 138 0 163 0 q 94 -1 113 0 q 76 -1 76 -1 q 84 32 79 15 q 96 65 89 49 q 156 158 115 108 q 281 281 197 208 l 399 383 q 479 465 442 421 q 541 561 517 510 q 565 672 565 613 q 548 747 565 718 q 506 790 531 776 q 461 804 482 804 q 373 788 406 804 q 326 748 340 771 q 311 708 311 725 q 313 692 311 703 q 315 674 315 681 q 315 656 315 665 q 310 640 314 647 q 288 615 303 626 q 256 603 274 603 q 222 619 236 603 q 207 653 207 636 q 243 739 207 692 q 339 815 279 786 z "},"3":{"ha":617,"x_min":82,"x_max":651,"o":"m 463 804 q 410 794 444 804 q 347 760 376 785 q 310 694 318 736 q 290 649 307 675 q 244 624 272 624 q 223 634 229 624 q 217 657 217 644 q 232 706 217 676 q 278 765 247 736 q 367 822 313 797 q 497 847 422 847 q 578 828 544 847 q 632 781 613 810 q 651 721 651 751 q 619 615 651 669 q 485 497 586 561 q 583 441 542 488 q 624 317 624 394 q 596 190 624 250 q 518 85 568 131 q 403 13 468 39 q 265 -14 339 -14 q 181 -3 226 -14 q 107 26 135 8 q 82 63 82 44 q 101 101 82 83 q 139 119 121 119 q 179 99 167 119 q 210 60 192 79 q 238 38 221 47 q 285 29 256 29 q 364 50 321 29 q 443 107 407 71 q 500 191 478 143 q 522 296 522 239 q 501 382 522 351 q 446 425 479 413 q 378 438 413 438 q 351 436 364 438 q 321 432 338 435 l 321 474 q 403 501 361 479 q 482 555 446 522 q 540 625 518 588 q 563 700 563 663 q 533 777 563 750 q 463 804 503 804 z "},"4":{"ha":618,"x_min":101,"x_max":669,"o":"m 651 296 q 669 282 669 296 q 653 253 669 268 q 622 238 638 238 l 532 238 l 507 107 q 513 58 501 72 q 550 40 524 43 l 585 38 q 585 17 588 32 q 581 -3 583 1 q 514 -1 550 -1 q 438 0 478 0 q 359 -1 394 0 q 292 -3 324 -1 q 289 19 288 6 q 294 38 290 33 l 331 40 q 386 58 363 43 q 415 107 410 74 l 440 238 l 150 238 q 114 254 126 238 q 106 290 101 271 q 263 448 189 372 q 410 613 336 524 q 565 824 483 701 q 585 838 569 829 q 613 847 601 847 l 651 847 q 642 801 649 838 q 624 708 635 764 l 543 296 l 651 296 m 531 700 q 412 549 471 617 q 293 420 353 481 q 169 296 233 360 l 451 296 l 531 700 z "},"5":{"ha":617,"x_min":90,"x_max":685,"o":"m 510 301 q 492 392 510 351 q 446 457 475 433 q 382 481 417 481 q 299 474 344 481 q 197 449 254 468 l 318 840 q 387 837 353 839 q 457 835 421 835 q 569 838 510 835 q 685 850 629 842 l 656 757 q 578 749 613 751 q 515 747 544 747 q 354 758 436 747 l 279 522 q 339 536 301 531 q 421 542 376 542 q 524 510 482 542 q 589 429 567 479 q 611 319 611 379 q 566 155 611 231 q 446 33 521 79 q 278 -14 371 -14 q 191 -3 236 -14 q 118 28 146 8 q 98 48 106 38 q 90 71 90 58 q 108 108 90 92 q 147 124 125 124 q 180 108 168 124 q 206 75 192 93 q 237 44 218 58 q 289 31 256 31 q 356 45 322 31 q 418 86 389 60 q 484 178 458 122 q 510 301 510 233 z "},"6":{"ha":617,"x_min":122,"x_max":706,"o":"m 701 811 q 545 765 626 801 q 404 669 464 728 q 316 561 357 624 q 251 429 275 499 q 337 479 288 458 q 425 500 386 500 q 558 468 513 500 q 619 390 603 436 q 635 299 635 343 q 611 188 635 243 q 546 88 588 133 q 448 14 504 42 q 326 -14 392 -14 q 228 6 275 -14 q 152 79 182 26 q 122 228 122 132 q 126 288 122 243 q 148 397 131 333 q 203 531 165 460 q 310 671 242 603 q 496 800 392 753 q 700 850 600 847 q 701 811 706 833 m 243 388 q 229 314 236 363 q 222 221 222 265 q 244 106 222 149 q 296 46 265 64 q 353 28 326 28 q 424 53 392 28 q 481 119 457 79 q 519 203 506 160 q 533 285 533 247 q 522 358 533 319 q 478 423 510 396 q 390 450 447 450 q 329 438 364 450 q 243 388 294 425 z "},"7":{"ha":617,"x_min":186,"x_max":744,"o":"m 378 756 q 319 748 342 756 q 281 719 297 740 q 246 657 265 697 q 208 661 226 656 q 242 758 228 714 q 267 849 256 801 q 279 853 267 853 q 292 849 290 853 q 301 839 294 843 q 336 835 308 835 l 625 835 q 686 840 663 835 q 728 850 710 844 l 744 833 q 596 574 661 692 q 478 356 531 457 q 378 165 425 256 q 286 -14 332 75 l 194 -18 l 186 -8 q 400 351 285 153 q 632 756 515 550 l 378 756 z "},"8":{"ha":617,"x_min":110,"x_max":672,"o":"m 594 554 q 543 515 572 536 q 478 471 514 494 l 535 433 q 597 363 579 404 q 615 278 615 322 q 578 130 615 196 q 476 25 542 64 q 325 -14 411 -14 q 217 4 267 -14 q 139 62 168 22 q 110 164 110 101 q 133 265 110 221 q 192 341 156 308 q 268 400 228 374 q 344 449 308 426 l 317 469 q 245 540 269 506 q 221 615 221 574 q 258 727 221 674 q 353 814 294 781 q 481 847 413 847 q 619 803 567 847 q 672 694 672 760 q 652 619 672 651 q 594 554 632 586 m 465 808 q 390 783 425 808 q 333 723 354 758 q 311 654 311 688 q 328 594 311 624 q 404 522 344 565 l 436 500 q 536 588 504 553 q 578 646 568 622 q 588 689 588 669 q 573 742 588 715 q 531 789 558 769 q 465 808 503 808 m 335 25 q 470 86 421 25 q 519 236 519 147 q 428 386 519 319 l 385 418 q 294 351 338 388 q 222 269 250 314 q 193 172 193 225 q 217 87 193 119 q 274 40 240 54 q 335 25 307 25 z "},"9":{"ha":617,"x_min":103,"x_max":686,"o":"m 107 22 q 263 69 182 32 q 404 164 344 106 q 493 272 451 210 q 557 404 535 335 q 472 354 522 375 q 383 333 422 333 q 251 365 297 333 q 190 444 206 397 q 174 535 174 490 q 197 645 174 590 q 263 746 221 700 q 360 819 304 792 q 482 847 417 847 q 580 827 533 847 q 656 755 626 807 q 686 606 686 703 q 682 545 686 590 q 660 437 678 500 q 605 303 643 374 q 499 163 567 232 q 313 33 418 81 q 108 -17 208 -14 q 107 22 103 0 m 565 446 q 579 520 572 471 q 586 613 586 569 q 565 728 586 686 q 513 788 543 769 q 456 806 483 806 q 385 780 418 806 q 328 714 353 754 q 289 630 303 674 q 275 549 275 586 q 287 476 275 514 q 330 410 299 438 q 418 383 361 383 q 479 396 444 383 q 565 446 514 408 z "}," ":{"ha":347,"x_min":0,"x_max":0,"o":""},"!":{"ha":315,"x_min":121,"x_max":413,"o":"m 350 924 q 393 905 374 924 q 413 849 413 886 q 413 836 413 843 q 410 822 413 829 q 390 739 403 778 q 360 656 376 700 q 326 553 344 613 q 279 379 294 442 q 261 301 264 317 q 253 282 258 290 q 236 274 247 274 q 219 289 219 274 l 219 292 q 225 347 221 306 q 235 444 229 389 q 244 553 240 500 q 249 647 249 610 q 248 679 249 664 q 247 708 247 694 q 249 761 247 735 q 257 822 251 788 q 298 901 268 879 q 350 924 328 924 m 122 56 q 154 108 129 86 q 210 129 179 129 q 255 112 238 129 q 272 68 272 94 q 272 62 272 65 q 271 56 271 58 q 240 3 265 25 q 183 -18 215 -18 q 139 -1 157 -18 q 121 43 121 17 q 122 49 121 46 q 122 56 122 53 z "},"\"":{"ha":467,"x_min":228,"x_max":532,"o":"m 404 593 q 404 615 404 593 q 405 671 404 638 q 406 739 406 704 q 406 798 406 774 q 408 826 407 822 q 436 873 411 850 q 492 896 461 896 q 524 885 515 896 q 532 860 532 874 l 532 850 q 521 816 531 843 q 498 752 511 789 q 472 681 485 715 q 451 622 460 646 q 442 599 442 599 l 404 593 m 228 592 q 228 614 228 592 q 228 669 228 636 q 230 738 229 703 q 231 797 231 772 q 232 825 232 821 q 260 872 236 849 q 317 894 285 894 q 349 883 340 894 q 357 858 357 872 q 356 849 357 851 q 344 815 354 842 q 322 751 335 788 q 296 679 308 714 q 274 621 283 644 q 265 597 265 597 l 228 592 z "},"#":{"ha":608,"x_min":78,"x_max":669,"o":"m 522 474 l 471 321 l 596 321 l 575 254 l 450 254 l 369 18 l 324 18 l 403 254 l 250 254 l 171 18 l 125 18 l 203 254 l 78 254 l 100 321 l 226 321 l 276 474 l 151 474 l 174 542 l 300 542 l 378 778 l 425 778 l 346 542 l 499 542 l 578 778 l 624 778 l 544 542 l 669 542 l 647 474 l 522 474 m 426 321 l 476 474 l 324 474 l 272 321 l 426 321 z "},"$":{"ha":608,"x_min":78,"x_max":635,"o":"m 128 14 q 106 6 113 14 q 78 -1 100 -1 q 89 91 85 38 q 96 203 93 144 l 133 207 q 174 91 138 143 q 279 31 210 39 l 344 367 q 284 400 317 381 q 224 447 251 419 q 183 513 197 475 q 179 603 169 551 q 232 703 190 663 q 327 767 274 744 q 428 793 381 789 l 443 871 l 490 871 l 475 794 q 567 785 526 792 q 635 783 608 779 q 626 686 628 736 q 624 585 625 636 l 586 579 l 583 604 q 550 709 576 672 q 467 751 524 746 l 410 454 q 472 424 436 443 q 540 377 508 406 q 590 309 572 349 q 597 217 607 269 q 581 164 593 200 q 538 88 568 128 q 455 19 508 49 q 318 -15 401 -11 l 299 -112 l 251 -112 l 271 -17 q 181 1 214 -12 q 128 14 149 14 m 419 751 q 326 706 369 743 q 269 608 282 669 q 278 551 264 576 q 317 506 292 525 q 365 474 342 486 l 419 751 m 326 31 q 389 50 356 35 q 451 96 422 65 q 489 176 479 126 q 485 266 500 232 q 442 319 469 300 q 389 349 414 338 l 326 31 z "},"%":{"ha":885,"x_min":142,"x_max":860,"o":"m 606 715 q 672 722 635 715 q 748 744 710 728 q 814 790 786 760 l 860 761 l 193 -19 l 142 -7 l 736 690 q 660 669 696 674 q 593 664 624 664 q 534 673 568 664 q 481 693 500 682 q 485 658 485 676 q 474 583 485 625 q 440 501 463 540 q 385 438 418 463 q 308 413 353 413 q 237 435 265 413 q 195 493 208 458 q 182 564 182 528 q 207 667 182 617 q 274 751 232 718 q 365 785 315 785 q 421 774 394 785 q 457 750 447 763 q 551 719 514 724 q 606 715 588 715 m 253 544 q 275 472 253 490 q 317 453 297 453 q 382 487 354 453 q 426 569 410 521 q 442 657 442 617 q 420 724 442 708 q 379 740 399 740 q 317 708 346 740 q 270 631 288 676 q 253 544 253 585 m 539 126 q 563 230 539 179 q 629 314 588 281 q 722 347 671 347 q 777 337 750 347 q 822 299 804 326 q 840 221 840 271 q 829 143 840 186 q 796 62 818 100 q 740 -1 774 24 q 664 -26 707 -26 q 594 -3 622 -26 q 553 55 567 19 q 539 126 539 90 m 610 107 q 632 33 610 53 q 672 14 654 14 q 725 35 701 14 q 765 88 749 56 q 790 154 781 119 q 799 218 799 189 q 787 272 799 254 q 760 297 775 290 q 736 303 746 303 q 673 270 701 303 q 627 192 644 238 q 610 107 610 147 z "},"&":{"ha":979,"x_min":96,"x_max":1028,"o":"m 769 772 q 730 673 769 721 q 633 585 690 625 q 521 517 575 546 q 531 494 525 507 q 549 455 538 481 q 585 384 561 429 q 651 264 610 339 q 789 438 739 367 q 839 535 839 508 q 822 550 839 550 l 782 550 q 778 560 775 550 l 782 583 l 785 586 q 805 585 785 586 q 853 584 825 585 q 904 583 881 583 q 956 584 928 583 q 1006 585 985 585 q 1026 586 1026 586 l 1028 583 l 1024 561 q 1010 550 1022 550 l 971 550 q 921 530 944 550 q 867 469 897 510 q 792 365 838 428 q 678 217 747 303 l 714 154 q 762 85 738 108 q 804 63 786 63 q 925 142 869 63 l 943 131 q 863 22 907 57 q 782 -12 818 -12 q 738 -7 761 -12 q 690 19 714 -1 q 640 83 665 39 l 608 136 q 481 29 549 71 q 325 -12 413 -12 q 161 29 226 -12 q 96 168 96 71 q 169 357 96 275 q 408 524 243 439 q 380 610 389 572 q 371 678 371 647 q 406 792 371 743 q 498 867 442 840 q 618 894 554 894 q 727 861 685 894 q 769 772 769 828 m 603 847 q 546 828 576 847 q 494 776 515 808 q 472 700 472 743 q 479 646 472 678 q 500 572 486 614 q 603 645 567 613 q 656 704 640 678 q 674 749 671 731 q 678 775 678 767 q 603 847 678 847 m 432 472 q 361 432 400 456 q 287 373 322 408 q 228 288 251 338 q 206 169 206 238 q 246 66 206 97 q 343 35 286 35 q 467 74 417 35 q 582 183 518 113 q 535 268 560 222 q 488 356 510 314 q 450 430 465 399 q 432 472 435 461 z "},"'":{"ha":264,"x_min":214,"x_max":343,"o":"m 214 592 q 214 614 214 592 q 215 669 214 636 q 216 738 215 703 q 217 797 217 772 q 219 825 218 821 q 247 872 222 849 q 303 894 272 894 q 335 883 326 894 q 343 858 343 872 l 343 849 q 332 815 342 842 q 309 751 322 788 q 283 679 296 714 q 262 621 271 644 q 253 597 253 597 l 214 592 z "},"(":{"ha":425,"x_min":119,"x_max":558,"o":"m 150 0 q 127 106 135 53 q 119 214 119 160 q 122 282 119 249 q 131 350 125 315 q 274 699 164 536 q 369 826 306 747 q 538 982 432 904 l 558 957 q 422 801 469 875 q 351 683 374 726 q 239 350 269 526 q 226 253 231 301 q 221 160 221 206 q 233 15 221 85 q 263 -103 240 -29 q 343 -260 285 -178 l 314 -283 q 214 -153 254 -222 q 150 0 174 -83 z "},")":{"ha":435,"x_min":25,"x_max":464,"o":"m 433 700 q 456 594 449 649 q 464 486 464 540 q 461 418 464 451 q 453 350 458 385 q 400 169 435 256 q 310 0 365 82 q 215 -126 279 -47 q 46 -282 151 -204 l 25 -258 q 162 -101 114 -175 q 232 17 210 -26 q 344 350 314 174 q 358 447 353 399 q 363 540 363 494 q 350 685 363 614 q 321 803 343 729 q 240 960 299 878 l 269 983 q 370 852 329 922 q 433 700 411 782 z "},"*":{"ha":601,"x_min":253,"x_max":640,"o":"m 414 788 q 386 792 401 790 q 356 793 371 793 q 281 801 308 793 q 253 836 253 810 l 253 844 q 269 873 256 860 q 306 886 282 886 q 346 874 329 886 q 381 844 363 861 q 428 815 400 828 l 428 831 q 422 883 428 860 q 415 928 415 907 q 416 935 415 932 q 417 943 417 939 q 436 981 421 965 q 469 997 451 997 q 507 960 507 997 l 507 949 q 483 883 501 921 q 456 814 464 846 q 514 844 490 828 q 558 874 538 861 q 601 886 578 886 q 633 874 625 886 q 640 850 640 861 l 640 844 q 603 803 635 814 q 536 793 572 793 q 497 792 515 793 q 460 788 479 790 q 499 748 476 764 q 538 717 521 732 q 554 678 554 701 q 553 667 554 671 q 535 638 550 649 q 506 626 521 626 q 468 651 479 626 q 451 710 457 676 q 432 771 444 744 q 392 706 410 740 q 355 649 374 672 q 310 626 336 626 q 285 636 294 626 q 275 660 275 646 l 275 665 q 303 713 281 696 q 356 747 326 731 q 414 788 386 763 z "},"+":{"ha":732,"x_min":143,"x_max":704,"o":"m 464 356 l 704 356 l 692 288 l 451 288 l 408 47 l 340 47 l 383 288 l 143 288 l 154 356 l 396 356 l 438 597 l 506 597 l 464 356 z "},",":{"ha":304,"x_min":26,"x_max":243,"o":"m 86 63 q 112 113 86 94 q 168 132 138 132 q 222 108 200 132 q 243 43 243 85 q 226 -40 243 7 q 167 -128 210 -87 q 43 -183 124 -168 q 32 -151 26 -169 q 101 -122 68 -143 q 156 -75 135 -100 q 176 -31 176 -50 q 163 -5 176 -11 q 133 6 150 1 q 100 24 114 11 q 86 63 86 38 z "},"-":{"ha":463,"x_min":107,"x_max":485,"o":"m 436 310 l 121 310 q 110 317 114 310 q 107 333 107 325 q 124 372 107 350 q 151 393 142 393 l 469 393 q 485 376 485 393 q 477 350 485 365 q 458 322 469 335 q 436 310 447 310 z "},".":{"ha":304,"x_min":88,"x_max":238,"o":"m 174 132 q 219 115 201 132 q 238 71 238 97 q 213 13 238 40 q 151 -15 188 -15 q 106 3 125 -15 q 88 49 88 22 q 112 104 88 76 q 174 132 136 132 z "},"/":{"ha":404,"x_min":0,"x_max":558,"o":"m 558 947 l 58 -29 l 0 -29 l 501 947 l 558 947 z "},":":{"ha":304,"x_min":97,"x_max":336,"o":"m 272 572 q 318 555 300 572 q 336 511 336 538 q 311 453 336 481 q 250 425 286 425 q 205 444 224 425 q 186 489 186 463 q 210 544 186 517 q 272 572 235 572 m 183 157 q 229 140 211 157 q 247 96 247 122 q 222 38 247 65 q 161 10 197 10 q 116 28 135 10 q 97 74 97 47 q 122 129 97 101 q 183 157 146 157 z "},";":{"ha":304,"x_min":39,"x_max":324,"o":"m 99 63 q 124 113 99 94 q 181 132 150 132 q 234 108 213 132 q 256 43 256 85 q 239 -40 256 7 q 179 -128 222 -87 q 56 -183 136 -168 q 44 -151 39 -169 q 114 -122 81 -143 q 168 -75 147 -100 q 189 -31 189 -50 q 176 -5 189 -11 q 146 6 163 1 q 113 24 126 11 q 99 63 99 38 m 260 565 q 306 548 288 565 q 324 504 324 531 q 299 446 324 474 q 238 418 274 418 q 192 437 211 418 q 174 482 174 456 q 198 538 174 510 q 260 565 222 565 z "},"<":{"ha":676,"x_min":121,"x_max":708,"o":"m 228 332 l 639 171 l 628 101 l 121 299 l 132 365 l 708 561 l 696 492 l 228 332 z "},"=":{"ha":732,"x_min":126,"x_max":719,"o":"m 719 442 l 707 374 l 157 374 l 169 442 l 719 442 m 689 268 l 676 200 l 126 200 l 139 268 l 689 268 z "},">":{"ha":676,"x_min":86,"x_max":674,"o":"m 565 328 l 154 489 l 167 558 l 674 361 l 663 294 l 86 99 l 97 168 l 565 328 z "},"?":{"ha":563,"x_min":203,"x_max":675,"o":"m 203 722 q 219 780 203 747 q 268 844 235 813 q 351 895 301 875 q 469 915 401 915 q 619 870 564 915 q 675 749 675 825 q 652 647 675 690 q 594 569 629 603 q 519 510 558 536 q 449 463 481 485 q 401 418 417 440 q 373 367 383 392 q 357 317 363 342 l 347 256 q 326 242 346 242 q 311 256 310 242 l 322 319 q 366 446 338 399 q 429 524 394 493 q 495 581 464 554 q 547 642 526 607 q 567 736 567 678 q 534 833 567 793 q 449 874 501 874 q 340 844 376 874 q 304 782 304 814 q 311 758 304 769 q 315 739 315 750 q 299 697 315 718 q 250 676 282 676 q 219 685 236 676 q 203 722 203 694 m 315 132 q 361 115 343 132 q 379 71 379 97 q 354 13 379 40 q 293 -15 329 -15 q 248 3 267 -15 q 229 49 229 22 q 253 104 229 76 q 315 132 278 132 z "},"@":{"ha":1151,"x_min":117,"x_max":1193,"o":"m 774 103 q 777 90 772 93 q 783 86 782 86 q 903 112 850 86 q 997 202 957 138 q 1061 382 1038 267 q 1064 569 1085 489 q 995 701 1043 649 q 885 781 947 754 q 763 807 824 807 q 610 779 689 807 q 458 694 531 751 q 331 548 386 638 q 249 335 275 458 q 233 203 235 272 q 247 67 232 133 q 301 -55 263 0 q 406 -142 340 -110 q 572 -174 472 -174 q 722 -150 654 -174 q 851 -82 790 -126 l 864 -107 q 722 -187 796 -154 q 538 -219 647 -219 q 337 -178 422 -219 q 199 -65 251 -137 q 132 103 147 7 q 140 310 117 199 q 226 519 164 422 q 376 691 288 617 q 570 807 465 765 q 785 849 675 849 q 1019 788 924 849 q 1153 625 1114 728 q 1165 392 1193 522 q 1120 270 1153 332 q 1033 156 1088 208 q 901 70 979 103 q 718 38 824 38 q 686 58 692 38 q 685 94 681 78 q 698 133 688 110 q 722 182 708 156 l 719 183 q 606 74 660 107 q 518 40 551 40 q 442 59 469 40 q 404 106 415 78 q 392 163 393 133 q 396 213 392 192 q 452 352 411 288 q 549 465 493 417 q 663 542 604 514 q 774 569 722 569 q 831 553 806 569 q 860 510 856 538 l 874 543 l 946 561 l 963 554 l 810 196 q 788 140 799 168 q 774 103 776 113 m 828 439 q 816 503 836 479 q 761 526 796 526 q 707 515 744 526 q 633 471 669 503 q 540 354 572 418 q 493 225 507 290 q 488 163 486 192 q 508 115 490 133 q 567 97 526 97 q 621 122 589 97 q 688 187 653 146 q 753 278 724 228 q 797 357 774 310 q 828 439 819 404 z "},"A":{"ha":926,"x_min":4,"x_max":926,"o":"m 224 110 q 214 78 214 93 q 264 40 214 44 l 301 38 q 310 26 311 38 l 307 0 l 303 -3 q 218 -1 267 -1 q 129 0 169 0 q 67 -1 90 0 q 6 -3 43 -1 l 4 0 l 8 26 q 21 38 10 38 q 98 59 65 40 q 169 142 131 78 l 607 864 q 635 903 624 892 q 661 914 647 914 q 681 903 676 914 q 689 872 686 892 l 817 119 q 842 61 824 79 q 900 39 861 43 l 914 38 q 925 26 926 38 l 922 0 l 919 -3 q 843 -1 883 -1 q 763 0 803 0 q 674 -1 724 0 q 586 -3 624 -1 l 585 0 l 588 26 q 599 38 589 38 l 638 40 q 706 88 706 46 q 704 100 706 93 l 669 335 l 392 335 q 358 330 368 335 q 340 311 347 325 l 224 110 m 426 393 l 658 393 l 601 764 l 599 764 l 397 411 q 394 403 394 406 q 426 393 394 393 z "},"B":{"ha":774,"x_min":22,"x_max":781,"o":"m 28 26 q 39 38 31 38 l 79 40 q 138 53 122 43 q 160 99 153 63 l 296 797 q 299 822 299 813 q 285 847 299 840 q 238 856 271 853 l 199 858 q 190 868 190 858 l 196 896 l 200 899 q 288 897 247 897 q 368 896 329 896 q 452 897 408 896 q 531 899 496 899 q 686 875 632 899 q 760 814 740 851 q 781 736 781 776 q 779 710 781 724 q 775 685 778 697 q 718 579 765 629 q 615 503 671 529 l 615 500 q 731 431 686 478 q 776 307 776 383 q 771 256 776 283 q 738 165 763 211 q 669 81 714 119 q 554 20 624 43 q 385 -3 485 -3 q 294 -2 325 -3 q 242 -1 263 -1 q 194 0 221 0 q 114 -1 156 0 q 25 -3 72 -1 l 22 0 l 28 26 m 403 792 l 347 508 l 446 508 q 590 544 529 508 q 669 668 651 579 q 675 717 675 694 q 653 797 675 768 q 597 839 631 826 q 531 851 564 851 q 447 846 472 851 q 415 828 422 840 q 403 792 407 815 m 339 461 l 269 108 q 268 89 268 96 q 289 55 268 65 q 368 44 310 44 q 526 69 469 44 q 610 137 583 94 q 647 229 638 179 q 653 281 653 256 q 601 409 653 357 q 431 461 549 461 l 339 461 z "},"C":{"ha":856,"x_min":124,"x_max":931,"o":"m 469 -14 q 272 35 349 -14 q 160 163 196 83 q 124 335 124 242 q 133 438 124 386 q 205 627 153 540 q 329 778 257 714 q 485 878 401 843 q 651 914 568 914 q 754 905 713 914 q 824 884 796 896 q 878 863 853 872 q 931 851 903 853 q 922 743 925 796 q 918 636 919 690 l 878 631 q 849 743 872 690 q 772 829 825 796 q 626 863 719 863 q 533 840 588 863 q 422 769 478 817 q 320 645 365 721 q 254 464 275 569 q 243 347 243 404 q 267 197 243 267 q 344 85 292 128 q 479 43 396 43 q 652 78 572 43 q 818 194 732 114 q 844 174 838 194 q 663 33 760 81 q 469 -14 567 -14 z "},"D":{"ha":926,"x_min":22,"x_max":964,"o":"m 26 25 q 39 38 29 38 l 79 40 q 135 56 115 43 q 161 103 156 69 l 296 794 q 299 819 299 810 q 285 847 299 840 q 238 856 271 853 l 201 858 q 192 869 189 858 l 196 896 l 200 899 q 288 897 247 897 q 368 896 329 896 q 465 897 408 896 q 586 899 522 899 q 783 849 699 899 q 916 713 868 799 q 964 521 964 628 q 954 428 964 475 q 872 216 929 300 q 740 84 815 132 q 585 17 665 36 q 435 -3 506 -3 q 323 -2 367 -3 q 250 -1 279 -1 q 194 0 221 0 q 113 -1 154 0 q 25 -3 72 -1 l 22 0 l 26 25 m 268 101 q 267 83 267 90 q 293 53 267 61 q 403 44 319 44 q 540 60 474 44 q 664 114 607 75 q 763 221 721 153 q 825 394 804 289 q 838 519 838 458 q 808 683 838 607 q 711 805 779 758 q 526 851 643 851 q 444 842 478 851 q 404 797 411 833 l 268 101 z "},"E":{"ha":731,"x_min":15,"x_max":768,"o":"m 768 897 q 767 869 768 893 q 765 814 767 846 q 761 749 763 782 q 757 696 760 717 l 718 689 q 703 771 713 738 q 668 822 693 804 q 593 840 643 840 l 454 840 q 396 793 406 840 l 340 501 l 510 501 q 561 516 544 501 q 588 560 578 531 l 597 594 q 610 606 600 606 l 639 606 l 643 600 q 614 475 621 517 q 605 425 610 454 q 596 354 600 396 l 589 350 l 560 350 q 553 354 554 350 q 553 361 551 358 l 556 396 q 557 407 557 403 q 543 440 557 431 q 499 449 529 449 l 329 449 l 261 100 q 260 86 260 92 q 272 60 260 67 q 301 54 283 54 l 482 54 q 610 108 558 54 q 697 236 663 161 l 738 229 q 690 113 715 175 q 643 -3 665 51 q 614 -2 643 -3 q 545 -1 585 -1 q 474 0 506 0 l 188 0 q 107 -1 149 0 q 18 -3 65 -1 l 15 0 l 21 28 q 25 34 22 31 q 33 38 28 38 l 74 40 q 131 57 114 43 q 154 100 149 71 l 289 793 q 292 813 292 804 q 277 843 292 833 q 232 856 263 853 l 193 858 q 185 868 182 858 l 190 896 l 193 899 q 281 897 240 897 q 361 896 322 896 l 699 896 q 733 897 722 896 q 763 901 744 899 q 768 897 768 901 z "},"F":{"ha":635,"x_min":17,"x_max":768,"o":"m 499 449 l 329 449 l 263 103 q 261 85 261 93 q 276 53 261 63 q 324 40 290 43 l 357 38 q 367 26 369 38 l 361 0 l 358 -3 q 269 -1 311 -1 q 188 0 228 0 q 108 -1 149 0 q 19 -3 67 -1 l 17 0 l 22 26 q 35 38 25 38 l 71 40 q 131 58 114 43 q 154 103 149 74 l 289 793 q 292 814 292 804 q 278 844 292 835 q 232 856 264 853 l 193 858 q 185 868 182 858 l 190 896 l 193 899 q 281 897 240 897 q 361 896 322 896 l 700 896 q 735 897 724 896 q 764 901 746 899 q 768 897 768 901 q 767 869 768 893 q 764 814 765 846 q 760 749 763 782 q 757 696 758 717 l 718 689 q 703 771 713 738 q 668 822 693 804 q 593 840 643 840 l 454 840 q 396 793 406 840 l 340 501 l 510 501 q 561 516 544 501 q 588 560 578 531 l 597 594 q 610 606 600 606 l 639 606 l 643 600 q 614 475 621 517 q 605 425 610 454 q 596 354 600 396 l 589 350 l 560 350 q 553 354 554 350 q 553 361 551 358 l 556 396 q 557 407 557 403 q 543 440 557 431 q 499 449 529 449 z "},"G":{"ha":922,"x_min":117,"x_max":981,"o":"m 676 914 q 778 904 738 914 q 847 883 818 894 q 900 861 875 871 q 956 851 925 851 q 946 729 949 776 q 943 638 943 682 l 901 629 q 874 742 896 689 q 799 829 851 796 q 649 863 746 863 q 475 811 558 863 q 331 668 392 760 q 246 454 269 576 q 239 372 239 414 q 256 250 239 310 q 308 142 272 190 q 399 65 344 94 q 531 36 454 36 q 642 53 585 36 q 739 103 699 69 l 781 315 q 782 333 782 325 q 767 363 782 354 q 718 374 751 371 l 685 376 q 676 388 674 376 l 683 424 l 686 426 q 774 424 733 425 q 854 424 815 424 q 921 424 894 424 q 978 426 947 425 l 981 424 l 974 388 q 960 376 972 379 q 913 363 931 374 q 889 315 896 351 l 857 154 q 871 115 853 133 q 699 21 790 56 q 490 -14 608 -14 q 290 33 374 -14 q 161 159 206 79 q 117 338 117 239 q 125 426 117 382 q 203 632 147 542 q 338 785 260 722 q 503 881 415 847 q 676 914 590 914 z "},"H":{"ha":935,"x_min":25,"x_max":1081,"o":"m 838 790 q 830 835 843 821 q 776 854 817 850 l 729 858 q 728 879 726 864 q 733 899 731 894 q 825 897 779 897 q 910 896 871 896 q 990 897 950 896 q 1076 899 1029 897 q 1079 876 1081 889 q 1074 858 1078 863 l 1031 854 q 969 835 988 850 q 944 790 951 819 l 810 106 q 817 60 804 74 q 871 42 831 46 l 918 38 q 919 17 921 32 q 914 -3 917 1 q 823 -1 868 -1 q 738 0 778 0 q 658 -1 697 0 q 571 -3 618 -1 q 568 20 567 7 q 574 38 569 33 l 617 42 q 678 61 660 46 q 703 106 697 76 l 769 446 l 335 446 l 268 106 q 276 60 263 74 q 329 42 289 46 l 376 38 q 377 17 379 32 q 372 -3 375 1 q 281 -1 326 -1 q 196 0 236 0 q 116 -1 156 0 q 29 -3 76 -1 q 26 20 25 7 q 32 38 28 33 l 75 42 q 137 61 118 46 q 161 106 156 76 l 296 790 q 288 835 301 821 q 235 854 275 850 l 188 858 q 187 879 185 864 q 192 899 189 894 q 283 897 238 897 q 368 896 329 896 q 448 897 408 896 q 535 899 488 897 q 538 876 539 889 q 532 858 536 863 l 489 854 q 428 835 446 850 q 403 790 410 819 l 347 504 l 782 504 l 838 790 z "},"I":{"ha":389,"x_min":25,"x_max":539,"o":"m 296 790 q 288 835 301 821 q 235 854 275 850 l 188 858 q 187 879 185 864 q 192 899 189 894 q 283 897 238 897 q 368 896 329 896 q 448 897 408 896 q 535 899 488 897 q 538 876 539 889 q 532 858 536 863 l 489 854 q 428 835 446 850 q 403 790 410 819 l 268 106 q 276 60 263 74 q 329 42 289 46 l 376 38 q 377 17 379 32 q 372 -3 375 1 q 281 -1 326 -1 q 196 0 236 0 q 116 -1 156 0 q 29 -3 76 -1 q 26 20 25 7 q 32 38 28 33 l 75 42 q 137 61 118 46 q 161 106 156 76 l 296 790 z "},"J":{"ha":575,"x_min":43,"x_max":689,"o":"m 604 806 q 594 740 600 785 q 581 645 588 696 q 570 554 575 594 q 565 500 565 514 q 580 472 565 478 q 629 463 594 465 l 625 428 l 551 421 l 511 178 q 434 -88 483 13 q 319 -233 385 -189 q 176 -278 253 -278 q 114 -267 144 -278 q 63 -239 83 -257 q 43 -196 43 -221 q 56 -160 43 -181 q 96 -140 68 -140 q 161 -172 139 -140 q 177 -210 175 -192 q 196 -229 179 -229 q 314 -131 264 -229 q 394 147 364 -33 l 440 419 l 269 432 l 269 460 l 449 469 l 451 486 q 474 606 464 557 q 500 696 485 654 q 538 788 515 738 l 536 793 q 514 789 528 789 q 476 794 496 789 q 440 806 456 800 q 356 844 393 825 q 274 864 318 864 q 237 851 251 864 q 222 825 222 839 q 233 809 222 818 q 256 788 244 800 q 267 757 267 775 q 221 714 267 714 q 182 731 194 714 q 169 775 169 749 q 188 837 169 803 q 247 896 206 871 q 354 921 288 921 q 458 897 400 921 q 560 851 515 872 q 583 909 564 878 q 638 940 603 940 q 674 932 660 940 q 689 901 689 924 q 660 851 689 876 q 604 806 632 825 z "},"K":{"ha":885,"x_min":25,"x_max":1003,"o":"m 296 790 q 288 835 301 821 q 235 854 275 850 l 188 858 q 187 879 185 864 q 192 899 189 894 q 283 897 238 897 q 368 896 329 896 q 448 897 408 896 q 535 899 488 897 q 538 876 539 889 q 532 858 536 863 l 489 854 q 428 835 446 850 q 403 790 410 819 l 342 482 q 408 499 381 485 q 460 536 435 514 l 732 781 q 772 836 772 818 q 740 856 772 851 l 714 858 q 706 869 703 858 l 710 896 l 714 899 q 794 897 761 897 q 868 896 828 896 q 912 897 894 896 q 949 898 929 897 q 999 899 968 899 l 1003 896 l 997 869 q 981 858 994 858 q 897 840 939 853 q 797 775 854 826 l 569 565 q 520 517 531 529 q 507 497 510 504 q 508 481 506 489 q 517 463 510 474 l 739 101 q 781 56 758 69 q 831 39 803 43 l 839 38 q 849 26 850 35 l 844 0 l 839 -3 q 766 -1 792 -1 q 701 0 740 0 q 649 -1 671 0 q 607 -3 628 -1 l 606 0 l 607 8 q 610 27 608 17 q 613 49 613 38 q 610 74 613 61 q 599 101 607 88 l 435 376 q 394 417 419 404 q 332 429 368 429 l 335 447 l 268 106 q 276 60 263 74 q 329 42 289 46 l 376 38 q 377 17 379 32 q 372 -3 375 1 q 281 -1 326 -1 q 196 0 236 0 q 116 -1 156 0 q 29 -3 76 -1 q 26 20 25 7 q 32 38 28 33 l 75 42 q 137 61 118 46 q 161 106 156 76 l 296 790 z "},"L":{"ha":721,"x_min":26,"x_max":718,"o":"m 163 106 l 296 790 q 288 835 301 821 q 235 854 275 850 l 188 858 q 187 879 185 864 q 192 899 189 894 q 283 897 238 897 q 368 896 329 896 q 448 897 408 896 q 535 899 488 897 q 538 876 539 889 q 532 858 536 863 l 489 854 q 427 835 446 850 q 403 790 408 819 l 272 124 q 271 106 271 114 q 322 54 271 54 l 475 54 q 565 82 526 54 q 631 151 603 110 q 679 236 660 193 q 718 226 703 242 q 674 114 696 172 q 638 -3 653 56 q 618 -2 638 -3 q 572 -1 599 -1 q 519 -1 544 -1 q 479 0 493 0 l 197 0 q 117 -1 157 0 q 31 -3 78 -1 q 28 20 26 7 q 33 38 29 33 l 76 42 q 138 61 119 46 q 163 106 157 76 z "},"M":{"ha":1117,"x_min":22,"x_max":1214,"o":"m 910 121 l 993 742 l 990 742 l 547 7 q 526 -8 538 -8 q 508 7 513 -8 l 374 728 l 371 728 l 196 119 q 190 83 190 99 q 199 53 190 65 q 226 40 207 42 l 260 38 q 271 26 271 38 l 269 0 l 265 -3 q 201 -1 236 -1 q 143 0 167 0 q 88 -1 119 0 q 25 -3 56 -1 l 22 0 l 25 26 q 39 38 26 38 l 75 40 q 122 67 107 43 q 144 119 138 92 l 340 797 q 344 825 344 815 q 300 856 344 853 l 263 858 q 251 868 250 858 l 254 896 l 257 899 l 457 897 l 593 190 q 600 172 594 172 q 615 192 604 172 l 1036 899 l 1211 899 l 1214 896 l 1211 868 q 1205 860 1210 861 q 1194 858 1200 858 l 1158 856 q 1096 797 1103 851 l 1011 121 q 1008 90 1008 103 q 1017 56 1008 69 q 1050 40 1025 42 l 1086 38 q 1099 26 1100 36 l 1096 0 l 1093 -3 q 1010 -1 1046 -1 q 943 0 974 0 q 881 -1 914 0 q 800 -3 849 -1 l 797 0 l 800 26 q 814 38 801 36 l 850 40 q 892 69 878 43 q 910 121 907 94 z "},"N":{"ha":925,"x_min":17,"x_max":1094,"o":"m 954 774 l 810 29 q 774 -14 800 -14 q 726 19 742 -14 l 381 632 q 343 678 354 678 q 317 610 331 678 l 222 122 q 219 101 219 111 q 233 60 219 76 q 279 40 247 43 l 314 38 q 322 26 324 36 l 319 0 l 317 -3 q 233 -1 269 -1 q 172 0 197 0 q 107 -1 147 0 q 19 -3 67 -1 l 17 0 l 19 25 q 39 38 21 36 l 74 40 q 136 69 115 43 q 163 122 157 94 l 288 764 q 266 824 286 792 q 214 858 246 856 q 201 862 207 860 q 194 869 194 864 l 197 896 l 201 899 l 385 899 l 722 282 q 756 224 744 243 q 775 206 767 206 q 785 217 782 206 q 792 247 788 228 l 894 774 q 897 794 897 786 q 884 835 897 818 q 838 856 871 853 l 804 858 q 792 862 799 858 q 788 869 786 865 l 792 896 l 794 899 q 882 897 842 897 q 947 896 922 896 q 1008 897 971 896 q 1092 899 1044 897 l 1094 896 l 1092 869 q 1087 861 1092 864 q 1079 858 1082 858 l 1042 856 q 982 829 1003 853 q 954 774 961 806 z "},"O":{"ha":928,"x_min":121,"x_max":981,"o":"m 971 457 q 872 212 944 318 q 693 46 799 106 q 460 -14 588 -14 q 285 27 361 -14 q 165 144 208 68 q 121 325 121 219 q 132 431 121 375 q 199 621 151 533 q 313 774 246 708 q 462 877 381 840 q 632 914 543 914 q 813 870 733 914 q 936 747 892 826 q 981 560 981 668 q 971 457 981 510 m 606 867 q 476 824 546 867 q 347 691 406 782 q 260 454 288 600 q 247 339 247 393 q 281 172 247 240 q 372 69 315 104 q 496 33 428 33 q 642 81 572 33 q 766 217 713 128 q 843 431 819 307 q 857 569 857 506 q 788 792 857 718 q 606 867 718 867 z "},"P":{"ha":693,"x_min":22,"x_max":797,"o":"m 160 99 l 296 797 q 297 811 297 804 q 281 845 297 836 q 249 856 264 854 l 197 858 q 190 867 189 858 l 196 896 l 200 899 q 283 897 236 897 q 369 896 331 896 q 431 899 397 896 q 497 905 465 901 q 544 908 528 908 q 702 878 647 908 q 777 805 757 849 q 797 719 797 761 q 793 675 797 697 q 760 581 785 631 q 692 489 736 532 q 583 419 649 446 q 426 392 518 392 q 370 395 392 392 q 328 406 349 399 l 268 99 q 267 82 267 89 q 282 51 267 60 q 329 40 297 42 l 378 38 q 386 26 389 38 l 381 0 l 378 -3 q 283 -1 331 -1 q 196 0 236 0 q 108 -1 154 0 q 25 -3 61 -1 l 22 0 l 28 26 q 40 38 31 38 l 75 40 q 135 56 115 43 q 160 99 154 69 m 404 797 l 336 446 q 376 441 347 443 q 429 439 404 439 q 588 488 526 439 q 671 650 649 538 q 679 722 679 690 q 657 809 679 779 q 599 850 635 839 q 525 861 564 861 q 431 844 453 861 q 404 797 410 828 z "},"Q":{"ha":928,"x_min":121,"x_max":981,"o":"m 176 -178 q 282 -90 221 -135 q 410 -11 343 -44 q 201 92 281 4 q 121 325 121 181 q 132 431 121 375 q 199 621 151 533 q 313 774 246 708 q 462 877 381 840 q 632 914 543 914 q 813 870 733 914 q 936 747 892 826 q 981 560 981 668 q 971 457 981 510 q 888 239 947 336 q 744 78 829 142 q 553 -6 658 15 q 466 -37 519 -14 q 351 -99 413 -60 q 378 -97 367 -97 q 478 -115 433 -97 q 564 -154 524 -132 q 644 -194 604 -176 q 728 -211 685 -211 q 792 -199 757 -211 q 854 -160 828 -187 l 874 -176 q 773 -262 824 -235 q 660 -290 722 -290 q 548 -270 594 -290 q 463 -224 501 -250 q 388 -178 425 -199 q 304 -158 350 -158 q 283 -162 296 -158 q 254 -175 269 -165 q 190 -240 221 -206 l 144 -212 q 176 -178 157 -194 m 606 867 q 476 824 546 867 q 347 691 406 782 q 260 454 288 600 q 247 339 247 393 q 281 172 247 240 q 372 69 315 104 q 496 33 428 33 q 642 81 572 33 q 766 217 713 128 q 843 431 819 307 q 857 569 857 506 q 788 792 857 718 q 606 867 718 867 z "},"R":{"ha":771,"x_min":22,"x_max":797,"o":"m 538 908 q 658 897 600 908 q 754 839 715 886 q 797 718 797 786 q 792 665 797 693 q 735 544 778 593 q 646 466 693 494 q 568 428 599 438 l 679 136 q 719 60 697 92 q 786 29 742 29 l 782 -4 q 755 -12 771 -10 q 724 -14 739 -14 q 627 24 664 -14 q 571 110 590 61 l 476 351 q 456 380 469 368 q 413 398 443 392 q 328 404 383 404 l 268 100 q 267 82 267 90 q 281 52 267 61 q 329 40 296 43 l 364 38 q 372 26 375 38 l 368 0 l 364 -3 q 276 -1 317 -1 q 194 0 235 0 q 114 -1 156 0 q 25 -3 72 -1 l 22 0 l 28 26 q 40 38 31 38 l 75 40 q 136 57 118 43 q 160 100 154 71 l 296 797 q 297 811 297 804 q 281 845 297 836 q 249 856 264 854 l 197 858 q 190 867 189 858 l 196 896 l 200 899 q 288 897 247 897 q 368 896 329 896 q 428 899 394 896 q 491 905 461 901 q 538 908 521 908 m 529 861 q 434 844 458 861 q 404 797 410 828 l 336 451 l 403 451 q 523 468 468 451 q 617 531 578 485 q 674 664 657 578 q 681 724 681 697 q 658 810 681 781 q 599 850 635 839 q 529 861 564 861 z "},"S":{"ha":631,"x_min":71,"x_max":685,"o":"m 685 869 q 678 777 682 814 q 674 690 674 740 l 631 693 q 615 778 626 739 q 572 842 603 818 q 476 867 540 867 q 362 828 411 867 q 300 725 313 789 q 297 697 297 711 q 324 613 297 649 q 386 556 351 578 q 444 522 421 533 q 535 472 492 501 q 606 399 578 442 q 633 294 633 356 q 628 242 633 269 q 565 113 614 171 q 446 21 515 56 q 299 -14 376 -14 q 207 -8 243 -14 q 141 2 171 -3 q 71 7 111 7 q 80 74 76 43 q 85 140 83 104 q 89 229 88 176 l 131 233 q 181 83 132 129 q 319 36 231 36 q 445 72 396 36 q 511 193 494 108 q 517 244 517 222 q 483 344 517 307 q 401 404 450 381 q 306 460 353 429 q 228 536 258 492 q 197 642 197 581 q 201 688 197 664 q 265 812 217 761 q 377 888 314 863 q 499 914 440 914 q 570 908 544 914 q 611 896 596 903 q 642 881 626 889 q 685 869 658 874 z "},"T":{"ha":756,"x_min":154,"x_max":911,"o":"m 318 896 l 782 896 q 840 902 819 896 q 896 914 861 908 q 897 826 893 872 q 911 719 900 779 q 890 713 899 714 q 869 713 881 713 q 829 812 851 782 q 753 842 807 842 l 678 842 q 626 831 643 842 q 603 783 610 819 l 471 106 q 478 60 465 74 q 532 42 492 46 l 579 38 q 580 17 582 32 q 575 -3 578 1 q 484 -1 529 -1 q 399 0 439 0 q 319 -1 358 0 q 232 -3 279 -1 q 229 20 228 7 q 235 38 231 33 l 278 42 q 340 61 321 46 q 364 106 358 76 l 496 788 q 492 830 501 818 q 440 842 482 842 l 344 842 q 258 817 289 842 q 196 724 226 792 q 174 726 186 724 q 154 733 163 728 q 192 825 178 788 q 219 914 206 863 q 267 903 244 910 q 318 896 290 896 z "},"U":{"ha":881,"x_min":167,"x_max":1056,"o":"m 425 -14 q 342 -3 386 -14 q 260 33 299 7 q 197 108 221 60 q 172 231 172 156 q 182 328 172 275 l 274 794 q 275 813 275 804 q 260 844 275 835 q 213 856 244 853 l 178 858 q 169 869 167 858 l 174 896 l 178 899 q 266 897 225 897 q 346 896 307 896 q 428 897 386 896 q 517 899 469 897 l 519 896 l 514 869 q 501 858 511 858 l 467 856 q 406 838 425 853 q 381 794 388 824 l 299 374 q 288 306 293 340 q 282 238 282 271 q 290 172 282 204 q 319 113 297 140 q 380 63 343 82 q 464 43 417 43 q 604 74 549 43 q 694 156 660 106 q 747 266 728 206 q 776 385 765 326 l 856 792 q 858 811 858 803 q 796 856 858 850 l 760 858 q 751 869 749 858 l 757 896 l 760 899 q 845 897 807 897 q 906 896 883 896 q 967 897 929 896 q 1053 899 1006 897 l 1056 896 l 1050 869 q 1038 858 1047 858 l 1003 856 q 941 837 960 853 q 917 792 922 821 l 842 410 q 773 190 818 286 q 645 40 728 94 q 425 -14 563 -14 z "},"V":{"ha":829,"x_min":153,"x_max":1008,"o":"m 857 768 l 436 15 q 399 -17 418 -17 q 374 15 378 -17 l 261 772 q 242 828 256 811 q 208 849 229 844 q 158 858 188 854 q 153 879 153 865 q 158 899 153 893 q 232 897 200 897 q 306 896 264 896 q 392 897 346 896 q 474 899 439 897 q 481 879 481 893 q 474 858 481 865 q 425 851 450 857 q 385 831 400 844 q 374 794 371 818 l 463 176 q 472 176 467 171 l 796 779 q 794 837 818 819 q 718 858 771 854 q 713 879 713 865 q 718 899 713 893 q 802 897 760 897 q 871 896 844 896 q 931 897 899 896 q 1001 899 963 897 q 1008 879 1008 893 q 1001 858 1008 865 q 911 828 946 853 q 857 768 876 803 z "},"W":{"ha":1263,"x_min":188,"x_max":1446,"o":"m 301 758 q 269 833 294 815 q 193 858 243 850 q 188 879 188 865 q 193 899 188 893 q 269 897 231 897 q 343 896 308 896 q 428 897 382 896 q 510 899 475 897 q 517 879 517 893 q 510 858 517 865 q 440 843 474 857 q 411 794 407 829 l 458 303 l 468 211 l 521 300 l 794 811 l 854 811 q 857 787 854 811 q 863 731 860 763 q 869 675 867 699 l 914 288 l 924 203 l 975 299 l 1235 779 q 1228 837 1257 819 q 1146 858 1199 854 q 1140 879 1140 865 q 1146 899 1140 893 q 1232 897 1188 897 q 1303 896 1276 896 q 1367 897 1331 896 q 1439 899 1404 897 q 1446 879 1446 893 q 1439 858 1446 865 q 1354 828 1383 853 q 1306 768 1325 803 l 888 15 q 872 -9 878 -4 q 858 -14 867 -14 q 843 -8 849 -14 q 835 17 838 -1 l 776 510 q 769 563 772 546 q 764 604 765 581 q 757 607 763 607 q 735 569 750 596 q 706 514 721 542 l 433 17 q 418 -8 424 -1 q 404 -14 413 -14 q 390 -8 393 -14 q 385 17 386 -1 l 301 758 z "},"X":{"ha":872,"x_min":4,"x_max":1017,"o":"m 186 868 l 192 894 l 196 899 q 273 897 236 897 q 333 896 310 896 q 403 897 357 896 q 496 899 449 897 q 496 897 496 899 q 497 894 496 894 l 493 868 q 485 858 492 858 l 440 856 q 408 835 408 854 q 413 817 408 828 q 422 794 417 807 l 533 550 q 546 535 542 535 q 567 551 553 535 l 786 794 q 808 822 800 810 q 815 840 815 833 q 790 856 815 854 l 751 858 q 743 868 742 858 l 749 896 l 751 899 q 826 897 792 897 q 883 896 861 896 q 940 897 907 896 q 1014 899 974 897 l 1017 896 l 1011 868 q 997 858 1011 858 q 903 831 938 857 q 833 767 868 804 l 611 521 q 585 479 589 496 q 585 472 585 475 q 597 433 585 458 l 746 142 q 794 71 765 101 q 867 38 824 40 q 875 28 875 38 l 869 0 l 867 -3 q 788 -1 826 -1 q 726 0 750 0 q 656 -1 704 0 q 560 -3 607 -1 l 556 0 l 561 28 q 571 38 564 38 l 599 40 q 643 61 643 44 q 639 77 643 67 q 628 101 635 88 l 503 363 q 486 378 496 378 q 463 358 482 378 l 238 107 q 219 83 226 94 q 211 61 211 71 q 244 40 211 44 l 269 38 q 276 28 276 36 l 271 0 l 267 -3 q 188 -1 219 -1 q 117 0 157 0 q 61 -1 88 0 q 4 -3 35 -1 l 4 0 l 10 28 q 26 38 11 38 q 98 58 65 40 q 156 99 131 75 q 200 144 182 124 l 433 404 q 453 436 451 424 q 454 444 454 440 q 442 478 454 458 l 306 763 q 249 840 276 824 q 206 858 222 856 q 186 868 185 863 z "},"Y":{"ha":767,"x_min":169,"x_max":922,"o":"m 467 106 q 474 60 461 75 q 528 42 488 46 l 575 38 q 576 17 578 32 q 571 -3 574 1 q 480 -1 525 -1 q 394 0 435 0 q 315 -1 354 0 q 228 -3 275 -1 q 225 20 224 7 q 231 38 226 33 l 274 42 q 335 61 317 46 q 360 106 354 76 l 408 360 q 413 394 413 383 q 412 406 413 399 q 408 419 411 413 l 281 760 q 245 833 260 815 q 196 856 231 851 l 175 858 q 171 878 172 864 q 172 899 169 893 q 240 897 201 897 q 317 896 278 896 q 391 897 357 896 q 465 899 425 897 q 467 879 468 894 q 463 858 465 864 l 417 854 q 380 840 382 851 q 388 800 378 828 l 506 465 l 511 465 l 731 800 q 750 841 751 831 q 724 854 749 851 l 679 858 q 678 878 678 863 q 682 899 679 894 q 754 897 722 897 q 808 896 786 896 q 860 897 832 896 q 919 899 889 897 q 919 879 922 894 q 914 858 917 864 l 878 856 q 823 835 842 853 q 782 785 804 817 l 539 431 q 528 405 532 419 q 519 372 524 390 l 467 106 z "},"Z":{"ha":803,"x_min":57,"x_max":935,"o":"m 733 -3 q 713 -2 733 -3 q 663 -1 692 -1 q 606 -1 633 -1 q 565 0 578 0 l 79 0 q 57 17 57 0 q 75 53 57 35 l 739 804 q 754 829 753 819 q 743 840 758 840 l 436 840 q 354 819 386 840 q 299 760 322 797 q 251 675 275 724 l 213 682 q 251 792 229 725 q 288 914 272 858 q 323 908 313 913 q 347 899 333 903 q 392 896 361 896 l 819 896 q 873 904 851 899 q 907 910 894 910 q 929 907 924 910 q 935 899 935 904 q 925 871 935 890 q 888 821 915 851 l 247 100 q 238 84 242 90 q 232 72 233 78 q 261 54 228 54 l 572 54 q 694 108 649 54 q 774 236 739 161 l 814 229 q 770 115 792 175 q 733 -3 749 56 z "},"[":{"ha":464,"x_min":74,"x_max":589,"o":"m 589 957 l 579 897 l 375 897 l 179 -217 l 382 -217 l 372 -278 l 74 -278 l 290 957 l 589 957 z "},"\\":{"ha":446,"x_min":186,"x_max":432,"o":"m 247 969 l 432 -67 l 371 -67 l 186 969 l 247 969 z "},"]":{"ha":464,"x_min":-4,"x_max":511,"o":"m -4 -278 l 6 -217 l 210 -217 l 406 897 l 203 897 l 213 957 l 511 957 l 293 -278 l -4 -278 z "},"^":{"ha":719,"x_min":240,"x_max":649,"o":"m 504 824 l 301 482 l 240 482 l 490 903 l 549 903 l 649 482 l 588 482 l 504 824 z "},"_":{"ha":675,"x_min":-31,"x_max":643,"o":"m 643 -153 l 632 -214 l -31 -214 l -21 -153 l 643 -153 z "},"`":{"ha":544,"x_min":297,"x_max":489,"o":"m 418 969 l 485 796 q 489 775 489 783 q 488 763 489 767 q 479 752 486 757 q 465 747 472 747 q 429 775 453 747 l 297 926 l 303 940 q 338 960 314 947 q 399 974 361 974 q 418 969 413 974 z "},"a":{"ha":675,"x_min":108,"x_max":683,"o":"m 569 601 q 616 597 590 596 q 667 599 642 599 l 571 167 q 562 123 567 147 q 557 89 557 99 q 564 73 557 76 q 574 69 571 69 q 604 87 585 69 q 651 143 624 104 q 672 136 665 143 q 683 121 678 129 q 614 24 657 61 q 506 -14 571 -14 q 460 8 471 -14 q 449 49 449 29 q 452 81 449 61 q 463 125 456 101 l 481 183 l 478 186 q 357 40 415 93 q 243 -14 299 -14 q 156 17 185 -14 q 118 91 128 47 q 108 174 108 135 q 142 333 108 256 q 228 474 175 411 q 342 573 281 536 q 458 610 403 610 q 521 607 500 610 q 569 601 542 604 m 500 304 q 522 378 513 338 q 538 456 532 418 q 546 517 543 493 q 549 540 549 540 q 463 567 507 567 q 372 531 415 567 q 293 437 328 494 q 239 315 258 379 q 219 196 219 251 q 233 100 219 138 q 281 63 246 63 q 342 97 303 63 q 424 187 381 132 q 500 304 467 242 z "},"b":{"ha":664,"x_min":128,"x_max":683,"o":"m 396 810 l 319 467 l 322 465 q 378 528 347 494 q 450 585 410 561 q 538 610 490 610 q 632 588 601 610 q 673 529 663 567 q 683 444 683 492 q 662 334 683 392 q 604 221 640 276 q 522 118 568 165 q 429 38 476 71 q 354 -1 393 13 q 283 -14 315 -14 q 159 35 190 -14 q 142 147 128 83 l 285 782 q 292 823 290 806 q 294 851 294 840 q 287 883 294 875 q 265 890 279 890 l 222 893 q 215 900 215 893 l 219 933 q 287 942 249 936 q 360 955 325 947 q 414 969 396 963 q 431 956 431 969 q 421 917 431 956 q 396 810 411 878 m 569 418 q 549 517 569 489 q 496 544 528 544 q 431 520 463 544 q 367 459 399 496 q 301 383 335 422 l 254 183 q 245 74 238 113 q 290 35 253 35 q 378 66 331 35 q 470 151 426 97 q 542 274 514 204 q 569 418 569 343 z "},"c":{"ha":540,"x_min":115,"x_max":588,"o":"m 290 -14 q 213 4 249 -14 q 157 53 178 22 q 124 130 132 88 q 115 207 115 172 q 147 378 115 300 q 229 513 179 457 q 331 584 272 558 q 432 610 390 610 q 540 588 507 610 q 580 535 572 565 q 588 476 588 504 q 565 432 588 450 q 515 414 543 414 q 488 428 497 414 q 478 458 478 442 q 485 488 478 476 q 492 514 492 499 q 470 558 492 549 q 433 567 449 567 q 333 528 381 567 q 258 415 286 489 q 229 238 229 342 q 239 147 229 175 q 264 100 249 119 q 297 74 279 81 q 333 68 315 68 q 433 99 389 68 q 517 175 476 129 q 547 151 540 175 q 431 33 497 81 q 290 -14 365 -14 z "},"d":{"ha":679,"x_min":113,"x_max":760,"o":"m 479 161 l 475 164 q 360 29 413 72 q 254 -14 308 -14 q 181 6 208 -14 q 138 58 153 26 q 117 123 122 89 q 113 186 113 157 q 144 344 113 268 q 226 480 175 419 q 336 575 276 540 q 451 610 396 610 q 520 588 492 610 q 561 533 549 565 l 563 533 l 614 782 q 624 851 624 829 q 616 883 624 875 q 594 890 608 890 l 551 893 q 544 900 544 893 l 549 933 q 616 942 578 936 q 690 955 654 947 q 743 969 725 963 q 760 956 760 969 q 750 917 760 956 q 725 810 740 878 l 578 167 q 569 123 574 147 q 564 89 564 99 q 571 73 564 76 q 581 69 578 69 q 611 87 592 69 q 658 143 631 104 q 678 136 672 143 q 690 121 685 129 q 621 24 664 61 q 513 -14 578 -14 q 467 8 478 -14 q 456 49 456 29 q 460 81 456 61 q 469 125 464 100 l 479 161 m 479 269 q 526 370 510 325 q 543 439 543 415 q 532 492 543 464 q 501 540 521 519 q 456 560 482 560 q 366 526 408 560 q 292 440 324 493 q 242 325 260 386 q 224 208 224 264 q 228 133 224 169 q 244 74 232 97 q 278 50 256 50 q 373 113 318 50 q 479 269 428 176 z "},"e":{"ha":557,"x_min":115,"x_max":589,"o":"m 232 276 q 231 251 231 268 q 231 229 231 235 q 260 102 231 135 q 336 69 289 69 q 394 76 369 69 q 447 102 419 82 q 514 163 475 122 q 546 140 536 163 q 420 24 485 61 q 286 -14 356 -14 q 158 47 200 -14 q 115 197 115 108 q 135 335 115 264 q 195 469 154 407 q 301 571 236 532 q 457 610 367 610 q 536 591 507 610 q 577 549 565 572 q 589 507 589 525 q 586 470 589 492 q 567 424 583 449 q 514 373 551 399 q 408 322 476 347 q 232 276 340 297 m 493 514 q 478 556 493 544 q 425 567 463 567 q 363 548 396 567 q 297 478 329 529 q 242 329 265 428 q 324 347 281 335 q 406 380 368 358 q 469 434 444 401 q 493 514 493 467 z "},"f":{"ha":436,"x_min":-108,"x_max":726,"o":"m 261 542 l 147 542 q 139 544 139 542 q 141 556 139 547 q 144 568 143 565 q 156 583 147 576 q 183 592 164 590 l 275 596 q 322 762 294 686 q 385 881 349 838 q 449 934 414 915 q 515 961 483 953 q 567 969 547 969 q 683 939 640 969 q 726 867 726 908 q 716 838 726 856 q 674 819 706 819 q 626 842 639 819 q 610 888 614 865 q 592 916 604 908 q 556 924 579 924 q 502 901 538 924 q 440 813 467 878 q 417 750 428 785 q 399 675 407 715 l 383 596 l 536 596 q 546 589 546 596 q 542 573 546 588 q 539 558 539 558 q 525 546 538 550 q 503 542 513 542 l 374 542 l 369 518 q 338 347 354 431 q 304 181 321 263 q 256 -35 276 49 q 218 -167 236 -118 q 181 -243 200 -217 q 106 -309 149 -287 q 19 -331 63 -331 q -80 -310 -51 -331 q -108 -267 -108 -290 q -97 -233 -108 -249 q -57 -217 -86 -217 q -16 -232 -35 -217 q 13 -261 3 -247 q 25 -278 18 -271 q 46 -285 32 -285 q 79 -273 61 -285 q 110 -243 97 -261 q 143 -160 128 -212 q 169 -44 158 -108 q 189 82 181 19 q 204 196 197 144 q 219 297 211 249 q 237 404 226 346 q 261 542 247 463 z "},"g":{"ha":663,"x_min":10,"x_max":717,"o":"m 576 404 q 516 242 576 301 q 365 183 456 183 q 312 190 336 183 q 271 207 288 197 q 250 166 261 189 q 239 122 239 143 q 269 73 239 89 q 347 47 299 57 q 451 19 396 36 q 551 -34 508 3 q 593 -139 593 -71 q 506 -286 593 -242 q 276 -331 419 -331 q 188 -324 235 -331 q 101 -302 142 -318 q 35 -258 60 -286 q 10 -189 10 -231 q 41 -109 10 -147 q 117 -40 72 -71 q 197 11 161 -8 q 166 47 171 26 q 161 78 161 68 q 185 158 161 114 q 236 229 210 203 q 190 305 208 263 q 172 393 172 347 q 194 498 172 449 q 263 578 215 547 q 389 610 311 610 q 469 594 435 610 q 525 551 503 579 q 599 597 561 585 q 663 610 636 610 q 701 596 686 610 q 717 563 717 582 q 705 530 717 543 q 674 517 693 517 q 649 524 657 517 q 635 540 640 532 q 628 550 632 546 q 614 554 624 554 q 585 544 607 554 q 549 519 564 535 q 570 465 564 499 q 576 404 576 432 m 474 404 q 451 522 474 475 q 383 568 428 568 q 315 545 338 568 q 283 482 292 522 q 275 392 275 442 q 282 319 275 358 q 310 253 289 281 q 372 225 331 225 q 436 252 414 225 q 466 320 458 279 q 474 404 474 361 m 224 -4 q 178 -40 207 -17 q 126 -93 149 -62 q 103 -157 103 -124 q 160 -249 103 -214 q 333 -285 217 -285 q 464 -250 425 -285 q 503 -176 503 -215 q 476 -114 503 -140 q 392 -61 450 -87 q 334 -38 369 -50 q 267 -17 299 -26 q 224 -4 236 -7 z "},"h":{"ha":721,"x_min":124,"x_max":733,"o":"m 244 100 q 233 47 238 74 q 218 3 229 21 q 181 -14 207 -14 q 135 -3 147 -14 q 124 24 124 7 q 130 57 124 35 q 142 100 136 79 l 293 782 q 303 851 303 825 q 295 883 303 875 q 274 890 288 890 l 231 893 q 224 900 224 893 l 228 933 q 295 942 257 936 q 369 955 333 947 q 422 969 404 963 q 439 956 439 969 q 429 917 439 956 q 404 810 419 878 l 319 433 q 431 545 383 507 q 517 597 479 583 q 592 610 556 610 q 658 585 632 610 q 683 499 683 561 q 678 455 683 481 q 665 393 674 429 l 613 172 q 602 124 607 146 q 597 93 597 103 q 611 69 597 69 q 649 89 622 69 q 701 139 675 108 q 724 132 717 139 q 733 115 731 125 q 638 20 686 54 q 540 -14 590 -14 q 497 -1 510 -14 q 483 32 483 13 q 491 89 483 51 q 507 160 499 126 l 560 382 q 571 440 568 418 q 574 475 574 461 q 560 517 574 507 q 525 526 547 526 q 425 472 488 526 q 297 331 363 417 l 244 100 z "},"i":{"ha":383,"x_min":149,"x_max":413,"o":"m 340 444 l 278 172 q 267 124 272 146 q 263 93 263 103 q 276 69 263 69 q 314 89 288 69 q 367 139 340 108 q 389 132 382 139 q 399 115 396 125 q 303 20 351 54 q 206 -14 256 -14 q 162 -1 175 -14 q 149 32 149 13 q 157 89 149 51 q 172 160 165 126 l 238 446 q 247 491 244 475 q 250 517 250 507 q 244 535 250 528 q 225 544 238 543 l 169 549 q 168 588 154 571 q 262 600 217 594 q 340 606 307 606 q 369 576 369 606 q 360 522 369 558 q 340 444 350 486 m 279 792 q 299 839 279 819 q 346 858 319 858 q 393 839 374 858 q 413 792 413 819 q 393 745 413 765 q 346 725 374 725 q 299 745 319 725 q 279 792 279 765 z "},"j":{"ha":360,"x_min":-108,"x_max":419,"o":"m 349 444 l 324 325 q 268 90 297 199 q 203 -101 239 -19 q 119 -227 167 -182 q 6 -272 71 -272 q -74 -256 -40 -272 q -108 -206 -108 -239 q -95 -173 -108 -183 q -68 -162 -82 -162 q -19 -177 -33 -162 q 3 -207 -6 -192 q 31 -222 11 -222 q 61 -211 43 -222 q 99 -169 79 -200 q 133 -78 118 -137 q 166 70 153 -3 q 201 244 179 143 l 246 446 q 255 491 253 475 q 257 517 257 507 q 251 535 257 528 q 232 544 244 543 l 176 549 q 175 588 161 571 q 269 600 224 594 q 347 606 314 606 q 376 576 376 606 q 367 524 376 563 q 349 444 358 486 m 286 792 q 306 839 286 819 q 353 858 326 858 q 400 839 381 858 q 419 792 419 819 q 400 745 419 765 q 353 725 381 725 q 306 745 326 725 q 286 792 286 765 z "},"k":{"ha":675,"x_min":106,"x_max":722,"o":"m 124 100 l 276 782 q 284 823 282 806 q 286 851 286 840 q 278 883 286 875 q 257 890 271 890 l 214 893 q 207 900 207 893 l 211 933 q 278 942 240 936 q 352 955 317 947 q 406 969 388 963 q 422 956 422 969 q 413 917 422 956 q 388 810 403 878 l 288 378 q 331 392 310 378 q 369 421 351 406 l 425 468 q 560 572 500 535 q 654 610 621 610 q 702 600 682 610 q 722 561 722 590 q 698 510 722 529 q 658 492 674 492 q 625 497 635 492 q 607 506 615 501 q 581 511 599 511 q 529 491 560 511 q 447 425 499 471 l 375 361 l 375 356 q 422 330 410 346 q 451 281 435 314 q 483 210 467 251 q 528 111 499 168 q 549 74 539 90 q 578 58 558 58 q 609 76 589 58 q 650 125 629 94 q 667 120 661 125 q 681 107 674 115 q 612 17 647 49 q 540 -14 576 -14 q 467 20 497 -14 q 403 129 438 54 q 368 225 382 176 q 335 307 354 274 q 322 323 329 317 q 307 329 315 329 q 292 328 300 329 q 276 325 285 328 l 226 100 q 216 49 221 75 q 200 4 211 22 q 163 -14 189 -14 q 117 -3 129 -14 q 106 24 106 7 q 112 57 106 35 q 124 100 118 79 z "},"l":{"ha":369,"x_min":129,"x_max":432,"o":"m 397 810 l 256 176 q 242 116 246 135 q 239 89 239 97 q 256 69 239 69 q 298 91 268 69 q 358 150 328 113 q 378 144 372 150 q 389 126 385 138 q 288 17 342 47 q 188 -14 235 -14 q 139 7 149 -14 q 129 47 129 28 q 135 99 129 67 q 149 165 142 132 l 286 782 q 296 851 296 825 q 288 883 296 875 q 267 890 281 890 l 224 893 q 217 900 217 893 l 221 933 q 288 942 250 936 q 362 955 326 947 q 415 969 397 963 q 432 956 432 969 q 422 917 432 956 q 397 810 413 878 z "},"m":{"ha":1088,"x_min":156,"x_max":1092,"o":"m 253 446 q 263 491 260 475 q 265 517 265 507 q 259 535 265 528 q 240 544 253 543 l 185 549 q 183 588 169 571 q 277 600 232 594 q 356 606 322 606 q 385 576 385 606 q 374 522 385 558 q 353 444 364 485 l 350 432 l 353 431 q 482 560 414 510 q 625 610 550 610 q 680 586 654 610 q 706 489 706 563 q 704 458 706 475 q 700 424 703 440 q 822 555 761 500 q 956 610 882 610 q 1014 582 988 610 q 1040 489 1040 554 q 1037 440 1040 469 q 1026 388 1033 411 l 961 140 q 956 109 958 129 q 954 85 954 89 q 956 74 954 79 q 964 69 958 69 q 1010 95 983 69 q 1061 160 1036 121 q 1092 140 1088 160 q 1002 21 1057 56 q 886 -14 947 -14 q 857 -1 872 -14 q 842 32 842 11 q 849 78 842 42 q 867 158 856 115 l 921 376 q 931 436 929 408 q 933 475 933 464 q 923 517 933 507 q 893 526 913 526 q 843 509 871 526 q 776 447 815 492 q 676 318 736 401 l 624 100 q 613 47 617 74 q 597 3 608 21 q 560 -14 586 -14 q 515 -3 526 -14 q 503 24 503 7 q 509 57 503 35 q 521 100 515 79 l 588 382 q 597 438 594 414 q 599 475 599 463 q 591 517 599 507 q 563 526 583 526 q 472 484 529 526 q 332 324 414 442 l 276 100 q 265 47 269 74 q 250 3 261 21 q 213 -14 239 -14 q 167 -3 179 -14 q 156 24 156 7 q 162 57 156 35 q 174 100 168 79 l 253 446 z "},"n":{"ha":719,"x_min":124,"x_max":722,"o":"m 601 172 q 591 124 596 146 q 586 93 586 103 q 600 69 586 69 q 638 89 611 69 q 690 139 664 108 q 713 132 706 139 q 722 115 719 125 q 625 20 675 54 q 525 -14 575 -14 q 481 -1 494 -14 q 468 32 468 13 q 476 89 468 51 q 492 160 483 126 l 544 382 q 557 438 551 411 q 563 476 563 464 q 549 517 563 508 q 514 526 536 526 q 421 472 476 526 q 300 331 365 417 l 247 100 q 236 47 240 74 q 221 3 232 21 q 183 -14 210 -14 q 137 -3 150 -14 q 124 24 124 7 q 130 57 124 35 q 142 100 136 79 l 219 446 q 232 517 232 504 q 226 535 232 528 q 207 544 219 543 l 151 549 q 150 588 136 571 q 245 600 199 594 q 325 606 292 606 q 354 576 354 606 q 346 522 354 561 q 324 444 338 483 l 319 432 l 321 431 q 429 544 385 506 q 509 597 474 583 q 581 610 544 610 q 647 585 621 610 q 672 499 672 561 q 667 455 672 481 q 654 393 663 429 l 601 172 z "},"o":{"ha":621,"x_min":108,"x_max":646,"o":"m 108 225 q 129 355 108 288 q 192 480 150 422 q 299 574 235 538 q 450 610 363 610 q 553 589 514 610 q 612 535 592 568 q 639 462 632 501 q 646 385 646 422 q 617 229 646 303 q 540 99 589 156 q 431 13 492 43 q 368 -8 400 -3 q 303 -14 336 -14 q 197 13 236 -14 q 140 78 158 39 q 115 157 121 117 q 108 225 108 197 m 224 236 q 240 120 224 164 q 281 57 257 76 q 324 38 304 38 q 402 58 363 38 q 471 122 442 78 q 509 210 496 161 q 526 303 522 258 q 531 375 531 347 q 526 442 531 407 q 510 503 522 476 q 476 548 494 532 q 425 564 457 564 q 331 531 369 564 q 269 447 293 499 q 235 340 246 396 q 224 236 224 283 z "},"p":{"ha":679,"x_min":-26,"x_max":707,"o":"m 369 561 q 437 594 397 578 q 529 610 476 610 q 638 582 599 610 q 692 507 676 554 q 707 401 707 460 q 594 115 707 253 q 488 23 549 60 q 354 -14 428 -14 q 296 1 324 -14 q 253 32 268 15 l 192 -224 q 203 -268 183 -258 q 238 -281 222 -278 l 264 -285 q 272 -296 272 -286 l 272 -324 l 269 -326 q 244 -326 269 -326 q 183 -324 218 -325 q 121 -324 149 -324 q 62 -325 96 -324 q 2 -328 28 -326 q -24 -331 -24 -331 l -26 -328 l -26 -301 q -22 -293 -26 -294 q -12 -290 -18 -292 l 14 -286 q 65 -267 47 -281 q 88 -224 82 -253 l 231 414 q 178 369 201 390 q 131 317 154 347 q 88 346 96 317 q 156 415 117 382 q 247 486 196 449 l 265 568 q 276 621 271 594 q 292 665 281 647 q 329 682 303 682 q 375 672 363 682 q 388 644 388 663 q 381 606 388 632 q 369 561 374 579 m 593 379 q 585 452 593 414 q 555 518 578 490 q 485 546 532 546 q 415 531 446 546 q 357 499 383 515 l 265 93 q 315 49 288 63 q 368 35 342 35 q 447 63 408 35 q 513 135 485 92 q 573 263 553 196 q 593 379 593 329 z "},"q":{"ha":682,"x_min":113,"x_max":704,"o":"m 410 -224 l 501 138 l 497 139 q 380 18 433 50 q 275 -14 326 -14 q 174 19 210 -14 q 126 102 139 51 q 113 204 113 153 q 147 369 113 294 q 237 497 182 443 q 354 580 292 550 q 472 610 417 610 q 549 590 515 610 q 606 536 582 569 l 646 593 q 669 615 657 610 q 689 619 682 619 q 698 617 692 619 q 704 606 704 614 q 701 585 704 597 l 515 -224 q 526 -268 507 -258 q 561 -281 546 -278 l 588 -285 q 596 -296 596 -286 l 596 -324 l 593 -326 q 567 -326 593 -326 q 507 -324 542 -325 q 444 -324 472 -324 q 385 -325 419 -324 q 325 -328 351 -326 q 299 -331 299 -331 l 296 -328 l 296 -301 q 300 -293 296 -294 q 310 -290 304 -292 l 336 -286 q 386 -267 369 -281 q 410 -224 403 -253 m 563 458 q 539 531 563 501 q 478 560 515 560 q 380 531 425 560 q 301 452 335 501 q 248 342 267 403 q 229 219 229 282 q 237 140 229 181 q 260 72 244 100 q 304 44 276 44 q 353 63 324 44 q 415 113 383 82 q 472 181 446 144 q 510 250 497 217 q 535 333 524 289 q 555 413 547 378 q 563 458 563 447 z "},"r":{"ha":496,"x_min":124,"x_max":596,"o":"m 307 396 l 313 394 q 415 551 358 492 q 524 610 472 610 q 579 588 563 610 q 596 544 596 567 q 578 492 596 517 q 533 467 561 467 q 506 477 519 467 q 486 496 493 488 q 474 508 481 503 q 457 513 468 513 q 413 475 442 513 q 349 381 383 438 q 281 263 314 324 l 240 100 q 228 47 233 74 q 212 3 222 21 q 176 -14 201 -14 q 135 -3 146 -14 q 124 24 124 7 q 130 59 124 40 q 142 100 136 78 l 218 446 q 226 491 225 475 q 228 517 228 507 q 222 535 228 528 q 203 544 215 543 l 147 549 q 146 588 132 571 q 237 600 194 594 q 313 606 279 606 q 343 571 343 606 q 335 519 343 553 q 318 444 328 485 l 307 396 z "},"s":{"ha":490,"x_min":82,"x_max":524,"o":"m 242 -14 q 126 23 169 -10 q 82 94 82 56 q 92 124 82 106 q 133 143 103 143 q 181 118 165 143 q 199 69 196 93 q 217 40 201 47 q 258 32 232 32 q 341 55 306 32 q 376 135 376 78 q 362 190 376 157 q 292 260 347 222 q 197 350 224 306 q 171 436 171 394 q 194 519 171 479 q 262 584 218 558 q 365 610 306 610 q 444 592 408 610 q 502 549 481 575 q 524 499 524 524 q 513 467 524 482 q 474 451 503 451 q 430 475 447 451 q 410 524 413 499 q 390 555 407 546 q 347 564 374 564 q 281 533 303 564 q 260 465 260 501 q 272 419 260 439 q 315 378 285 399 q 446 263 411 314 q 481 164 481 213 q 423 37 481 88 q 263 -14 365 -14 l 242 -14 z "},"t":{"ha":426,"x_min":140,"x_max":510,"o":"m 258 596 l 276 665 q 288 717 283 692 q 302 761 292 743 q 338 779 313 779 q 382 769 371 779 q 393 742 393 760 q 386 703 393 729 q 375 658 379 678 l 361 596 l 499 596 q 503 567 510 588 q 485 542 497 547 l 349 542 l 267 176 q 251 89 251 108 q 259 73 251 76 q 269 69 267 69 q 310 85 286 69 q 381 156 333 101 q 411 129 406 156 q 352 54 388 86 q 278 4 317 22 q 210 -14 240 -14 q 160 -1 178 -14 q 142 50 142 13 q 148 100 142 69 q 161 164 154 131 l 246 542 l 149 542 q 140 544 140 542 q 142 556 140 547 q 146 568 144 565 q 157 583 149 576 q 185 592 165 590 l 258 596 z "},"u":{"ha":724,"x_min":118,"x_max":746,"o":"m 703 489 l 625 172 q 615 124 619 146 q 610 93 610 103 q 624 69 610 69 q 661 89 635 69 q 714 139 688 108 q 736 132 729 139 q 746 115 743 125 q 651 20 699 54 q 553 -14 603 -14 q 512 -1 522 -14 q 501 32 501 13 q 508 89 501 51 q 525 160 515 126 l 540 214 l 536 217 q 402 47 463 108 q 260 -14 342 -14 q 195 12 224 -14 q 167 97 167 38 q 181 190 167 139 l 242 424 q 254 472 249 451 q 260 503 260 493 q 246 526 260 526 q 207 508 236 526 q 150 457 178 489 q 128 464 136 457 q 118 481 121 471 q 222 576 167 542 q 328 610 278 610 q 369 597 360 610 q 378 564 378 583 q 367 507 378 544 q 349 436 357 469 l 289 210 q 279 160 282 182 q 276 121 276 138 q 288 81 276 93 q 318 69 300 69 q 426 141 371 69 q 558 343 482 213 l 599 496 q 610 549 606 522 q 625 592 614 575 q 663 610 636 610 q 708 600 696 610 q 721 572 721 590 q 714 533 721 560 q 703 489 707 507 z "},"v":{"ha":656,"x_min":114,"x_max":721,"o":"m 424 106 l 429 103 q 456 131 439 110 q 490 173 474 151 q 517 207 507 194 q 567 286 543 242 q 606 374 590 331 q 621 447 621 417 q 614 485 621 464 q 592 531 607 506 q 585 558 585 542 q 649 610 585 610 q 705 592 689 610 q 721 544 721 574 q 710 469 721 507 q 683 396 699 432 q 614 268 654 326 q 551 178 574 210 q 501 113 536 156 q 435 35 467 69 q 401 -2 415 13 q 375 -17 386 -17 q 331 72 346 -17 l 272 411 q 257 476 264 457 q 240 496 250 496 q 197 476 221 496 q 143 429 172 457 q 114 454 119 432 q 169 526 138 490 q 233 586 201 563 q 289 610 265 610 q 345 568 328 610 q 376 429 363 526 l 424 106 z "},"w":{"ha":956,"x_min":114,"x_max":1021,"o":"m 368 -17 q 349 1 358 -17 q 331 72 340 19 l 272 411 q 257 476 264 457 q 240 496 250 496 q 197 476 221 496 q 143 429 172 457 q 114 454 119 432 q 169 526 138 490 q 233 586 201 563 q 289 610 265 610 q 344 568 328 610 q 376 429 361 526 l 424 133 l 428 132 q 475 214 443 157 q 543 342 507 271 q 608 481 579 414 q 676 497 639 496 q 692 447 683 479 q 711 374 701 414 q 738 252 725 317 q 760 133 750 188 l 769 131 q 799 165 783 146 q 832 207 815 185 q 878 286 858 242 q 910 373 899 331 q 921 447 921 415 q 914 485 921 464 q 892 531 907 506 q 885 558 885 542 q 949 610 885 610 q 1005 592 989 610 q 1021 544 1021 574 q 1010 469 1021 507 q 983 396 999 432 q 921 267 954 326 q 865 176 888 208 q 821 113 850 154 q 761 35 792 72 q 697 -17 719 -17 q 680 -1 688 -17 q 665 64 672 14 q 640 213 656 133 q 611 358 625 292 l 603 357 q 547 246 578 304 q 483 133 515 188 q 426 38 451 78 q 393 -3 410 11 q 368 -17 376 -17 z "},"x":{"ha":660,"x_min":49,"x_max":744,"o":"m 299 429 q 285 463 292 447 q 275 488 279 479 q 236 504 265 504 q 185 492 214 504 q 144 474 157 479 q 132 493 136 482 q 126 517 128 504 q 188 556 151 535 q 259 594 225 578 q 310 610 293 610 q 351 587 336 610 q 383 510 367 564 l 422 388 l 492 488 q 583 585 543 561 q 675 610 624 610 q 722 595 699 610 q 744 554 744 581 q 730 513 744 531 q 700 494 715 494 q 676 499 690 494 q 654 508 663 503 q 633 519 644 515 q 613 522 621 522 q 585 515 606 522 q 547 485 564 508 l 442 329 l 517 106 q 550 54 533 54 q 577 65 561 54 q 619 111 593 76 q 653 85 643 107 q 578 8 621 31 q 500 -14 536 -14 q 450 4 465 -14 q 421 64 435 22 l 368 233 l 271 94 q 195 8 225 29 q 129 -14 165 -14 q 77 -1 106 -14 q 49 39 49 13 q 64 77 49 63 q 101 92 79 92 q 142 83 124 92 q 179 75 158 75 q 197 81 186 75 q 218 101 207 86 l 349 293 l 299 429 z "},"y":{"ha":699,"x_min":68,"x_max":763,"o":"m 490 0 l 426 -97 q 284 -262 360 -200 q 153 -325 208 -325 q 121 -320 142 -325 q 84 -302 100 -315 q 68 -267 68 -289 q 89 -215 68 -235 q 132 -196 110 -196 q 157 -202 140 -196 q 181 -215 174 -208 q 203 -231 188 -221 q 229 -240 219 -240 q 283 -198 244 -240 q 364 -86 321 -156 q 367 -33 369 -75 q 359 69 365 8 q 343 197 353 131 q 321 325 333 264 q 296 429 308 386 q 285 464 290 449 q 275 488 279 479 q 236 504 265 504 q 185 492 214 504 q 144 474 157 479 q 132 493 136 482 q 126 517 128 504 q 188 556 151 535 q 259 594 225 578 q 310 610 293 610 q 352 586 336 610 q 382 507 368 563 q 415 346 403 421 q 432 197 426 271 q 442 43 438 124 l 451 39 q 482 86 464 58 q 517 142 500 114 q 547 188 535 169 q 558 207 558 207 q 606 288 582 244 q 647 374 631 332 q 663 447 663 417 q 656 485 663 464 q 633 531 649 506 q 626 558 626 542 q 690 610 626 610 q 747 592 731 610 q 763 544 763 574 q 751 469 763 507 q 725 396 740 432 q 689 324 714 368 q 633 230 664 281 q 573 132 603 179 q 520 49 543 85 q 490 0 497 14 z "},"z":{"ha":606,"x_min":75,"x_max":649,"o":"m 608 617 l 649 596 q 619 557 639 579 q 572 503 599 535 q 474 390 533 454 q 354 261 415 326 q 244 142 293 196 q 318 134 292 142 q 361 117 344 126 q 393 101 378 108 q 435 93 408 93 q 496 107 464 93 q 567 185 528 121 q 601 171 589 185 q 542 56 569 96 q 488 1 514 17 q 431 -14 461 -14 q 369 -4 401 -14 q 311 21 338 6 q 251 49 278 42 q 206 57 224 57 q 173 40 196 57 q 126 -17 150 22 q 94 -8 113 -15 q 75 10 82 -6 q 93 41 78 19 q 128 87 108 63 q 161 126 147 111 l 496 494 q 451 492 478 492 q 382 498 421 492 q 296 504 343 504 q 225 490 249 504 q 179 426 201 475 q 158 428 168 426 q 142 438 149 431 q 176 519 154 479 q 226 584 199 558 q 276 610 253 610 q 340 605 306 610 q 424 592 374 600 q 494 577 472 582 q 533 572 515 572 q 567 581 550 572 q 608 617 585 590 z "},"{":{"ha":379,"x_min":114,"x_max":514,"o":"m 388 788 l 343 536 q 316 436 332 474 q 276 378 300 399 q 215 343 253 358 q 268 298 253 325 q 283 229 283 271 q 281 185 283 210 q 272 132 278 161 l 232 -96 q 227 -135 229 -117 q 225 -169 225 -154 q 232 -225 225 -201 q 263 -269 247 -260 q 289 -282 279 -279 l 286 -301 q 192 -287 231 -300 q 140 -251 154 -275 q 124 -171 124 -222 q 126 -126 124 -150 q 133 -75 129 -103 l 176 168 q 181 202 179 186 q 183 233 183 218 q 169 301 183 274 q 114 339 154 329 l 115 346 q 202 413 176 363 q 238 514 228 463 l 285 776 q 351 938 304 890 q 514 988 399 985 l 510 968 q 432 911 464 956 q 407 862 418 893 q 388 788 396 831 z "},"|":{"ha":285,"x_min":56,"x_max":333,"o":"m 117 -324 l 56 -324 l 272 906 l 333 906 l 117 -324 z "},"}":{"ha":379,"x_min":-12,"x_max":386,"o":"m 114 -101 l 157 150 q 184 251 168 214 q 225 309 200 288 q 286 344 250 331 q 233 388 247 361 q 218 457 218 415 q 221 502 218 478 q 229 554 224 526 l 268 782 q 276 857 276 826 q 268 911 276 890 q 238 956 254 947 q 211 968 222 965 l 215 988 q 309 974 271 986 q 361 938 347 961 q 376 857 376 907 q 374 813 376 836 q 367 761 372 789 l 324 519 q 319 485 321 501 q 318 453 318 468 q 333 386 318 414 q 386 347 347 358 l 386 340 q 299 274 325 324 q 263 174 272 225 l 217 -90 q 150 -251 196 -204 q -12 -301 100 -299 l -8 -282 q 69 -225 38 -269 q 114 -101 97 -186 z "},"~":{"ha":624,"x_min":88,"x_max":661,"o":"m 88 290 q 138 376 104 336 q 213 442 171 417 q 296 468 254 468 q 343 454 319 468 q 390 423 367 440 q 438 392 414 406 q 485 378 461 378 q 560 399 514 378 q 639 471 607 419 l 661 463 q 588 353 626 389 q 515 306 549 317 q 465 296 482 296 q 414 310 438 296 q 369 341 390 324 q 324 372 347 358 q 274 386 301 386 q 187 359 238 386 q 104 286 136 332 l 88 290 z "},"":{"ha":347,"x_min":0,"x_max":0,"o":""},"":{"ha":315,"x_min":42,"x_max":333,"o":"m 332 547 q 301 494 326 517 q 246 472 276 472 q 201 490 219 472 q 183 533 183 507 q 185 547 183 542 q 215 599 190 578 q 271 621 240 621 q 316 603 299 621 q 333 558 333 586 q 332 547 333 550 m 104 -321 q 61 -303 81 -321 q 42 -247 42 -285 q 42 -233 42 -240 q 44 -219 43 -226 q 66 -136 53 -175 q 95 -54 79 -97 q 128 49 111 -11 q 176 224 161 161 q 194 300 190 286 q 219 328 201 328 q 233 324 231 328 q 235 314 235 319 l 235 311 q 230 255 235 297 q 219 158 225 213 q 210 49 214 103 q 208 -2 208 21 q 207 -44 207 -25 l 207 -107 q 206 -159 207 -133 q 199 -219 204 -185 q 158 -298 189 -275 q 104 -321 128 -321 z "},"":{"ha":608,"x_min":129,"x_max":601,"o":"m 446 811 l 493 811 l 474 707 q 562 681 535 703 q 595 629 589 658 q 601 575 601 600 q 579 531 601 549 q 529 513 557 513 q 501 526 511 513 q 492 557 492 540 q 499 586 492 575 q 506 613 506 597 q 492 650 506 639 q 464 664 479 661 l 368 168 q 455 203 415 174 q 531 274 494 232 q 561 250 554 274 q 467 148 519 192 q 353 90 414 104 l 332 -17 l 285 -17 l 304 85 l 304 85 q 227 103 263 85 q 171 151 192 121 q 138 228 146 186 q 129 306 129 271 q 161 477 129 399 q 243 611 193 556 q 333 676 282 651 q 425 707 385 701 l 446 811 m 321 169 l 417 663 q 294 561 346 646 q 243 336 243 476 q 253 246 243 274 q 278 199 263 218 q 299 179 288 186 q 321 169 310 172 z "},"":{"ha":608,"x_min":24,"x_max":717,"o":"m 228 118 q 319 106 289 118 q 368 79 349 94 q 399 60 383 68 q 442 53 415 53 q 514 68 471 53 q 589 118 557 83 l 611 100 q 531 16 583 49 q 406 -17 479 -17 q 338 -3 367 -17 q 282 28 308 11 q 237 53 260 43 q 186 64 214 64 q 138 51 151 64 q 121 28 124 39 q 94 -11 115 1 q 56 -24 74 -24 q 33 -13 42 -24 q 26 10 24 -3 q 53 52 31 33 q 106 85 76 71 q 133 107 118 93 q 217 230 190 157 q 257 369 243 303 l 264 406 l 172 406 l 183 461 l 275 461 l 276 472 q 329 615 293 556 q 429 726 365 674 q 618 799 514 799 q 658 793 633 799 q 699 774 682 788 q 711 738 717 761 q 688 699 707 713 q 646 685 669 685 q 623 692 632 685 q 606 710 614 700 q 581 731 594 721 q 546 740 568 740 q 483 714 515 740 q 426 642 451 688 q 390 539 401 596 l 375 461 l 556 461 l 546 406 l 364 406 l 363 399 q 303 214 340 276 q 222 122 267 151 q 219 119 221 121 q 214 117 217 118 q 228 118 222 118 z "},"":{"ha":608,"x_min":72,"x_max":683,"o":"m 333 172 q 192 222 250 172 l 119 147 l 72 203 l 157 263 q 125 372 125 314 q 129 415 125 393 q 211 568 146 503 l 150 625 l 211 679 l 261 610 q 419 658 339 658 q 561 607 501 658 l 639 683 l 683 626 l 596 565 q 625 461 625 519 q 621 415 625 439 q 544 265 606 331 l 606 204 l 546 151 l 494 224 q 333 172 418 172 m 214 417 q 210 376 210 396 q 245 273 210 315 q 344 231 281 231 q 433 256 393 231 q 501 324 474 282 q 538 415 529 367 q 540 434 539 425 q 540 453 540 443 q 504 558 540 517 q 411 600 468 600 q 322 575 364 600 q 252 508 281 550 q 214 417 224 467 z "},"":{"ha":608,"x_min":101,"x_max":783,"o":"m 607 231 l 596 176 l 397 176 l 382 100 q 391 53 376 68 q 446 39 406 39 l 483 39 q 492 28 494 39 l 488 1 l 483 -1 q 465 -1 483 -1 q 417 0 446 0 q 360 1 389 0 q 310 1 331 1 q 261 1 292 1 q 201 0 231 0 q 150 -1 171 0 q 129 -1 129 -1 l 128 1 l 132 28 q 146 39 135 39 l 182 39 q 244 55 225 39 q 269 100 264 71 l 285 176 l 101 176 l 113 231 l 294 231 l 313 318 l 129 318 l 140 374 l 315 374 l 222 696 q 201 743 214 726 q 161 760 189 760 l 151 760 q 144 763 149 761 q 140 771 139 765 l 144 796 l 147 799 q 183 797 156 797 q 238 795 210 796 q 274 794 265 794 q 303 795 278 794 q 357 797 329 796 q 394 799 385 797 l 396 796 l 392 772 q 379 760 389 760 l 361 760 q 335 755 343 760 q 324 742 326 750 q 325 723 322 733 q 331 699 328 713 l 414 403 l 601 699 q 616 725 610 714 q 624 743 622 736 q 593 761 628 761 l 572 761 q 565 771 563 761 l 571 796 l 572 799 q 601 797 578 799 q 648 795 624 796 q 681 794 672 794 q 706 795 688 794 q 747 797 725 796 q 781 799 768 797 l 783 796 l 779 772 q 776 765 778 768 q 764 761 774 761 l 754 761 q 701 744 724 761 q 658 696 678 726 l 453 374 l 635 374 l 624 318 l 425 318 l 407 231 l 607 231 z "},"":{"ha":285,"x_min":63,"x_max":346,"o":"m 346 936 l 257 433 l 189 433 l 278 936 l 346 936 m 219 224 l 131 -279 l 63 -279 l 151 224 l 219 224 z "},"":{"ha":657,"x_min":114,"x_max":686,"o":"m 300 578 q 269 635 278 607 q 261 690 261 663 q 289 801 261 750 q 372 883 317 851 q 510 914 428 914 q 609 894 569 914 q 667 847 649 875 q 686 792 686 818 q 676 746 686 771 q 628 721 665 721 q 591 740 601 721 q 579 778 581 758 q 563 844 578 818 q 504 871 549 871 q 406 836 449 871 q 364 740 364 801 q 387 663 364 701 q 460 593 410 624 q 548 539 501 568 q 626 467 594 510 q 658 358 658 424 q 648 287 658 331 q 605 194 638 243 q 504 99 572 144 q 532 49 524 74 q 540 -1 540 25 q 506 -126 540 -72 q 413 -209 471 -179 q 282 -239 354 -239 q 185 -219 222 -239 q 131 -172 147 -200 q 114 -117 114 -143 q 126 -71 114 -96 q 176 -46 139 -46 q 212 -65 204 -46 q 221 -103 219 -83 q 236 -169 224 -142 q 293 -196 249 -196 q 393 -154 350 -196 q 436 -50 436 -112 q 414 19 436 -12 q 342 82 392 51 q 253 136 300 107 q 175 208 207 165 q 143 317 143 251 q 153 388 143 344 q 197 481 164 432 q 300 578 231 531 m 478 128 q 542 189 515 154 q 568 282 568 224 q 544 365 568 331 q 485 427 521 400 q 410 479 449 454 q 325 547 358 513 q 260 487 289 519 q 232 393 232 454 q 256 310 232 344 q 315 248 279 275 q 390 196 351 221 q 478 128 444 160 z "},"":{"ha":521,"x_min":215,"x_max":567,"o":"m 514 860 q 552 844 538 860 q 567 807 567 829 q 542 754 567 775 q 492 733 518 733 q 454 748 469 733 q 439 785 439 763 q 463 839 439 818 q 514 860 488 860 m 290 858 q 328 844 314 858 q 343 807 343 829 q 318 753 343 774 q 268 732 293 732 q 231 747 246 732 q 215 785 215 763 q 240 838 215 817 q 290 858 264 858 z "},"":{"ha":879,"x_min":47,"x_max":832,"o":"m 440 32 q 287 63 358 32 q 162 147 215 93 q 78 273 108 201 q 47 425 47 344 q 78 578 47 507 q 163 702 108 649 q 288 786 217 756 q 440 817 360 817 q 593 786 522 817 q 717 702 664 756 q 801 578 771 649 q 832 425 832 507 q 801 273 832 344 q 717 147 771 201 q 593 63 664 93 q 440 32 522 32 m 440 774 q 264 726 343 774 q 138 601 185 679 q 90 425 90 522 q 138 250 90 329 q 264 124 185 171 q 440 76 343 76 q 615 124 536 76 q 742 250 694 171 q 789 425 789 329 q 742 601 789 522 q 616 726 694 679 q 440 774 538 774 m 607 301 q 545 241 586 269 q 447 213 504 213 q 333 243 381 213 q 259 322 285 274 q 233 426 233 371 q 258 525 233 478 q 331 603 283 572 q 443 633 378 633 q 513 628 492 633 q 549 619 535 624 q 586 614 563 614 l 603 506 l 565 500 q 551 554 560 531 q 519 591 543 578 q 444 604 496 604 q 388 590 419 604 q 334 536 357 575 q 311 424 311 497 q 346 302 311 354 q 451 250 381 250 q 513 263 488 250 q 554 293 538 276 q 578 321 571 310 l 607 301 z "},"":{"ha":411,"x_min":164,"x_max":521,"o":"m 450 879 q 463 878 457 878 q 476 878 469 878 l 511 878 l 451 610 q 447 583 450 597 q 443 563 443 569 q 447 553 443 556 q 453 550 451 550 q 501 596 468 550 q 514 592 510 596 q 521 582 518 588 q 478 522 504 546 q 411 499 451 499 q 382 512 389 499 q 375 538 375 525 q 383 585 375 556 l 396 621 l 393 622 q 318 532 354 565 q 247 499 282 499 q 193 517 211 499 q 169 563 175 536 q 164 614 164 590 q 185 713 164 664 q 239 800 206 761 q 310 862 272 839 q 382 885 347 885 q 420 883 408 885 q 450 879 432 882 m 407 696 q 425 758 418 724 q 435 817 432 792 q 438 842 438 842 q 411 853 425 849 q 383 858 397 858 q 327 835 354 858 q 278 777 300 813 q 245 702 257 742 q 233 628 233 663 q 241 569 233 592 q 271 546 249 546 q 309 567 285 546 q 360 623 333 589 q 407 696 386 657 z "},"":{"ha":644,"x_min":125,"x_max":697,"o":"m 240 299 q 306 201 275 256 q 372 65 336 147 l 325 32 q 266 124 293 85 q 212 198 239 164 q 149 265 185 232 q 140 274 149 265 q 125 288 132 282 l 129 310 q 150 324 138 315 q 163 332 163 332 q 254 400 213 367 q 340 473 296 433 q 439 565 385 513 l 471 532 q 346 396 399 450 q 240 299 293 342 m 467 299 q 532 201 501 256 q 599 65 563 147 l 553 32 q 494 124 521 85 q 440 198 467 164 q 376 265 413 232 q 368 274 376 265 q 353 288 360 282 l 357 310 q 378 324 365 315 q 390 332 390 332 q 482 400 440 367 q 568 473 524 433 q 667 565 613 513 l 697 532 q 572 396 625 450 q 467 299 519 342 z "},"":{"ha":778,"x_min":121,"x_max":843,"o":"m 704 185 l 758 496 l 121 496 l 132 557 l 843 557 l 778 185 l 704 185 z "},"":{"ha":486,"x_min":107,"x_max":485,"o":"m 439 328 l 124 328 q 107 347 107 328 q 108 349 107 347 q 108 351 108 350 q 126 385 111 368 q 151 403 140 403 l 469 403 q 485 386 485 403 l 485 378 q 468 347 483 367 q 439 328 453 328 z "},"":{"ha":879,"x_min":47,"x_max":832,"o":"m 440 32 q 287 63 358 32 q 162 147 215 93 q 78 273 108 201 q 47 425 47 344 q 78 578 47 507 q 163 702 108 649 q 288 786 217 756 q 440 817 360 817 q 593 786 522 817 q 717 702 664 756 q 801 578 771 649 q 832 425 832 507 q 801 273 832 344 q 717 147 771 201 q 593 63 664 93 q 440 32 522 32 m 440 774 q 264 726 343 774 q 138 601 185 679 q 90 425 90 522 q 138 250 90 329 q 264 124 185 171 q 440 76 343 76 q 615 124 536 76 q 742 250 694 171 q 789 425 789 329 q 742 601 789 522 q 616 726 694 679 q 440 774 538 774 m 579 517 q 560 457 579 481 q 520 422 540 433 q 500 411 500 411 l 567 297 q 622 254 592 254 l 622 236 q 590 231 604 231 q 504 283 529 231 l 438 393 q 419 397 433 396 q 400 399 406 399 l 400 267 q 401 258 400 261 q 410 256 403 256 l 426 256 q 442 247 442 256 l 442 232 q 426 233 442 232 q 392 234 411 233 q 364 235 374 235 l 288 232 l 288 249 q 301 256 288 256 l 318 256 q 329 267 329 256 l 329 576 q 324 592 329 592 l 301 590 q 288 599 288 592 l 288 614 q 340 619 310 617 q 447 621 371 621 q 528 603 500 621 q 568 562 557 586 q 579 517 579 538 m 510 517 q 492 575 510 553 q 439 597 475 597 q 417 596 428 597 q 400 593 406 594 l 400 428 q 447 432 422 428 q 491 455 472 436 q 510 517 510 474 z "},"":{"ha":551,"x_min":214,"x_max":608,"o":"m 568 735 l 228 735 q 214 750 214 735 q 215 756 214 753 q 229 782 218 768 q 253 796 240 796 l 592 796 q 605 791 601 796 q 608 781 608 786 l 608 776 q 594 749 607 764 q 568 735 581 735 z "},"":{"ha":371,"x_min":190,"x_max":471,"o":"m 193 824 q 251 921 203 881 q 356 961 299 961 q 439 928 407 961 q 471 847 471 896 q 471 836 471 842 q 469 824 471 831 q 412 726 460 767 q 307 685 364 685 q 223 717 256 685 q 190 799 190 750 q 191 812 190 806 q 193 824 192 818 m 424 822 q 424 831 424 826 q 425 840 425 836 q 407 897 425 871 q 349 924 389 924 q 275 891 304 924 q 239 822 246 858 q 237 813 238 817 q 236 803 236 808 q 256 748 236 772 q 314 724 275 724 q 387 755 357 724 q 424 822 417 786 z "},"":{"ha":732,"x_min":96,"x_max":724,"o":"m 485 474 l 724 474 l 713 406 l 472 406 l 431 165 l 361 165 l 404 406 l 163 406 l 175 474 l 415 474 l 458 715 l 526 715 l 485 474 m 657 93 l 644 25 l 96 25 l 108 93 l 657 93 z "},"":{"ha":426,"x_min":161,"x_max":529,"o":"m 261 815 q 239 824 249 815 q 229 843 229 832 q 231 849 229 847 q 253 892 235 867 q 309 936 272 917 q 400 956 346 956 q 488 936 447 956 q 529 865 529 917 q 529 853 529 860 q 526 840 529 847 q 478 755 518 793 q 371 675 438 717 q 292 613 321 644 q 256 550 263 582 l 368 550 q 425 582 400 550 q 465 643 450 614 l 497 636 q 470 571 483 606 q 447 506 457 536 l 161 506 q 218 599 171 556 q 321 682 265 643 q 406 751 376 719 q 444 839 435 783 q 447 849 446 844 q 447 860 447 854 q 426 909 447 896 q 388 922 404 922 q 326 909 343 922 q 306 882 308 896 q 306 865 304 872 q 304 849 307 857 q 286 824 301 832 q 261 815 271 815 z "},"":{"ha":426,"x_min":160,"x_max":511,"o":"m 431 867 q 431 874 431 871 q 432 882 432 878 q 417 914 432 906 q 385 922 403 922 q 335 911 364 922 q 299 874 306 900 q 288 847 296 861 q 256 833 279 833 q 232 844 236 833 q 228 858 228 856 q 250 894 231 871 q 309 936 269 917 q 408 956 349 956 q 484 938 457 956 q 511 889 511 921 q 510 874 511 879 q 479 819 504 843 q 421 779 454 796 q 481 753 451 776 q 511 682 511 731 q 510 670 511 676 q 508 657 510 664 q 465 574 500 610 q 381 517 431 538 q 275 497 331 497 q 224 503 250 497 q 178 521 197 510 q 160 546 160 532 q 175 568 160 560 q 200 576 190 576 q 220 570 214 576 q 232 557 226 564 q 251 540 239 547 q 296 532 264 532 q 337 540 310 532 q 390 574 364 549 q 425 646 415 599 q 426 658 426 653 q 426 667 426 663 q 410 711 426 697 q 371 730 393 725 q 333 735 349 735 q 319 734 326 735 q 304 732 313 733 l 308 765 q 389 798 356 772 q 431 867 422 824 z "},"":{"ha":474,"x_min":260,"x_max":507,"o":"m 415 976 q 436 979 424 979 q 479 970 465 979 q 499 954 493 961 q 507 947 504 949 l 507 932 l 321 781 q 276 753 288 753 q 260 768 260 753 q 263 783 260 774 q 274 801 265 792 l 415 976 z "},"":{"ha":674,"x_min":10,"x_max":718,"o":"m 188 496 q 199 549 194 522 q 214 592 203 575 q 251 610 225 610 q 297 600 285 610 q 310 572 310 590 q 303 534 310 560 q 292 489 296 508 l 226 204 q 217 134 218 168 q 231 78 215 100 q 286 56 246 56 q 394 134 335 56 q 531 343 454 213 l 571 496 q 582 549 578 522 q 597 592 586 575 q 635 610 608 610 q 681 600 668 610 q 693 572 693 590 q 686 533 693 560 q 675 489 679 507 l 597 172 q 587 124 592 146 q 582 93 582 103 q 596 69 582 69 q 633 89 607 69 q 686 139 660 108 q 708 132 701 139 q 718 115 715 125 q 623 20 671 54 q 525 -14 575 -14 q 484 -1 494 -14 q 474 32 474 13 q 481 89 474 51 q 497 160 488 126 l 513 214 l 508 217 q 374 47 435 108 q 232 -14 314 -14 q 198 -5 214 -14 q 174 18 182 4 q 154 6 157 18 q 147 -47 149 -21 q 144 -99 144 -72 q 145 -142 144 -121 q 146 -182 146 -162 q 132 -272 146 -242 q 99 -314 118 -303 q 64 -325 81 -325 q 30 -307 50 -325 q 10 -254 10 -289 q 24 -188 10 -228 q 57 -103 39 -149 q 86 -11 75 -57 q 99 75 93 24 q 118 186 104 126 l 188 496 z "},"":{"ha":836,"x_min":139,"x_max":954,"o":"m 657 -200 q 653 -228 654 -215 q 651 -249 651 -240 q 663 -278 651 -272 q 696 -286 674 -285 l 738 -286 q 743 -296 746 -286 l 738 -325 l 282 -325 l 288 -296 q 297 -286 289 -286 l 338 -286 q 385 -269 372 -285 q 407 -199 397 -253 l 497 315 q 451 303 482 308 q 388 299 421 299 q 307 310 350 299 q 226 347 264 321 q 163 419 188 374 q 139 535 139 465 q 140 572 139 553 q 144 610 142 590 q 253 817 168 738 q 478 897 339 897 q 615 894 556 897 q 703 890 675 890 q 769 892 739 890 q 800 894 800 894 l 954 897 l 949 868 q 939 858 946 858 l 897 858 q 849 840 861 858 q 828 772 836 821 l 657 -200 m 514 -287 q 556 -266 544 -287 q 575 -201 567 -244 l 747 772 q 751 818 751 801 q 742 849 751 844 q 721 856 733 854 q 676 828 686 856 q 660 768 665 800 l 489 -199 q 485 -242 485 -219 q 491 -274 485 -260 q 514 -287 497 -287 z "},"":{"ha":347,"x_min":172,"x_max":322,"o":"m 247 276 q 195 299 218 276 q 172 351 172 322 q 195 403 172 381 q 247 426 218 426 q 299 403 276 426 q 322 351 322 381 q 299 299 322 322 q 247 276 276 276 z "},"":{"ha":751,"x_min":235,"x_max":507,"o":"m 382 -111 q 349 -113 361 -111 q 318 -119 336 -115 l 311 -111 l 393 10 l 440 10 l 389 -71 q 425 -67 406 -67 q 483 -83 458 -67 q 507 -132 507 -99 q 455 -218 507 -185 q 333 -251 403 -251 q 280 -245 301 -251 q 235 -228 258 -239 l 254 -203 q 295 -215 282 -212 q 332 -217 308 -217 q 399 -199 368 -217 q 431 -147 431 -181 q 417 -121 431 -131 q 382 -111 403 -111 z "},"":{"ha":426,"x_min":193,"x_max":456,"o":"m 344 863 q 304 855 331 863 q 261 840 278 847 l 256 878 q 344 912 308 896 q 432 956 381 928 l 454 956 l 383 593 q 386 556 378 571 q 408 542 394 542 l 447 542 q 454 535 456 542 l 449 506 q 428 506 449 506 q 381 507 408 507 q 329 507 353 507 q 271 507 303 507 q 216 506 239 507 q 193 506 193 506 l 199 535 q 210 542 203 542 l 260 542 q 292 556 276 542 q 313 593 307 571 l 353 804 q 358 850 360 838 q 344 863 357 863 z "},"":{"ha":485,"x_min":156,"x_max":560,"o":"m 171 672 q 249 812 188 761 q 399 863 310 863 q 503 836 467 863 q 549 769 539 810 q 550 681 560 728 q 511 592 540 633 q 434 524 482 550 q 321 497 386 497 q 200 547 244 497 q 171 672 156 597 m 383 828 q 298 785 332 828 q 253 686 264 743 q 251 618 246 653 q 279 560 257 583 q 343 536 301 536 q 388 546 363 536 q 435 582 413 556 q 467 658 457 608 q 459 785 482 742 q 383 828 436 828 z "},"":{"ha":644,"x_min":85,"x_max":657,"o":"m 542 299 q 476 396 507 342 q 410 532 446 450 l 457 565 q 517 473 490 513 q 571 400 543 433 q 633 332 599 367 q 642 324 633 332 q 657 310 651 315 l 653 288 q 632 274 644 282 q 619 265 619 265 q 528 198 571 232 q 442 124 486 164 q 343 32 399 85 l 311 65 q 436 201 383 147 q 542 299 489 256 m 315 299 q 250 396 281 342 q 183 532 219 450 l 229 565 q 289 473 263 513 q 343 400 315 433 q 406 332 371 367 q 415 324 406 332 q 429 310 424 315 l 425 288 q 404 274 417 282 q 392 265 392 265 q 300 198 342 232 q 215 124 258 164 q 115 32 171 85 l 85 65 q 210 201 157 147 q 315 299 263 256 z "},"":{"ha":917,"x_min":136,"x_max":928,"o":"m 340 794 q 300 787 326 794 q 257 772 274 779 l 251 810 q 340 844 304 828 q 428 888 376 860 l 450 888 l 379 525 q 382 488 374 503 q 404 474 390 474 l 443 474 q 450 467 451 474 l 444 438 q 424 438 444 438 q 376 439 404 439 q 325 439 349 439 q 267 439 299 439 q 212 438 235 439 q 189 438 189 438 l 194 467 q 206 474 199 474 l 256 474 q 288 488 272 474 q 308 525 303 503 l 349 736 q 354 782 356 769 q 340 794 353 794 m 871 751 l 928 740 l 194 -58 l 136 -47 l 871 751 m 794 -8 q 799 -57 786 -44 q 851 -72 813 -69 q 851 -93 854 -81 q 842 -112 849 -106 q 789 -111 811 -111 q 735 -111 767 -111 q 678 -111 699 -111 q 625 -112 657 -111 q 625 -93 622 -106 q 635 -72 628 -81 q 694 -60 676 -69 q 722 -8 713 -51 l 729 25 l 565 25 q 546 31 551 25 q 540 42 540 36 q 544 61 540 53 q 553 72 549 69 q 672 184 619 129 q 767 292 724 239 q 788 316 776 303 q 825 335 800 329 q 834 335 826 335 q 844 336 842 336 q 861 334 851 336 q 868 322 871 332 l 813 72 l 890 72 l 871 25 l 801 25 l 794 -8 m 785 271 q 699 173 746 222 q 594 72 653 124 l 740 72 l 785 271 z "},"":{"ha":917,"x_min":108,"x_max":915,"o":"m 343 794 q 303 787 329 794 q 260 772 276 779 l 254 810 q 343 844 307 828 q 431 888 379 860 l 453 888 l 382 525 q 385 488 376 503 q 407 474 393 474 l 446 474 q 453 467 454 474 l 447 438 q 427 438 447 438 q 379 439 407 439 q 328 439 351 439 q 269 439 301 439 q 215 438 238 439 q 192 438 192 438 l 197 467 q 208 474 201 474 l 258 474 q 290 488 275 474 q 311 525 306 503 l 351 736 q 357 782 358 769 q 343 794 356 794 m 843 751 l 900 740 l 167 -58 l 108 -47 l 843 751 m 647 200 q 625 208 635 200 q 615 228 615 217 q 617 233 615 232 q 640 276 621 251 q 695 321 658 301 q 786 340 732 340 q 874 321 833 340 q 915 250 915 301 q 915 238 915 244 q 913 225 915 232 q 864 140 904 178 q 757 60 824 101 q 678 -2 707 29 q 642 -65 649 -33 l 754 -65 q 811 -33 786 -65 q 851 28 836 -1 l 883 21 q 856 -44 869 -10 q 833 -110 843 -79 l 547 -110 q 604 -16 557 -60 q 707 67 651 28 q 792 136 763 104 q 831 224 821 168 q 833 234 832 229 q 833 244 833 239 q 812 294 833 281 q 774 307 790 307 q 712 294 729 307 q 692 267 694 281 q 692 249 690 257 q 690 233 693 242 q 672 208 688 217 q 647 200 657 200 z "},"":{"ha":917,"x_min":136,"x_max":928,"o":"m 428 796 q 428 803 428 800 q 429 811 429 807 q 415 843 429 835 q 382 851 400 851 q 332 840 361 851 q 296 803 303 829 q 285 776 293 790 q 253 763 276 763 q 229 774 233 763 q 225 788 225 785 q 247 823 228 800 q 306 865 267 846 q 406 885 346 885 q 481 867 454 885 q 508 818 508 850 q 507 803 508 808 q 476 749 501 772 q 418 708 451 725 q 478 683 449 706 q 508 611 508 660 q 508 599 508 606 q 506 586 507 593 q 463 503 497 539 q 378 447 428 467 q 272 426 328 426 q 221 433 247 426 q 176 450 194 439 q 157 475 157 461 q 172 497 157 489 q 197 506 188 506 q 217 499 211 506 q 229 486 224 493 q 249 469 236 476 q 293 461 261 461 q 334 469 307 461 q 387 503 361 478 q 422 575 413 528 q 424 587 424 582 q 424 596 424 592 q 407 640 424 626 q 368 659 390 654 q 331 664 346 664 q 317 663 324 664 q 301 661 310 663 l 306 694 q 386 727 353 701 q 428 796 419 753 m 871 751 l 928 740 l 194 -58 l 136 -47 l 871 751 m 758 -6 q 763 -54 750 -42 q 815 -69 776 -67 q 815 -90 818 -78 q 806 -110 813 -103 q 753 -108 775 -108 q 699 -108 731 -108 q 642 -108 663 -108 q 589 -110 621 -108 q 589 -90 586 -103 q 599 -69 592 -78 q 658 -58 640 -67 q 686 -6 676 -49 l 693 28 l 529 28 q 510 33 515 28 q 504 44 504 39 q 508 64 504 56 q 517 75 513 72 q 635 187 583 132 q 731 294 688 242 q 752 319 740 306 q 789 338 764 332 q 798 338 790 338 q 808 339 806 339 q 825 337 815 339 q 832 325 835 335 l 776 75 l 854 75 l 835 28 l 765 28 l 758 -6 m 749 274 q 663 176 710 225 q 558 75 617 126 l 704 75 l 749 274 z "},"":{"ha":563,"x_min":29,"x_max":501,"o":"m 485 551 q 453 499 479 521 q 397 478 428 478 q 353 495 371 478 q 335 539 335 513 q 335 545 335 542 q 336 551 336 549 q 368 603 343 582 q 424 625 393 625 q 469 608 451 625 q 486 565 486 590 q 485 558 486 561 q 485 551 485 554 m 396 -189 q 397 -166 399 -174 q 393 -153 396 -158 q 390 -140 390 -146 q 390 -119 389 -133 q 415 -83 394 -96 q 454 -71 435 -71 q 485 -79 469 -71 q 501 -115 501 -87 q 501 -122 501 -118 q 500 -131 500 -126 q 469 -200 493 -169 q 408 -256 444 -231 q 226 -310 335 -310 q 81 -265 133 -310 q 29 -143 29 -219 q 31 -122 29 -132 q 33 -100 32 -111 q 74 -4 43 -44 q 144 67 104 36 q 219 122 183 97 q 269 157 247 140 q 304 192 292 174 q 349 293 340 242 l 360 354 q 379 368 361 368 q 392 354 396 368 l 381 290 q 366 224 376 261 q 329 148 356 188 q 250 67 303 108 q 174 -9 203 28 q 138 -94 146 -46 q 135 -112 136 -104 q 135 -131 135 -121 q 165 -227 135 -186 q 247 -268 196 -268 q 349 -244 307 -268 q 396 -189 390 -219 z "},"":{"ha":926,"x_min":4,"x_max":926,"o":"m 224 110 q 214 78 214 93 q 264 40 214 44 l 301 38 q 310 26 311 38 l 307 0 l 303 -3 q 218 -1 267 -1 q 129 0 169 0 q 67 -1 90 0 q 6 -3 43 -1 l 4 0 l 8 26 q 21 38 10 38 q 98 59 65 40 q 169 142 131 78 l 607 864 q 635 903 624 892 q 661 914 647 914 q 681 903 676 914 q 689 872 686 892 l 817 119 q 842 61 824 79 q 900 39 861 43 l 914 38 q 925 26 926 38 l 922 0 l 919 -3 q 843 -1 883 -1 q 763 0 803 0 q 674 -1 724 0 q 586 -3 624 -1 l 585 0 l 588 26 q 599 38 589 38 l 638 40 q 706 88 706 46 q 704 100 706 93 l 669 335 l 392 335 q 358 330 368 335 q 340 311 347 325 l 224 110 m 426 393 l 658 393 l 601 764 l 599 764 l 397 411 q 394 403 394 406 q 426 393 394 393 m 831 1000 q 825 984 831 994 q 804 974 819 974 q 780 978 794 974 q 749 990 765 983 l 553 1078 l 674 1140 l 815 1024 q 831 1000 831 1011 z "},"":{"ha":926,"x_min":4,"x_max":926,"o":"m 224 110 q 214 78 214 93 q 264 40 214 44 l 301 38 q 310 26 311 38 l 307 0 l 303 -3 q 218 -1 267 -1 q 129 0 169 0 q 67 -1 90 0 q 6 -3 43 -1 l 4 0 l 8 26 q 21 38 10 38 q 98 59 65 40 q 169 142 131 78 l 607 864 q 635 903 624 892 q 661 914 647 914 q 681 903 676 914 q 689 872 686 892 l 817 119 q 842 61 824 79 q 900 39 861 43 l 914 38 q 925 26 926 38 l 922 0 l 919 -3 q 843 -1 883 -1 q 763 0 803 0 q 674 -1 724 0 q 586 -3 624 -1 l 585 0 l 588 26 q 599 38 589 38 l 638 40 q 706 88 706 46 q 704 100 706 93 l 669 335 l 392 335 q 358 330 368 335 q 340 311 347 325 l 224 110 m 426 393 l 658 393 l 601 764 l 599 764 l 397 411 q 394 403 394 406 q 426 393 394 393 m 550 974 q 533 989 533 974 q 563 1024 533 1006 l 758 1140 l 849 1078 l 614 990 q 576 978 592 983 q 550 974 560 974 z "},"":{"ha":926,"x_min":4,"x_max":926,"o":"m 224 110 q 214 78 214 93 q 264 40 214 44 l 301 38 q 310 26 311 38 l 307 0 l 303 -3 q 218 -1 267 -1 q 129 0 169 0 q 67 -1 90 0 q 6 -3 43 -1 l 4 0 l 8 26 q 21 38 10 38 q 98 59 65 40 q 169 142 131 78 l 607 864 q 635 903 624 892 q 661 914 647 914 q 681 903 676 914 q 689 872 686 892 l 817 119 q 842 61 824 79 q 900 39 861 43 l 914 38 q 925 26 926 38 l 922 0 l 919 -3 q 843 -1 883 -1 q 763 0 803 0 q 674 -1 724 0 q 586 -3 624 -1 l 585 0 l 588 26 q 599 38 589 38 l 638 40 q 706 88 706 46 q 704 100 706 93 l 669 335 l 392 335 q 358 330 368 335 q 340 311 347 325 l 224 110 m 426 393 l 658 393 l 601 764 l 599 764 l 397 411 q 394 403 394 406 q 426 393 394 393 m 744 1133 q 794 1063 767 1096 q 854 1003 822 1031 l 825 974 q 757 1013 789 993 q 697 1060 725 1033 q 613 1012 653 1032 q 529 974 574 992 l 517 1003 q 603 1065 561 1032 q 685 1133 646 1099 l 744 1133 z "},"":{"ha":926,"x_min":4,"x_max":926,"o":"m 758 1036 q 799 1051 781 1036 q 842 1108 818 1065 l 874 1100 q 728 975 824 975 q 685 986 704 975 q 646 1011 665 997 q 612 1032 629 1022 q 578 1042 594 1042 q 531 1026 550 1042 q 496 975 513 1010 l 464 982 q 523 1074 490 1043 q 600 1106 556 1106 q 652 1094 631 1106 q 692 1067 674 1082 q 722 1045 706 1054 q 758 1036 738 1036 m 224 110 q 214 78 214 93 q 264 40 214 44 l 301 38 q 310 26 311 38 l 307 0 l 303 -3 q 218 -1 267 -1 q 129 0 169 0 q 67 -1 90 0 q 6 -3 43 -1 l 4 0 l 8 26 q 21 38 10 38 q 98 59 65 40 q 169 142 131 78 l 607 864 q 635 903 624 892 q 661 914 647 914 q 681 903 676 914 q 689 872 686 892 l 817 119 q 842 61 824 79 q 900 39 861 43 l 914 38 q 925 26 926 38 l 922 0 l 919 -3 q 843 -1 883 -1 q 763 0 803 0 q 674 -1 724 0 q 586 -3 624 -1 l 585 0 l 588 26 q 599 38 589 38 l 638 40 q 706 88 706 46 q 704 100 706 93 l 669 335 l 392 335 q 358 330 368 335 q 340 311 347 325 l 224 110 m 426 393 l 658 393 l 601 764 l 599 764 l 397 411 q 394 403 394 406 q 426 393 394 393 z "},"":{"ha":926,"x_min":4,"x_max":926,"o":"m 224 110 q 214 78 214 93 q 264 40 214 44 l 301 38 q 310 26 311 38 l 307 0 l 303 -3 q 218 -1 267 -1 q 129 0 169 0 q 67 -1 90 0 q 6 -3 43 -1 l 4 0 l 8 26 q 21 38 10 38 q 98 59 65 40 q 169 142 131 78 l 607 864 q 635 903 624 892 q 661 914 647 914 q 681 903 676 914 q 689 872 686 892 l 817 119 q 842 61 824 79 q 900 39 861 43 l 914 38 q 925 26 926 38 l 922 0 l 919 -3 q 843 -1 883 -1 q 763 0 803 0 q 674 -1 724 0 q 586 -3 624 -1 l 585 0 l 588 26 q 599 38 589 38 l 638 40 q 706 88 706 46 q 704 100 706 93 l 669 335 l 392 335 q 358 330 368 335 q 340 311 347 325 l 224 110 m 426 393 l 658 393 l 601 764 l 599 764 l 397 411 q 394 403 394 406 q 426 393 394 393 m 733 1039 q 760 1083 739 1064 q 808 1101 782 1101 q 846 1087 832 1101 q 860 1051 860 1072 q 858 1039 860 1042 q 833 994 854 1013 q 785 975 811 975 q 747 990 763 975 q 732 1028 732 1006 q 733 1039 732 1035 m 469 1038 q 497 1082 475 1064 q 546 1100 519 1100 q 583 1086 569 1100 q 597 1050 597 1072 q 597 1044 597 1047 q 596 1038 596 1040 q 569 993 590 1011 q 521 975 547 975 q 483 990 499 975 q 468 1026 468 1004 q 469 1032 468 1029 q 469 1038 469 1035 z "},"":{"ha":926,"x_min":4,"x_max":926,"o":"m 544 996 q 597 1078 554 1044 q 689 1111 640 1111 q 766 1078 736 1111 q 786 996 796 1044 q 751 931 779 960 q 686 889 722 901 q 687 881 686 885 q 689 872 688 876 l 817 119 q 842 61 824 79 q 900 39 861 43 l 914 38 q 925 26 926 38 l 922 0 l 919 -3 q 843 -1 883 -1 q 763 0 803 0 q 674 -1 724 0 q 586 -3 624 -1 l 585 0 l 588 26 q 599 38 589 38 l 638 40 q 706 88 706 46 q 704 100 706 93 l 669 335 l 392 335 q 358 330 368 335 q 340 311 347 325 l 224 110 q 214 78 214 93 q 264 40 214 44 l 301 38 q 310 26 311 38 l 307 0 l 303 -3 q 218 -1 267 -1 q 129 0 169 0 q 67 -1 90 0 q 6 -3 43 -1 l 4 0 l 8 26 q 21 38 10 38 q 98 59 65 40 q 169 142 131 78 l 607 864 q 619 883 614 875 q 558 922 581 890 q 544 996 536 954 m 681 1074 q 625 1051 649 1074 q 596 996 601 1028 q 603 942 590 967 q 650 918 617 918 q 706 942 682 918 q 735 996 729 967 q 727 1051 742 1028 q 681 1074 713 1074 m 426 393 l 658 393 l 601 764 l 599 764 l 397 411 q 394 403 394 406 q 426 393 394 393 z "},"":{"ha":1151,"x_min":3,"x_max":1201,"o":"m 628 0 q 581 -1 610 0 q 524 -1 553 -1 q 475 -2 494 -1 q 456 -3 456 -3 l 453 0 l 458 25 q 471 38 461 38 l 507 40 q 567 58 549 43 q 592 103 586 74 l 644 369 l 407 369 l 215 94 q 192 50 189 57 q 231 40 196 43 l 268 38 q 275 29 275 38 l 269 0 l 268 -3 q 243 -2 268 -3 q 185 -1 218 -1 q 125 0 151 0 q 74 -1 103 0 q 25 -2 46 -1 q 4 -3 4 -3 l 3 0 l 8 26 q 24 38 10 35 l 54 40 q 95 49 81 43 q 124 72 110 56 q 160 118 139 88 l 638 801 q 642 840 654 826 q 610 856 629 854 l 569 858 q 561 868 558 858 l 567 896 l 569 897 l 803 896 l 1201 896 q 1193 783 1196 840 q 1189 682 1190 725 l 1149 675 q 1135 760 1143 724 q 1103 819 1126 797 q 1028 840 1079 840 l 894 840 q 855 822 871 840 q 835 779 839 803 l 781 504 l 917 504 q 968 520 953 504 q 996 565 983 536 l 1013 607 q 1025 618 1018 618 l 1054 618 q 1058 613 1058 618 q 1039 551 1050 586 q 1021 481 1028 515 q 1012 406 1015 446 q 1006 347 1008 365 l 1003 343 l 972 343 q 963 353 963 343 l 964 396 q 952 441 963 425 q 907 457 942 457 l 771 457 l 703 103 q 708 65 697 75 q 742 54 719 54 l 915 54 q 1003 80 967 54 q 1069 147 1040 106 q 1119 239 1097 189 l 1158 232 q 1115 118 1136 178 q 1079 0 1094 58 l 628 0 m 443 424 l 654 424 l 728 799 q 726 831 732 828 l 443 424 z "},"":{"ha":856,"x_min":124,"x_max":931,"o":"m 463 -133 q 428 -135 442 -133 q 397 -142 415 -136 l 392 -133 l 465 -14 q 270 36 346 -12 q 159 164 194 85 q 124 335 124 243 q 133 438 124 386 q 205 627 153 540 q 329 778 257 714 q 485 878 401 843 q 651 914 568 914 q 754 905 713 914 q 824 884 796 896 q 878 863 853 872 q 931 851 903 853 q 922 743 925 796 q 918 636 919 690 l 878 631 q 849 743 872 690 q 772 829 825 796 q 626 863 719 863 q 533 840 588 863 q 422 769 478 817 q 320 645 365 721 q 254 464 275 569 q 243 347 243 404 q 267 197 243 267 q 344 85 292 128 q 479 43 396 43 q 652 78 572 43 q 818 194 732 114 q 844 174 838 194 q 685 45 769 92 q 514 -11 600 -1 l 467 -93 q 504 -89 485 -89 q 564 -107 540 -89 q 588 -157 588 -125 q 562 -222 588 -194 q 497 -263 536 -249 q 415 -278 457 -278 q 362 -272 382 -278 q 318 -254 342 -265 q 339 -218 322 -232 q 380 -233 365 -228 q 415 -237 394 -237 q 476 -218 453 -237 q 500 -167 500 -199 q 463 -133 500 -133 z "},"":{"ha":731,"x_min":15,"x_max":768,"o":"m 768 897 q 767 869 768 893 q 765 814 767 846 q 761 749 763 782 q 757 696 760 717 l 718 689 q 703 771 713 738 q 668 822 693 804 q 593 840 643 840 l 454 840 q 396 793 406 840 l 340 501 l 510 501 q 561 516 544 501 q 588 560 578 531 l 597 594 q 610 606 600 606 l 639 606 l 643 600 q 614 475 621 517 q 605 425 610 454 q 596 354 600 396 l 589 350 l 560 350 q 553 354 554 350 q 553 361 551 358 l 556 396 q 557 407 557 403 q 543 440 557 431 q 499 449 529 449 l 329 449 l 261 100 q 260 86 260 92 q 272 60 260 67 q 301 54 283 54 l 482 54 q 610 108 558 54 q 697 236 663 161 l 738 229 q 690 113 715 175 q 643 -3 665 51 q 614 -2 643 -3 q 545 -1 585 -1 q 474 0 506 0 l 188 0 q 107 -1 149 0 q 18 -3 65 -1 l 15 0 l 21 28 q 25 34 22 31 q 33 38 28 38 l 74 40 q 131 57 114 43 q 154 100 149 71 l 289 793 q 292 813 292 804 q 277 843 292 833 q 232 856 263 853 l 193 858 q 185 868 182 858 l 190 896 l 193 899 q 281 897 240 897 q 361 896 322 896 l 699 896 q 733 897 722 896 q 763 901 744 899 q 768 897 768 901 m 663 996 q 657 980 663 990 q 636 969 651 969 q 612 974 626 969 q 581 986 597 979 l 385 1074 l 506 1136 l 647 1019 q 663 996 663 1007 z "},"":{"ha":731,"x_min":15,"x_max":768,"o":"m 768 897 q 767 869 768 893 q 765 814 767 846 q 761 749 763 782 q 757 696 760 717 l 718 689 q 703 771 713 738 q 668 822 693 804 q 593 840 643 840 l 454 840 q 396 793 406 840 l 340 501 l 510 501 q 561 516 544 501 q 588 560 578 531 l 597 594 q 610 606 600 606 l 639 606 l 643 600 q 614 475 621 517 q 605 425 610 454 q 596 354 600 396 l 589 350 l 560 350 q 553 354 554 350 q 553 361 551 358 l 556 396 q 557 407 557 403 q 543 440 557 431 q 499 449 529 449 l 329 449 l 261 100 q 260 86 260 92 q 272 60 260 67 q 301 54 283 54 l 482 54 q 610 108 558 54 q 697 236 663 161 l 738 229 q 690 113 715 175 q 643 -3 665 51 q 614 -2 643 -3 q 545 -1 585 -1 q 474 0 506 0 l 188 0 q 107 -1 149 0 q 18 -3 65 -1 l 15 0 l 21 28 q 25 34 22 31 q 33 38 28 38 l 74 40 q 131 57 114 43 q 154 100 149 71 l 289 793 q 292 813 292 804 q 277 843 292 833 q 232 856 263 853 l 193 858 q 185 868 182 858 l 190 896 l 193 899 q 281 897 240 897 q 361 896 322 896 l 699 896 q 733 897 722 896 q 763 901 744 899 q 768 897 768 901 m 382 967 q 365 982 365 967 q 394 1017 365 999 l 590 1133 l 681 1071 l 446 983 q 408 972 424 976 q 382 967 392 967 z "},"":{"ha":731,"x_min":15,"x_max":768,"o":"m 768 897 q 767 869 768 893 q 765 814 767 846 q 761 749 763 782 q 757 696 760 717 l 718 689 q 703 771 713 738 q 668 822 693 804 q 593 840 643 840 l 454 840 q 396 793 406 840 l 340 501 l 510 501 q 561 516 544 501 q 588 560 578 531 l 597 594 q 610 606 600 606 l 639 606 l 643 600 q 614 475 621 517 q 605 425 610 454 q 596 354 600 396 l 589 350 l 560 350 q 553 354 554 350 q 553 361 551 358 l 556 396 q 557 407 557 403 q 543 440 557 431 q 499 449 529 449 l 329 449 l 261 100 q 260 86 260 92 q 272 60 260 67 q 301 54 283 54 l 482 54 q 610 108 558 54 q 697 236 663 161 l 738 229 q 690 113 715 175 q 643 -3 665 51 q 614 -2 643 -3 q 545 -1 585 -1 q 474 0 506 0 l 188 0 q 107 -1 149 0 q 18 -3 65 -1 l 15 0 l 21 28 q 25 34 22 31 q 33 38 28 38 l 74 40 q 131 57 114 43 q 154 100 149 71 l 289 793 q 292 813 292 804 q 277 843 292 833 q 232 856 263 853 l 193 858 q 185 868 182 858 l 190 896 l 193 899 q 281 897 240 897 q 361 896 322 896 l 699 896 q 733 897 722 896 q 763 901 744 899 q 768 897 768 901 m 617 1126 q 667 1056 639 1089 q 726 996 694 1024 l 697 967 q 629 1006 661 986 q 569 1053 597 1026 q 485 1005 525 1025 q 401 967 446 985 l 389 996 q 476 1058 433 1025 q 557 1126 518 1092 l 617 1126 z "},"":{"ha":731,"x_min":15,"x_max":771,"o":"m 768 897 q 767 869 768 893 q 765 814 767 846 q 761 749 763 782 q 757 696 760 717 l 718 689 q 703 771 713 738 q 668 822 693 804 q 593 840 643 840 l 454 840 q 396 793 406 840 l 340 501 l 510 501 q 561 516 544 501 q 588 560 578 531 l 597 594 q 610 606 600 606 l 639 606 l 643 600 q 614 475 621 517 q 605 425 610 454 q 596 354 600 396 l 589 350 l 560 350 q 553 354 554 350 q 553 361 551 358 l 556 396 q 557 407 557 403 q 543 440 557 431 q 499 449 529 449 l 329 449 l 261 100 q 260 86 260 92 q 272 60 260 67 q 301 54 283 54 l 482 54 q 610 108 558 54 q 697 236 663 161 l 738 229 q 690 113 715 175 q 643 -3 665 51 q 614 -2 643 -3 q 545 -1 585 -1 q 474 0 506 0 l 188 0 q 107 -1 149 0 q 18 -3 65 -1 l 15 0 l 21 28 q 25 34 22 31 q 33 38 28 38 l 74 40 q 131 57 114 43 q 154 100 149 71 l 289 793 q 292 813 292 804 q 277 843 292 833 q 232 856 263 853 l 193 858 q 185 868 182 858 l 190 896 l 193 899 q 281 897 240 897 q 361 896 322 896 l 699 896 q 733 897 722 896 q 763 901 744 899 q 768 897 768 901 m 644 1032 q 672 1076 650 1057 q 719 1094 693 1094 q 757 1080 743 1094 q 771 1044 771 1065 q 769 1032 771 1035 q 744 987 765 1006 q 696 968 722 968 q 658 983 674 968 q 643 1021 643 999 q 644 1032 643 1028 m 381 1031 q 408 1075 386 1057 q 457 1093 431 1093 q 494 1079 481 1093 q 508 1043 508 1065 q 508 1037 508 1040 q 507 1031 507 1033 q 480 986 501 1004 q 432 968 458 968 q 394 983 410 968 q 379 1019 379 997 q 380 1025 379 1022 q 381 1031 381 1028 z "},"":{"ha":389,"x_min":25,"x_max":539,"o":"m 296 790 q 288 835 301 821 q 235 854 275 850 l 188 858 q 187 879 185 864 q 192 899 189 894 q 283 897 238 897 q 368 896 329 896 q 448 897 408 896 q 535 899 488 897 q 538 876 539 889 q 532 858 536 863 l 489 854 q 428 835 446 850 q 403 790 410 819 l 268 106 q 276 60 263 74 q 329 42 289 46 l 376 38 q 377 17 379 32 q 372 -3 375 1 q 281 -1 326 -1 q 196 0 236 0 q 116 -1 156 0 q 29 -3 76 -1 q 26 20 25 7 q 32 38 28 33 l 75 42 q 137 61 118 46 q 161 106 156 76 l 296 790 m 460 993 q 454 977 460 988 q 433 967 449 967 q 409 972 424 967 q 378 983 394 976 l 182 1071 l 303 1133 l 444 1017 q 460 993 460 1004 z "},"":{"ha":389,"x_min":25,"x_max":589,"o":"m 296 790 q 288 835 301 821 q 235 854 275 850 l 188 858 q 187 879 185 864 q 192 899 189 894 q 283 897 238 897 q 368 896 329 896 q 448 897 408 896 q 535 899 488 897 q 538 876 539 889 q 532 858 536 863 l 489 854 q 428 835 446 850 q 403 790 410 819 l 268 106 q 276 60 263 74 q 329 42 289 46 l 376 38 q 377 17 379 32 q 372 -3 375 1 q 281 -1 326 -1 q 196 0 236 0 q 116 -1 156 0 q 29 -3 76 -1 q 26 20 25 7 q 32 38 28 33 l 75 42 q 137 61 118 46 q 161 106 156 76 l 296 790 m 290 967 q 274 982 274 967 q 303 1017 274 999 l 499 1133 l 589 1071 l 354 983 q 316 972 332 976 q 290 967 300 967 z "},"":{"ha":389,"x_min":25,"x_max":553,"o":"m 296 790 q 288 835 301 821 q 235 854 275 850 l 188 858 q 187 879 185 864 q 192 899 189 894 q 283 897 238 897 q 368 896 329 896 q 448 897 408 896 q 535 899 488 897 q 538 876 539 889 q 532 858 536 863 l 489 854 q 428 835 446 850 q 403 790 410 819 l 268 106 q 276 60 263 74 q 329 42 289 46 l 376 38 q 377 17 379 32 q 372 -3 375 1 q 281 -1 326 -1 q 196 0 236 0 q 116 -1 156 0 q 29 -3 76 -1 q 26 20 25 7 q 32 38 28 33 l 75 42 q 137 61 118 46 q 161 106 156 76 l 296 790 m 443 1126 q 493 1056 465 1089 q 553 996 521 1024 l 524 967 q 456 1006 488 986 q 396 1053 424 1026 q 312 1005 351 1025 q 228 967 272 985 l 215 996 q 302 1058 260 1025 q 383 1126 344 1092 l 443 1126 z "},"":{"ha":389,"x_min":25,"x_max":594,"o":"m 296 790 q 288 835 301 821 q 235 854 275 850 l 188 858 q 187 879 185 864 q 192 899 189 894 q 283 897 238 897 q 368 896 329 896 q 448 897 408 896 q 535 899 488 897 q 538 876 539 889 q 532 858 536 863 l 489 854 q 428 835 446 850 q 403 790 410 819 l 268 106 q 276 60 263 74 q 329 42 289 46 l 376 38 q 377 17 379 32 q 372 -3 375 1 q 281 -1 326 -1 q 196 0 236 0 q 116 -1 156 0 q 29 -3 76 -1 q 26 20 25 7 q 32 38 28 33 l 75 42 q 137 61 118 46 q 161 106 156 76 l 296 790 m 468 1032 q 495 1076 474 1057 q 543 1094 517 1094 q 581 1080 567 1094 q 594 1044 594 1065 q 593 1032 594 1035 q 567 987 589 1006 q 519 968 546 968 q 482 983 497 968 q 467 1021 467 999 q 468 1032 467 1028 m 204 1031 q 232 1075 210 1057 q 281 1093 254 1093 q 318 1079 304 1093 q 332 1043 332 1065 q 331 1037 332 1040 q 331 1031 331 1033 q 303 986 325 1004 q 256 968 282 968 q 218 983 233 968 q 203 1019 203 997 q 203 1025 203 1022 q 204 1031 204 1028 z "},"":{"ha":926,"x_min":22,"x_max":964,"o":"m 26 25 q 39 38 29 38 l 79 40 q 135 56 115 43 q 161 103 156 69 l 219 399 l 93 399 l 104 453 l 229 453 l 296 794 q 299 819 299 810 q 285 847 299 840 q 238 856 271 853 l 201 858 q 192 869 189 858 l 196 896 l 200 899 q 288 897 247 897 q 368 896 329 896 q 465 897 408 896 q 586 899 522 899 q 783 849 699 899 q 916 713 868 799 q 964 521 964 628 q 954 428 964 475 q 872 216 929 300 q 740 84 815 132 q 585 17 665 36 q 435 -3 506 -3 q 323 -2 367 -3 q 250 -1 279 -1 q 194 0 221 0 q 113 -1 154 0 q 25 -3 72 -1 l 22 0 l 26 25 m 268 101 q 267 83 267 90 q 293 53 267 61 q 403 44 319 44 q 540 60 474 44 q 664 114 607 75 q 763 221 721 153 q 825 394 804 289 q 838 519 838 458 q 808 683 838 607 q 711 805 779 758 q 526 851 643 851 q 444 842 478 851 q 404 797 411 833 l 338 453 l 481 453 l 469 399 l 326 399 l 268 101 z "},"":{"ha":925,"x_min":17,"x_max":1094,"o":"m 954 774 l 810 29 q 774 -14 800 -14 q 726 19 742 -14 l 381 632 q 343 678 354 678 q 317 610 331 678 l 222 122 q 219 101 219 111 q 233 60 219 76 q 279 40 247 43 l 314 38 q 322 26 324 36 l 319 0 l 317 -3 q 233 -1 269 -1 q 172 0 197 0 q 107 -1 147 0 q 19 -3 67 -1 l 17 0 l 19 25 q 39 38 21 36 l 74 40 q 136 69 115 43 q 163 122 157 94 l 288 764 q 266 824 286 792 q 214 858 246 856 q 201 862 207 860 q 194 869 194 864 l 197 896 l 201 899 l 385 899 l 722 282 q 756 224 744 243 q 775 206 767 206 q 785 217 782 206 q 792 247 788 228 l 894 774 q 897 794 897 786 q 884 835 897 818 q 838 856 871 853 l 804 858 q 792 862 799 858 q 788 869 786 865 l 792 896 l 794 899 q 882 897 842 897 q 947 896 922 896 q 1008 897 971 896 q 1092 899 1044 897 l 1094 896 l 1092 869 q 1087 861 1092 864 q 1079 858 1082 858 l 1042 856 q 982 829 1003 853 q 954 774 961 806 m 743 1029 q 784 1044 765 1029 q 826 1101 803 1058 l 858 1093 q 713 968 808 968 q 669 979 689 968 q 631 1004 650 990 q 597 1025 614 1015 q 563 1035 579 1035 q 516 1019 535 1035 q 481 968 497 1003 l 449 975 q 508 1067 475 1036 q 585 1099 540 1099 q 637 1087 615 1099 q 676 1060 658 1075 q 706 1038 690 1047 q 743 1029 722 1029 z "},"":{"ha":928,"x_min":121,"x_max":981,"o":"m 971 457 q 872 212 944 318 q 693 46 799 106 q 460 -14 588 -14 q 285 27 361 -14 q 165 144 208 68 q 121 325 121 219 q 132 431 121 375 q 199 621 151 533 q 313 774 246 708 q 462 877 381 840 q 632 914 543 914 q 813 870 733 914 q 936 747 892 826 q 981 560 981 668 q 971 457 981 510 m 606 867 q 476 824 546 867 q 347 691 406 782 q 260 454 288 600 q 247 339 247 393 q 281 172 247 240 q 372 69 315 104 q 496 33 428 33 q 642 81 572 33 q 766 217 713 128 q 843 431 819 307 q 857 569 857 506 q 788 792 857 718 q 606 867 718 867 m 700 993 q 694 977 700 988 q 674 967 689 967 q 649 972 664 967 q 618 983 635 976 l 422 1071 l 543 1133 l 685 1017 q 700 993 700 1004 z "},"":{"ha":928,"x_min":121,"x_max":981,"o":"m 971 457 q 872 212 944 318 q 693 46 799 106 q 460 -14 588 -14 q 285 27 361 -14 q 165 144 208 68 q 121 325 121 219 q 132 431 121 375 q 199 621 151 533 q 313 774 246 708 q 462 877 381 840 q 632 914 543 914 q 813 870 733 914 q 936 747 892 826 q 981 560 981 668 q 971 457 981 510 m 606 867 q 476 824 546 867 q 347 691 406 782 q 260 454 288 600 q 247 339 247 393 q 281 172 247 240 q 372 69 315 104 q 496 33 428 33 q 642 81 572 33 q 766 217 713 128 q 843 431 819 307 q 857 569 857 506 q 788 792 857 718 q 606 867 718 867 m 529 967 q 513 982 513 967 q 542 1017 513 999 l 738 1133 l 828 1071 l 593 983 q 555 972 571 976 q 529 967 539 967 z "},"":{"ha":928,"x_min":121,"x_max":981,"o":"m 971 457 q 872 212 944 318 q 693 46 799 106 q 460 -14 588 -14 q 285 27 361 -14 q 165 144 208 68 q 121 325 121 219 q 132 431 121 375 q 199 621 151 533 q 313 774 246 708 q 462 877 381 840 q 632 914 543 914 q 813 870 733 914 q 936 747 892 826 q 981 560 981 668 q 971 457 981 510 m 606 867 q 476 824 546 867 q 347 691 406 782 q 260 454 288 600 q 247 339 247 393 q 281 172 247 240 q 372 69 315 104 q 496 33 428 33 q 642 81 572 33 q 766 217 713 128 q 843 431 819 307 q 857 569 857 506 q 788 792 857 718 q 606 867 718 867 m 696 1126 q 746 1056 718 1089 q 806 996 774 1024 l 776 967 q 708 1006 740 986 q 649 1053 676 1026 q 565 1005 604 1025 q 481 967 525 985 l 468 996 q 555 1058 513 1025 q 636 1126 597 1092 l 696 1126 z "},"":{"ha":928,"x_min":121,"x_max":981,"o":"m 971 457 q 872 212 944 318 q 693 46 799 106 q 460 -14 588 -14 q 285 27 361 -14 q 165 144 208 68 q 121 325 121 219 q 132 431 121 375 q 199 621 151 533 q 313 774 246 708 q 462 877 381 840 q 632 914 543 914 q 813 870 733 914 q 936 747 892 826 q 981 560 981 668 q 971 457 981 510 m 606 867 q 476 824 546 867 q 347 691 406 782 q 260 454 288 600 q 247 339 247 393 q 281 172 247 240 q 372 69 315 104 q 496 33 428 33 q 642 81 572 33 q 766 217 713 128 q 843 431 819 307 q 857 569 857 506 q 788 792 857 718 q 606 867 718 867 m 739 1029 q 780 1044 761 1029 q 822 1101 799 1058 l 854 1093 q 708 968 804 968 q 665 979 685 968 q 626 1004 646 990 q 592 1025 610 1015 q 558 1035 575 1035 q 512 1019 531 1035 q 476 968 493 1003 l 444 975 q 503 1067 471 1036 q 581 1099 536 1099 q 633 1087 611 1099 q 672 1060 654 1075 q 702 1038 686 1047 q 739 1029 718 1029 z "},"":{"ha":928,"x_min":121,"x_max":981,"o":"m 971 457 q 872 212 944 318 q 693 46 799 106 q 460 -14 588 -14 q 285 27 361 -14 q 165 144 208 68 q 121 325 121 219 q 132 431 121 375 q 199 621 151 533 q 313 774 246 708 q 462 877 381 840 q 632 914 543 914 q 813 870 733 914 q 936 747 892 826 q 981 560 981 668 q 971 457 981 510 m 606 867 q 476 824 546 867 q 347 691 406 782 q 260 454 288 600 q 247 339 247 393 q 281 172 247 240 q 372 69 315 104 q 496 33 428 33 q 642 81 572 33 q 766 217 713 128 q 843 431 819 307 q 857 569 857 506 q 788 792 857 718 q 606 867 718 867 m 728 1032 q 755 1076 733 1057 q 803 1094 776 1094 q 840 1080 826 1094 q 854 1044 854 1065 q 853 1032 854 1035 q 827 987 849 1006 q 779 968 806 968 q 742 983 757 968 q 726 1021 726 999 q 728 1032 726 1028 m 464 1031 q 492 1075 469 1057 q 540 1093 514 1093 q 578 1079 564 1093 q 592 1043 592 1065 q 591 1037 592 1040 q 590 1031 590 1033 q 563 986 585 1004 q 515 968 542 968 q 478 983 493 968 q 463 1019 463 997 q 463 1025 463 1022 q 464 1031 464 1028 z "},"":{"ha":732,"x_min":174,"x_max":671,"o":"m 471 319 l 610 150 l 553 101 l 414 271 l 214 101 l 174 150 l 374 319 l 233 490 l 290 539 l 431 368 l 632 539 l 671 490 l 471 319 z "},"":{"ha":928,"x_min":97,"x_max":1044,"o":"m 1010 931 l 1044 896 l 924 768 q 966 674 951 726 q 981 560 981 621 q 971 457 981 510 q 872 212 944 318 q 693 46 799 106 q 460 -14 588 -14 q 242 54 331 -14 l 133 -60 l 97 -25 l 206 88 q 143 192 165 132 q 121 325 121 251 q 132 431 121 375 q 199 621 151 533 q 313 774 246 708 q 462 877 381 840 q 632 914 543 914 q 779 886 713 914 q 893 808 846 858 l 1010 931 m 606 867 q 476 824 546 867 q 347 691 406 782 q 260 454 288 600 q 247 339 247 393 q 257 247 247 289 q 283 169 267 204 l 825 736 q 737 834 793 801 q 606 867 681 867 m 843 685 l 311 126 q 393 57 344 81 q 496 33 442 33 q 642 81 572 33 q 766 217 713 128 q 843 431 819 307 q 857 569 857 506 q 843 685 857 633 z "},"":{"ha":881,"x_min":167,"x_max":1056,"o":"m 425 -14 q 342 -3 386 -14 q 260 33 299 7 q 197 108 221 60 q 172 231 172 156 q 182 328 172 275 l 274 794 q 275 813 275 804 q 260 844 275 835 q 213 856 244 853 l 178 858 q 169 869 167 858 l 174 896 l 178 899 q 266 897 225 897 q 346 896 307 896 q 428 897 386 896 q 517 899 469 897 l 519 896 l 514 869 q 501 858 511 858 l 467 856 q 406 838 425 853 q 381 794 388 824 l 299 374 q 288 306 293 340 q 282 238 282 271 q 290 172 282 204 q 319 113 297 140 q 380 63 343 82 q 464 43 417 43 q 604 74 549 43 q 694 156 660 106 q 747 266 728 206 q 776 385 765 326 l 856 792 q 858 811 858 803 q 796 856 858 850 l 760 858 q 751 869 749 858 l 757 896 l 760 899 q 845 897 807 897 q 906 896 883 896 q 967 897 929 896 q 1053 899 1006 897 l 1056 896 l 1050 869 q 1038 858 1047 858 l 1003 856 q 941 837 960 853 q 917 792 922 821 l 842 410 q 773 190 818 286 q 645 40 728 94 q 425 -14 563 -14 m 815 993 q 810 977 815 988 q 789 967 804 967 q 765 972 779 967 q 733 983 750 976 l 538 1071 l 658 1133 l 800 1017 q 815 993 815 1004 z "},"":{"ha":881,"x_min":167,"x_max":1056,"o":"m 425 -14 q 342 -3 386 -14 q 260 33 299 7 q 197 108 221 60 q 172 231 172 156 q 182 328 172 275 l 274 794 q 275 813 275 804 q 260 844 275 835 q 213 856 244 853 l 178 858 q 169 869 167 858 l 174 896 l 178 899 q 266 897 225 897 q 346 896 307 896 q 428 897 386 896 q 517 899 469 897 l 519 896 l 514 869 q 501 858 511 858 l 467 856 q 406 838 425 853 q 381 794 388 824 l 299 374 q 288 306 293 340 q 282 238 282 271 q 290 172 282 204 q 319 113 297 140 q 380 63 343 82 q 464 43 417 43 q 604 74 549 43 q 694 156 660 106 q 747 266 728 206 q 776 385 765 326 l 856 792 q 858 811 858 803 q 796 856 858 850 l 760 858 q 751 869 749 858 l 757 896 l 760 899 q 845 897 807 897 q 906 896 883 896 q 967 897 929 896 q 1053 899 1006 897 l 1056 896 l 1050 869 q 1038 858 1047 858 l 1003 856 q 941 837 960 853 q 917 792 922 821 l 842 410 q 773 190 818 286 q 645 40 728 94 q 425 -14 563 -14 m 535 967 q 518 982 518 967 q 547 1017 518 999 l 743 1133 l 833 1071 l 599 983 q 560 972 576 976 q 535 967 544 967 z "},"":{"ha":881,"x_min":167,"x_max":1056,"o":"m 425 -14 q 342 -3 386 -14 q 260 33 299 7 q 197 108 221 60 q 172 231 172 156 q 182 328 172 275 l 274 794 q 275 813 275 804 q 260 844 275 835 q 213 856 244 853 l 178 858 q 169 869 167 858 l 174 896 l 178 899 q 266 897 225 897 q 346 896 307 896 q 428 897 386 896 q 517 899 469 897 l 519 896 l 514 869 q 501 858 511 858 l 467 856 q 406 838 425 853 q 381 794 388 824 l 299 374 q 288 306 293 340 q 282 238 282 271 q 290 172 282 204 q 319 113 297 140 q 380 63 343 82 q 464 43 417 43 q 604 74 549 43 q 694 156 660 106 q 747 266 728 206 q 776 385 765 326 l 856 792 q 858 811 858 803 q 796 856 858 850 l 760 858 q 751 869 749 858 l 757 896 l 760 899 q 845 897 807 897 q 906 896 883 896 q 967 897 929 896 q 1053 899 1006 897 l 1056 896 l 1050 869 q 1038 858 1047 858 l 1003 856 q 941 837 960 853 q 917 792 922 821 l 842 410 q 773 190 818 286 q 645 40 728 94 q 425 -14 563 -14 m 729 1126 q 779 1056 751 1089 q 839 996 807 1024 l 810 967 q 742 1006 774 986 q 682 1053 710 1026 q 598 1005 638 1025 q 514 967 558 985 l 501 996 q 588 1058 546 1025 q 669 1126 631 1092 l 729 1126 z "},"":{"ha":881,"x_min":167,"x_max":1056,"o":"m 425 -14 q 342 -3 386 -14 q 260 33 299 7 q 197 108 221 60 q 172 231 172 156 q 182 328 172 275 l 274 794 q 275 813 275 804 q 260 844 275 835 q 213 856 244 853 l 178 858 q 169 869 167 858 l 174 896 l 178 899 q 266 897 225 897 q 346 896 307 896 q 428 897 386 896 q 517 899 469 897 l 519 896 l 514 869 q 501 858 511 858 l 467 856 q 406 838 425 853 q 381 794 388 824 l 299 374 q 288 306 293 340 q 282 238 282 271 q 290 172 282 204 q 319 113 297 140 q 380 63 343 82 q 464 43 417 43 q 604 74 549 43 q 694 156 660 106 q 747 266 728 206 q 776 385 765 326 l 856 792 q 858 811 858 803 q 796 856 858 850 l 760 858 q 751 869 749 858 l 757 896 l 760 899 q 845 897 807 897 q 906 896 883 896 q 967 897 929 896 q 1053 899 1006 897 l 1056 896 l 1050 869 q 1038 858 1047 858 l 1003 856 q 941 837 960 853 q 917 792 922 821 l 842 410 q 773 190 818 286 q 645 40 728 94 q 425 -14 563 -14 m 746 1032 q 773 1076 751 1057 q 821 1094 794 1094 q 858 1080 844 1094 q 872 1044 872 1065 q 871 1032 872 1035 q 845 987 867 1006 q 797 968 824 968 q 760 983 775 968 q 744 1021 744 999 q 746 1032 744 1028 m 482 1031 q 510 1075 488 1057 q 558 1093 532 1093 q 596 1079 582 1093 q 610 1043 610 1065 q 609 1037 610 1040 q 608 1031 608 1033 q 581 986 603 1004 q 533 968 560 968 q 496 983 511 968 q 481 1019 481 997 q 481 1025 481 1022 q 482 1031 482 1028 z "},"":{"ha":767,"x_min":169,"x_max":922,"o":"m 467 106 q 474 60 461 75 q 528 42 488 46 l 575 38 q 576 17 578 32 q 571 -3 574 1 q 480 -1 525 -1 q 394 0 435 0 q 315 -1 354 0 q 228 -3 275 -1 q 225 20 224 7 q 231 38 226 33 l 274 42 q 335 61 317 46 q 360 106 354 76 l 408 360 q 413 394 413 383 q 412 406 413 399 q 408 419 411 413 l 281 760 q 245 833 260 815 q 196 856 231 851 l 175 858 q 171 878 172 864 q 172 899 169 893 q 240 897 201 897 q 317 896 278 896 q 391 897 357 896 q 465 899 425 897 q 467 879 468 894 q 463 858 465 864 l 417 854 q 380 840 382 851 q 388 800 378 828 l 506 465 l 511 465 l 731 800 q 750 841 751 831 q 724 854 749 851 l 679 858 q 678 878 678 863 q 682 899 679 894 q 754 897 722 897 q 808 896 786 896 q 860 897 832 896 q 919 899 889 897 q 919 879 922 894 q 914 858 917 864 l 878 856 q 823 835 842 853 q 782 785 804 817 l 539 431 q 528 405 532 419 q 519 372 524 390 l 467 106 m 564 967 q 547 982 547 967 q 576 1017 547 999 l 772 1133 l 863 1071 l 628 983 q 590 972 606 976 q 564 967 574 967 z "},"":{"ha":696,"x_min":11,"x_max":751,"o":"m 286 799 q 278 842 293 831 q 224 856 263 853 l 189 858 q 181 869 178 858 l 186 896 l 189 897 q 207 897 189 897 q 253 897 225 897 q 309 896 281 896 q 357 896 338 896 q 402 896 374 896 q 460 897 431 896 q 509 897 489 897 q 529 897 529 897 l 531 896 l 526 869 q 514 858 524 858 l 476 856 q 418 840 436 853 q 393 799 400 828 l 379 721 q 448 724 415 724 q 499 724 481 724 q 644 699 592 724 q 722 637 697 675 q 749 556 746 599 q 744 476 751 514 q 712 392 736 438 q 644 305 688 346 q 535 238 600 264 q 381 211 469 211 q 321 213 346 211 q 282 221 296 215 l 258 100 q 267 56 253 68 q 318 40 281 43 l 354 38 q 363 26 365 38 l 357 0 l 354 -3 q 336 -2 354 -3 q 290 -1 318 -1 q 234 -1 263 -1 q 186 0 206 0 q 140 -1 168 0 q 82 -1 111 -1 q 33 -2 53 -1 q 14 -3 14 -3 l 11 0 l 17 26 q 29 38 19 38 l 65 40 q 126 57 107 43 q 150 100 144 71 l 286 799 m 368 665 l 289 261 q 382 254 307 254 q 481 272 431 254 q 570 339 531 290 q 626 476 610 388 q 624 604 643 560 q 567 665 604 649 q 489 681 529 681 q 453 678 476 681 q 407 673 431 676 q 368 665 383 669 z "},"":{"ha":754,"x_min":-114,"x_max":793,"o":"m 357 519 q 292 206 321 356 q 228 -62 263 56 q 144 -253 194 -181 q 78 -312 114 -294 q 3 -331 43 -331 q -70 -319 -44 -331 q -105 -292 -96 -308 q -114 -264 -114 -276 q -102 -234 -114 -249 q -65 -219 -90 -219 q -30 -230 -44 -219 q -7 -253 -15 -240 q 9 -276 1 -267 q 31 -285 17 -285 q 69 -267 50 -285 q 100 -224 88 -250 q 128 -140 115 -192 q 154 -27 142 -87 q 176 92 167 33 q 194 196 186 151 q 222 348 207 265 q 256 526 236 431 q 253 540 256 538 q 239 542 250 542 l 182 542 q 171 551 171 542 q 179 578 171 560 q 213 596 188 596 q 261 615 244 596 q 286 663 278 635 q 367 842 317 775 q 483 940 418 910 q 619 969 547 969 q 721 950 683 969 q 776 901 758 931 q 793 842 793 872 q 760 735 793 785 q 678 645 728 686 q 576 571 628 604 l 576 568 q 658 499 617 538 q 726 413 699 461 q 754 300 754 364 q 734 196 754 250 q 676 94 714 142 q 587 16 639 46 q 472 -14 535 -14 q 380 14 404 -14 q 356 78 356 42 q 374 152 356 135 q 413 169 393 169 q 440 162 429 169 q 451 142 451 154 q 444 105 451 118 q 428 83 436 92 q 421 63 421 75 q 442 36 421 40 q 483 32 463 32 q 533 55 508 32 q 580 115 558 78 q 614 195 601 151 q 626 281 626 239 q 588 426 626 358 q 488 550 549 494 l 492 568 q 536 601 506 576 q 601 662 567 625 q 658 744 635 699 q 682 842 682 790 q 662 903 682 881 q 597 925 642 925 q 506 898 543 925 q 446 826 469 871 q 406 726 422 781 q 378 614 390 671 l 357 519 z "},"":{"ha":675,"x_min":108,"x_max":683,"o":"m 569 601 q 616 597 590 596 q 667 599 642 599 l 571 167 q 562 123 567 147 q 557 89 557 99 q 564 73 557 76 q 574 69 571 69 q 604 87 585 69 q 651 143 624 104 q 672 136 665 143 q 683 121 678 129 q 614 24 657 61 q 506 -14 571 -14 q 460 8 471 -14 q 449 49 449 29 q 452 81 449 61 q 463 125 456 101 l 481 183 l 478 186 q 357 40 415 93 q 243 -14 299 -14 q 156 17 185 -14 q 118 91 128 47 q 108 174 108 135 q 142 333 108 256 q 228 474 175 411 q 342 573 281 536 q 458 610 403 610 q 521 607 500 610 q 569 601 542 604 m 500 304 q 522 378 513 338 q 538 456 532 418 q 546 517 543 493 q 549 540 549 540 q 463 567 507 567 q 372 531 415 567 q 293 437 328 494 q 239 315 258 379 q 219 196 219 251 q 233 100 219 138 q 281 63 246 63 q 342 97 303 63 q 424 187 381 132 q 500 304 467 242 m 518 932 l 579 757 q 583 739 583 747 q 582 724 583 731 q 573 713 581 718 q 557 708 565 708 q 522 736 547 708 l 396 888 l 401 903 q 437 922 411 910 q 499 935 463 935 q 518 932 507 935 z "},"":{"ha":675,"x_min":108,"x_max":683,"o":"m 569 601 q 616 597 590 596 q 667 599 642 599 l 571 167 q 562 123 567 147 q 557 89 557 99 q 564 73 557 76 q 574 69 571 69 q 604 87 585 69 q 651 143 624 104 q 672 136 665 143 q 683 121 678 129 q 614 24 657 61 q 506 -14 571 -14 q 460 8 471 -14 q 449 49 449 29 q 452 81 449 61 q 463 125 456 101 l 481 183 l 478 186 q 357 40 415 93 q 243 -14 299 -14 q 156 17 185 -14 q 118 91 128 47 q 108 174 108 135 q 142 333 108 256 q 228 474 175 411 q 342 573 281 536 q 458 610 403 610 q 521 607 500 610 q 569 601 542 604 m 500 304 q 522 378 513 338 q 538 456 532 418 q 546 517 543 493 q 549 540 549 540 q 463 567 507 567 q 372 531 415 567 q 293 437 328 494 q 239 315 258 379 q 219 196 219 251 q 233 100 219 138 q 281 63 246 63 q 342 97 303 63 q 424 187 381 132 q 500 304 467 242 m 511 925 q 532 928 519 928 q 560 924 538 928 q 601 896 582 919 l 603 881 l 411 729 q 383 708 393 714 q 365 703 372 703 q 352 708 357 703 q 349 721 347 714 q 356 739 351 732 q 372 760 361 746 l 511 925 z "},"":{"ha":675,"x_min":108,"x_max":683,"o":"m 569 601 q 616 597 590 596 q 667 599 642 599 l 571 167 q 562 123 567 147 q 557 89 557 99 q 564 73 557 76 q 574 69 571 69 q 604 87 585 69 q 651 143 624 104 q 672 136 665 143 q 683 121 678 129 q 614 24 657 61 q 506 -14 571 -14 q 460 8 471 -14 q 449 49 449 29 q 452 81 449 61 q 463 125 456 101 l 481 183 l 478 186 q 357 40 415 93 q 243 -14 299 -14 q 156 17 185 -14 q 118 91 128 47 q 108 174 108 135 q 142 333 108 256 q 228 474 175 411 q 342 573 281 536 q 458 610 403 610 q 521 607 500 610 q 569 601 542 604 m 500 304 q 522 378 513 338 q 538 456 532 418 q 546 517 543 493 q 549 540 549 540 q 463 567 507 567 q 372 531 415 567 q 293 437 328 494 q 239 315 258 379 q 219 196 219 251 q 233 100 219 138 q 281 63 246 63 q 342 97 303 63 q 424 187 381 132 q 500 304 467 242 m 531 907 q 578 814 550 858 q 635 728 606 769 l 601 708 q 537 767 567 739 q 479 833 507 796 q 391 765 432 794 q 306 708 350 736 l 282 728 q 374 815 328 769 q 461 907 421 860 l 531 907 z "},"":{"ha":675,"x_min":108,"x_max":683,"o":"m 569 601 q 616 597 590 596 q 667 599 642 599 l 571 167 q 562 123 567 147 q 557 89 557 99 q 564 73 557 76 q 574 69 571 69 q 604 87 585 69 q 651 143 624 104 q 672 136 665 143 q 683 121 678 129 q 614 24 657 61 q 506 -14 571 -14 q 460 8 471 -14 q 449 49 449 29 q 452 81 449 61 q 463 125 456 101 l 481 183 l 478 186 q 357 40 415 93 q 243 -14 299 -14 q 156 17 185 -14 q 118 91 128 47 q 108 174 108 135 q 142 333 108 256 q 228 474 175 411 q 342 573 281 536 q 458 610 403 610 q 521 607 500 610 q 569 601 542 604 m 500 304 q 522 378 513 338 q 538 456 532 418 q 546 517 543 493 q 549 540 549 540 q 463 567 507 567 q 372 531 415 567 q 293 437 328 494 q 239 315 258 379 q 219 196 219 251 q 233 100 219 138 q 281 63 246 63 q 342 97 303 63 q 424 187 381 132 q 500 304 467 242 m 550 785 q 591 799 572 785 q 633 857 610 814 l 665 849 q 519 724 615 724 q 476 735 496 724 q 438 760 457 746 q 403 781 421 771 q 369 790 386 790 q 323 774 342 790 q 288 724 304 758 l 256 731 q 315 823 282 792 q 392 854 347 854 q 444 842 422 854 q 483 815 465 831 q 513 794 497 803 q 550 785 529 785 z "},"":{"ha":675,"x_min":108,"x_max":683,"o":"m 569 601 q 616 597 590 596 q 667 599 642 599 l 571 167 q 562 123 567 147 q 557 89 557 99 q 564 73 557 76 q 574 69 571 69 q 604 87 585 69 q 651 143 624 104 q 672 136 665 143 q 683 121 678 129 q 614 24 657 61 q 506 -14 571 -14 q 460 8 471 -14 q 449 49 449 29 q 452 81 449 61 q 463 125 456 101 l 481 183 l 478 186 q 357 40 415 93 q 243 -14 299 -14 q 156 17 185 -14 q 118 91 128 47 q 108 174 108 135 q 142 333 108 256 q 228 474 175 411 q 342 573 281 536 q 458 610 403 610 q 521 607 500 610 q 569 601 542 604 m 500 304 q 522 378 513 338 q 538 456 532 418 q 546 517 543 493 q 549 540 549 540 q 463 567 507 567 q 372 531 415 567 q 293 437 328 494 q 239 315 258 379 q 219 196 219 251 q 233 100 219 138 q 281 63 246 63 q 342 97 303 63 q 424 187 381 132 q 500 304 467 242 m 318 796 q 337 841 318 822 q 382 860 356 860 q 427 841 408 860 q 446 796 446 822 q 427 751 446 769 q 382 732 408 732 q 337 751 356 732 q 318 796 318 769 m 540 796 q 559 841 540 822 q 604 860 578 860 q 649 841 631 860 q 668 796 668 822 q 649 751 668 769 q 604 732 631 732 q 559 751 578 732 q 540 796 540 769 z "},"":{"ha":675,"x_min":108,"x_max":683,"o":"m 569 601 q 616 597 590 596 q 667 599 642 599 l 571 167 q 562 123 567 147 q 557 89 557 99 q 564 73 557 76 q 574 69 571 69 q 604 87 585 69 q 651 143 624 104 q 672 136 665 143 q 683 121 678 129 q 614 24 657 61 q 506 -14 571 -14 q 460 8 471 -14 q 449 49 449 29 q 452 81 449 61 q 463 125 456 101 l 481 183 l 478 186 q 357 40 415 93 q 243 -14 299 -14 q 156 17 185 -14 q 118 91 128 47 q 108 174 108 135 q 142 333 108 256 q 228 474 175 411 q 342 573 281 536 q 458 610 403 610 q 521 607 500 610 q 569 601 542 604 m 500 304 q 522 378 513 338 q 538 456 532 418 q 546 517 543 493 q 549 540 549 540 q 463 567 507 567 q 372 531 415 567 q 293 437 328 494 q 239 315 258 379 q 219 196 219 251 q 233 100 219 138 q 281 63 246 63 q 342 97 303 63 q 424 187 381 132 q 500 304 467 242 m 354 824 q 407 906 364 872 q 499 939 450 939 q 576 906 546 939 q 596 824 606 872 q 544 742 586 776 q 451 708 501 708 q 374 742 404 708 q 354 824 344 776 m 490 901 q 435 878 458 901 q 406 824 411 856 q 413 770 400 794 q 460 746 426 746 q 515 770 492 746 q 544 824 539 794 q 537 878 551 856 q 490 901 522 901 z "},"":{"ha":954,"x_min":83,"x_max":1013,"o":"m 511 464 q 494 531 511 508 q 455 560 476 553 q 419 568 433 568 q 365 561 396 568 q 309 536 333 554 q 285 485 285 518 q 286 475 285 479 q 288 467 288 471 q 267 423 288 440 q 219 406 247 406 q 185 419 194 406 q 175 447 175 432 q 213 528 175 492 q 311 588 251 565 q 433 610 371 610 q 485 605 450 610 q 553 580 519 600 q 603 513 588 560 q 705 585 647 560 q 822 610 763 610 q 935 590 894 610 q 994 540 976 569 q 1013 486 1013 511 q 975 397 1013 431 q 876 344 938 363 q 738 316 814 325 q 585 303 661 307 q 576 226 576 264 q 615 101 576 147 q 718 54 654 54 q 816 74 775 54 q 897 131 857 94 l 917 117 q 813 24 874 61 q 682 -14 751 -14 q 581 3 619 -14 q 522 42 542 19 q 490 82 501 65 q 390 13 450 39 q 274 -14 331 -14 q 131 21 178 -14 q 83 113 83 56 q 124 227 83 183 q 228 296 164 271 q 363 332 292 321 q 494 347 433 343 q 507 415 503 388 q 511 464 511 442 m 599 351 q 745 365 675 356 q 860 401 815 375 q 904 482 904 428 q 879 538 904 513 q 810 563 854 563 q 683 501 739 563 q 599 351 626 440 m 483 299 q 424 292 461 297 q 347 275 388 286 q 269 245 306 264 q 209 197 232 226 q 186 124 186 167 q 210 67 186 89 q 289 44 233 44 q 366 67 328 44 q 433 140 404 89 q 458 203 444 160 q 483 299 471 247 z "},"":{"ha":540,"x_min":115,"x_max":588,"o":"m 294 -128 q 260 -129 274 -128 q 229 -136 247 -131 l 224 -128 l 293 -14 l 290 -14 q 213 4 249 -14 q 157 53 178 22 q 124 130 132 88 q 115 207 115 172 q 147 378 115 300 q 229 513 179 457 q 331 584 272 558 q 432 610 390 610 q 540 588 507 610 q 580 535 572 565 q 588 476 588 504 q 565 432 588 450 q 515 414 543 414 q 488 428 497 414 q 478 458 478 442 q 485 488 478 476 q 492 514 492 499 q 470 558 492 549 q 433 567 449 567 q 333 528 381 567 q 258 415 286 489 q 229 238 229 342 q 239 147 229 175 q 264 100 249 119 q 297 74 279 81 q 333 68 315 68 q 433 99 389 68 q 517 175 476 129 q 547 151 540 175 q 456 51 507 94 q 346 -7 404 8 l 299 -87 q 336 -83 317 -83 q 396 -101 372 -83 q 419 -151 419 -119 q 394 -216 419 -189 q 328 -258 368 -243 q 247 -272 289 -272 q 194 -266 214 -272 q 150 -249 174 -260 q 171 -212 154 -226 q 212 -227 197 -222 q 247 -232 226 -232 q 308 -212 285 -232 q 332 -161 332 -193 q 294 -128 332 -128 z "},"":{"ha":557,"x_min":115,"x_max":589,"o":"m 232 276 q 231 251 231 268 q 231 229 231 235 q 260 102 231 135 q 336 69 289 69 q 394 76 369 69 q 447 102 419 82 q 514 163 475 122 q 546 140 536 163 q 420 24 485 61 q 286 -14 356 -14 q 158 47 200 -14 q 115 197 115 108 q 135 335 115 264 q 195 469 154 407 q 301 571 236 532 q 457 610 367 610 q 536 591 507 610 q 577 549 565 572 q 589 507 589 525 q 586 470 589 492 q 567 424 583 449 q 514 373 551 399 q 408 322 476 347 q 232 276 340 297 m 493 514 q 478 556 493 544 q 425 567 463 567 q 363 548 396 567 q 297 478 329 529 q 242 329 265 428 q 324 347 281 335 q 406 380 368 358 q 469 434 444 401 q 493 514 493 467 m 467 932 l 528 757 q 532 739 532 747 q 531 724 532 731 q 522 713 529 718 q 506 708 514 708 q 471 736 496 708 l 344 888 l 350 903 q 385 922 360 910 q 447 935 411 935 q 467 932 456 935 z "},"":{"ha":557,"x_min":115,"x_max":610,"o":"m 232 276 q 231 251 231 268 q 231 229 231 235 q 260 102 231 135 q 336 69 289 69 q 394 76 369 69 q 447 102 419 82 q 514 163 475 122 q 546 140 536 163 q 420 24 485 61 q 286 -14 356 -14 q 158 47 200 -14 q 115 197 115 108 q 135 335 115 264 q 195 469 154 407 q 301 571 236 532 q 457 610 367 610 q 536 591 507 610 q 577 549 565 572 q 589 507 589 525 q 586 470 589 492 q 567 424 583 449 q 514 373 551 399 q 408 322 476 347 q 232 276 340 297 m 493 514 q 478 556 493 544 q 425 567 463 567 q 363 548 396 567 q 297 478 329 529 q 242 329 265 428 q 324 347 281 335 q 406 380 368 358 q 469 434 444 401 q 493 514 493 467 m 518 925 q 539 928 526 928 q 567 924 544 928 q 608 896 589 919 l 610 881 l 418 729 q 390 708 400 714 q 372 703 379 703 q 359 708 364 703 q 356 721 354 714 q 363 739 358 732 q 379 760 368 746 l 518 925 z "},"":{"ha":557,"x_min":115,"x_max":590,"o":"m 232 276 q 231 251 231 268 q 231 229 231 235 q 260 102 231 135 q 336 69 289 69 q 394 76 369 69 q 447 102 419 82 q 514 163 475 122 q 546 140 536 163 q 420 24 485 61 q 286 -14 356 -14 q 158 47 200 -14 q 115 197 115 108 q 135 335 115 264 q 195 469 154 407 q 301 571 236 532 q 457 610 367 610 q 536 591 507 610 q 577 549 565 572 q 589 507 589 525 q 586 470 589 492 q 567 424 583 449 q 514 373 551 399 q 408 322 476 347 q 232 276 340 297 m 493 514 q 478 556 493 544 q 425 567 463 567 q 363 548 396 567 q 297 478 329 529 q 242 329 265 428 q 324 347 281 335 q 406 380 368 358 q 469 434 444 401 q 493 514 493 467 m 486 907 q 533 814 506 858 q 590 728 561 769 l 557 708 q 492 767 522 739 q 435 833 463 796 q 347 765 388 794 q 261 708 306 736 l 238 728 q 330 815 283 769 q 417 907 376 860 l 486 907 z "},"":{"ha":557,"x_min":115,"x_max":619,"o":"m 232 276 q 231 251 231 268 q 231 229 231 235 q 260 102 231 135 q 336 69 289 69 q 394 76 369 69 q 447 102 419 82 q 514 163 475 122 q 546 140 536 163 q 420 24 485 61 q 286 -14 356 -14 q 158 47 200 -14 q 115 197 115 108 q 135 335 115 264 q 195 469 154 407 q 301 571 236 532 q 457 610 367 610 q 536 591 507 610 q 577 549 565 572 q 589 507 589 525 q 586 470 589 492 q 567 424 583 449 q 514 373 551 399 q 408 322 476 347 q 232 276 340 297 m 493 514 q 478 556 493 544 q 425 567 463 567 q 363 548 396 567 q 297 478 329 529 q 242 329 265 428 q 324 347 281 335 q 406 380 368 358 q 469 434 444 401 q 493 514 493 467 m 269 796 q 288 841 269 822 q 333 860 307 860 q 378 841 360 860 q 397 796 397 822 q 378 751 397 769 q 333 732 360 732 q 288 751 307 732 q 269 796 269 769 m 492 796 q 510 841 492 822 q 556 860 529 860 q 601 841 582 860 q 619 796 619 822 q 601 751 619 769 q 556 732 582 732 q 510 751 529 732 q 492 796 492 769 z "},"":{"ha":383,"x_min":149,"x_max":399,"o":"m 340 444 l 278 172 q 267 124 272 146 q 263 93 263 103 q 276 69 263 69 q 314 89 288 69 q 367 139 340 108 q 389 132 382 139 q 399 115 396 125 q 303 20 351 54 q 206 -14 256 -14 q 162 -1 175 -14 q 149 32 149 13 q 157 89 149 51 q 172 160 165 126 l 238 446 q 247 491 244 475 q 250 517 250 507 q 244 535 250 528 q 225 544 238 543 l 169 549 q 168 588 154 571 q 262 600 217 594 q 340 606 307 606 q 369 576 369 606 q 360 522 369 558 q 340 444 350 486 m 296 932 l 357 757 q 361 739 361 747 q 360 724 361 731 q 351 713 358 718 q 335 708 343 708 q 300 736 325 708 l 174 888 l 179 903 q 215 922 189 910 q 276 935 240 935 q 296 932 285 935 z "},"":{"ha":383,"x_min":149,"x_max":515,"o":"m 340 444 l 278 172 q 267 124 272 146 q 263 93 263 103 q 276 69 263 69 q 314 89 288 69 q 367 139 340 108 q 389 132 382 139 q 399 115 396 125 q 303 20 351 54 q 206 -14 256 -14 q 162 -1 175 -14 q 149 32 149 13 q 157 89 149 51 q 172 160 165 126 l 238 446 q 247 491 244 475 q 250 517 250 507 q 244 535 250 528 q 225 544 238 543 l 169 549 q 168 588 154 571 q 262 600 217 594 q 340 606 307 606 q 369 576 369 606 q 360 522 369 558 q 340 444 350 486 m 424 944 q 444 947 432 947 q 472 943 450 947 q 514 915 494 939 l 515 900 l 324 749 q 295 728 306 733 q 278 722 285 722 q 265 728 269 722 q 261 740 260 733 q 269 758 264 751 q 285 779 274 765 l 424 944 z "},"":{"ha":383,"x_min":142,"x_max":494,"o":"m 340 444 l 278 172 q 267 124 272 146 q 263 93 263 103 q 276 69 263 69 q 314 89 288 69 q 367 139 340 108 q 389 132 382 139 q 399 115 396 125 q 303 20 351 54 q 206 -14 256 -14 q 162 -1 175 -14 q 149 32 149 13 q 157 89 149 51 q 172 160 165 126 l 238 446 q 247 491 244 475 q 250 517 250 507 q 244 535 250 528 q 225 544 238 543 l 169 549 q 168 588 154 571 q 262 600 217 594 q 340 606 307 606 q 369 576 369 606 q 360 522 369 558 q 340 444 350 486 m 390 907 q 438 814 410 858 q 494 728 465 769 l 461 708 q 397 767 426 739 q 339 833 367 796 q 251 765 292 794 q 165 708 210 736 l 142 728 q 234 815 188 769 q 321 907 281 860 l 390 907 z "},"":{"ha":383,"x_min":149,"x_max":510,"o":"m 340 444 l 278 172 q 267 124 272 146 q 263 93 263 103 q 276 69 263 69 q 314 89 288 69 q 367 139 340 108 q 389 132 382 139 q 399 115 396 125 q 303 20 351 54 q 206 -14 256 -14 q 162 -1 175 -14 q 149 32 149 13 q 157 89 149 51 q 172 160 165 126 l 238 446 q 247 491 244 475 q 250 517 250 507 q 244 535 250 528 q 225 544 238 543 l 169 549 q 168 588 154 571 q 262 600 217 594 q 340 606 307 606 q 369 576 369 606 q 360 522 369 558 q 340 444 350 486 m 160 796 q 178 841 160 822 q 224 860 197 860 q 269 841 250 860 q 288 796 288 822 q 269 751 288 769 q 224 732 250 732 q 178 751 197 732 q 160 796 160 769 m 382 796 q 401 841 382 822 q 446 860 419 860 q 491 841 472 860 q 510 796 510 822 q 491 751 510 769 q 446 732 472 732 q 401 751 419 732 q 382 796 382 769 z "},"":{"ha":664,"x_min":104,"x_max":725,"o":"m 114 289 q 177 441 135 379 q 272 541 219 503 q 378 597 325 579 q 475 614 432 614 q 529 610 503 614 q 578 594 556 606 q 500 803 557 706 l 325 701 l 306 746 l 474 843 l 457 867 q 382 947 424 910 l 410 976 q 474 933 442 957 q 535 879 506 908 l 706 978 l 725 933 l 569 842 l 589 818 q 672 665 640 750 q 704 476 704 579 q 700 405 704 442 q 686 329 696 368 q 599 135 660 213 q 462 21 539 58 q 306 -17 385 -17 q 191 15 236 -17 q 125 97 146 46 q 104 207 104 149 q 107 247 104 226 q 114 289 110 268 m 342 38 q 418 58 375 38 q 503 138 461 79 q 569 310 544 197 q 589 476 589 396 q 588 488 589 483 q 588 499 588 493 q 539 547 571 529 q 463 565 507 565 q 369 541 410 565 q 301 478 329 517 q 254 397 272 440 q 228 313 236 353 q 215 218 215 263 q 250 88 215 138 q 342 38 285 38 z "},"":{"ha":719,"x_min":124,"x_max":722,"o":"m 607 792 q 648 806 629 792 q 690 864 667 821 l 722 856 q 576 731 672 731 q 533 742 553 731 q 494 767 514 753 q 460 788 478 778 q 426 797 443 797 q 380 781 399 797 q 344 731 361 765 l 313 738 q 372 830 339 799 q 449 861 404 861 q 501 849 479 861 q 540 822 522 838 q 570 801 554 810 q 607 792 586 792 m 601 172 q 591 124 596 146 q 586 93 586 103 q 600 69 586 69 q 638 89 611 69 q 690 139 664 108 q 713 132 706 139 q 722 115 719 125 q 625 20 675 54 q 525 -14 575 -14 q 481 -1 494 -14 q 468 32 468 13 q 476 89 468 51 q 492 160 483 126 l 544 382 q 557 438 551 411 q 563 476 563 464 q 549 517 563 508 q 514 526 536 526 q 421 472 476 526 q 300 331 365 417 l 247 100 q 236 47 240 74 q 221 3 232 21 q 183 -14 210 -14 q 137 -3 150 -14 q 124 24 124 7 q 130 57 124 35 q 142 100 136 79 l 219 446 q 232 517 232 504 q 226 535 232 528 q 207 544 219 543 l 151 549 q 150 588 136 571 q 245 600 199 594 q 325 606 292 606 q 354 576 354 606 q 346 522 354 561 q 324 444 338 483 l 319 432 l 321 431 q 429 544 385 506 q 509 597 474 583 q 581 610 544 610 q 647 585 621 610 q 672 499 672 561 q 667 455 672 481 q 654 393 663 429 l 601 172 z "},"":{"ha":621,"x_min":108,"x_max":646,"o":"m 108 225 q 129 355 108 288 q 192 480 150 422 q 299 574 235 538 q 450 610 363 610 q 553 589 514 610 q 612 535 592 568 q 639 462 632 501 q 646 385 646 422 q 617 229 646 303 q 540 99 589 156 q 431 13 492 43 q 368 -8 400 -3 q 303 -14 336 -14 q 197 13 236 -14 q 140 78 158 39 q 115 157 121 117 q 108 225 108 197 m 224 236 q 240 120 224 164 q 281 57 257 76 q 324 38 304 38 q 402 58 363 38 q 471 122 442 78 q 509 210 496 161 q 526 303 522 258 q 531 375 531 347 q 526 442 531 407 q 510 503 522 476 q 476 548 494 532 q 425 564 457 564 q 331 531 369 564 q 269 447 293 499 q 235 340 246 396 q 224 236 224 283 m 494 932 l 556 757 q 560 739 560 747 q 558 724 560 731 q 549 713 557 718 q 533 708 542 708 q 499 736 524 708 l 372 888 l 378 903 q 413 922 388 910 q 475 935 439 935 q 494 932 483 935 z "},"":{"ha":621,"x_min":108,"x_max":646,"o":"m 108 225 q 129 355 108 288 q 192 480 150 422 q 299 574 235 538 q 450 610 363 610 q 553 589 514 610 q 612 535 592 568 q 639 462 632 501 q 646 385 646 422 q 617 229 646 303 q 540 99 589 156 q 431 13 492 43 q 368 -8 400 -3 q 303 -14 336 -14 q 197 13 236 -14 q 140 78 158 39 q 115 157 121 117 q 108 225 108 197 m 224 236 q 240 120 224 164 q 281 57 257 76 q 324 38 304 38 q 402 58 363 38 q 471 122 442 78 q 509 210 496 161 q 526 303 522 258 q 531 375 531 347 q 526 442 531 407 q 510 503 522 476 q 476 548 494 532 q 425 564 457 564 q 331 531 369 564 q 269 447 293 499 q 235 340 246 396 q 224 236 224 283 m 475 925 q 496 928 483 928 q 524 924 501 928 q 565 896 546 919 l 567 881 l 375 729 q 347 708 357 714 q 329 703 336 703 q 316 708 321 703 q 313 721 311 714 q 320 739 315 732 q 336 760 325 746 l 475 925 z "},"":{"ha":621,"x_min":108,"x_max":646,"o":"m 108 225 q 129 355 108 288 q 192 480 150 422 q 299 574 235 538 q 450 610 363 610 q 553 589 514 610 q 612 535 592 568 q 639 462 632 501 q 646 385 646 422 q 617 229 646 303 q 540 99 589 156 q 431 13 492 43 q 368 -8 400 -3 q 303 -14 336 -14 q 197 13 236 -14 q 140 78 158 39 q 115 157 121 117 q 108 225 108 197 m 224 236 q 240 120 224 164 q 281 57 257 76 q 324 38 304 38 q 402 58 363 38 q 471 122 442 78 q 509 210 496 161 q 526 303 522 258 q 531 375 531 347 q 526 442 531 407 q 510 503 522 476 q 476 548 494 532 q 425 564 457 564 q 331 531 369 564 q 269 447 293 499 q 235 340 246 396 q 224 236 224 283 m 503 907 q 550 814 522 858 q 607 728 578 769 l 574 708 q 509 767 539 739 q 451 833 479 796 q 363 765 404 794 q 278 708 322 736 l 254 728 q 347 815 300 769 q 433 907 393 860 l 503 907 z "},"":{"ha":621,"x_min":108,"x_max":646,"o":"m 108 225 q 129 355 108 288 q 192 480 150 422 q 299 574 235 538 q 450 610 363 610 q 553 589 514 610 q 612 535 592 568 q 639 462 632 501 q 646 385 646 422 q 617 229 646 303 q 540 99 589 156 q 431 13 492 43 q 368 -8 400 -3 q 303 -14 336 -14 q 197 13 236 -14 q 140 78 158 39 q 115 157 121 117 q 108 225 108 197 m 224 236 q 240 120 224 164 q 281 57 257 76 q 324 38 304 38 q 402 58 363 38 q 471 122 442 78 q 509 210 496 161 q 526 303 522 258 q 531 375 531 347 q 526 442 531 407 q 510 503 522 476 q 476 548 494 532 q 425 564 457 564 q 331 531 369 564 q 269 447 293 499 q 235 340 246 396 q 224 236 224 283 m 515 792 q 556 806 538 792 q 599 864 575 821 l 631 856 q 485 731 581 731 q 442 742 461 731 q 403 767 422 753 q 369 788 386 778 q 335 797 351 797 q 288 781 307 797 q 253 731 269 765 l 221 738 q 280 830 247 799 q 357 861 313 861 q 409 849 388 861 q 449 822 431 838 q 478 801 463 810 q 515 792 494 792 z "},"":{"ha":621,"x_min":108,"x_max":646,"o":"m 108 225 q 129 355 108 288 q 192 480 150 422 q 299 574 235 538 q 450 610 363 610 q 553 589 514 610 q 612 535 592 568 q 639 462 632 501 q 646 385 646 422 q 617 229 646 303 q 540 99 589 156 q 431 13 492 43 q 368 -8 400 -3 q 303 -14 336 -14 q 197 13 236 -14 q 140 78 158 39 q 115 157 121 117 q 108 225 108 197 m 224 236 q 240 120 224 164 q 281 57 257 76 q 324 38 304 38 q 402 58 363 38 q 471 122 442 78 q 509 210 496 161 q 526 303 522 258 q 531 375 531 347 q 526 442 531 407 q 510 503 522 476 q 476 548 494 532 q 425 564 457 564 q 331 531 369 564 q 269 447 293 499 q 235 340 246 396 q 224 236 224 283 m 264 796 q 283 841 264 822 q 328 860 301 860 q 373 841 354 860 q 392 796 392 822 q 373 751 392 769 q 328 732 354 732 q 283 751 301 732 q 264 796 264 769 m 486 796 q 505 841 486 822 q 550 860 524 860 q 595 841 576 860 q 614 796 614 822 q 595 751 614 769 q 550 732 576 732 q 505 751 524 732 q 486 796 486 769 z "},"":{"ha":732,"x_min":161,"x_max":726,"o":"m 419 551 q 445 610 419 583 q 506 636 471 636 q 544 621 529 636 q 560 582 560 606 q 532 523 560 547 q 474 499 504 499 q 434 514 449 499 q 419 551 419 529 m 726 372 l 711 304 l 161 304 l 178 372 l 726 372 m 319 100 q 345 158 319 132 q 406 183 371 183 q 444 169 429 183 q 460 131 460 154 q 432 72 460 96 q 374 47 404 47 q 335 63 350 47 q 319 100 319 78 z "},"":{"ha":621,"x_min":88,"x_max":699,"o":"m 653 663 l 699 629 l 617 528 q 640 458 635 496 q 646 385 646 421 q 617 229 646 303 q 540 99 589 156 q 431 13 492 43 q 368 -8 400 -3 q 303 -14 336 -14 q 244 -7 269 -14 q 199 13 218 0 l 133 -67 l 88 -29 l 156 53 q 117 144 125 94 q 108 225 108 193 q 129 355 108 288 q 192 480 150 422 q 299 574 235 538 q 450 610 363 610 q 526 599 494 610 q 579 572 557 589 l 653 663 m 514 493 q 510 503 513 497 q 476 548 494 532 q 425 564 457 564 q 331 531 369 564 q 269 447 293 499 q 235 340 246 396 q 224 236 224 283 q 232 149 224 188 l 514 493 m 529 421 l 257 85 q 290 49 272 60 q 324 38 308 38 q 402 58 363 38 q 471 122 442 78 q 509 210 496 161 q 526 303 522 258 q 531 375 531 347 q 529 421 531 400 z "},"":{"ha":724,"x_min":118,"x_max":746,"o":"m 703 489 l 625 172 q 615 124 619 146 q 610 93 610 103 q 624 69 610 69 q 661 89 635 69 q 714 139 688 108 q 736 132 729 139 q 746 115 743 125 q 651 20 699 54 q 553 -14 603 -14 q 512 -1 522 -14 q 501 32 501 13 q 508 89 501 51 q 525 160 515 126 l 540 214 l 536 217 q 402 47 463 108 q 260 -14 342 -14 q 195 12 224 -14 q 167 97 167 38 q 181 190 167 139 l 242 424 q 254 472 249 451 q 260 503 260 493 q 246 526 260 526 q 207 508 236 526 q 150 457 178 489 q 128 464 136 457 q 118 481 121 471 q 222 576 167 542 q 328 610 278 610 q 369 597 360 610 q 378 564 378 583 q 367 507 378 544 q 349 436 357 469 l 289 210 q 279 160 282 182 q 276 121 276 138 q 288 81 276 93 q 318 69 300 69 q 426 141 371 69 q 558 343 482 213 l 599 496 q 610 549 606 522 q 625 592 614 575 q 663 610 636 610 q 708 600 696 610 q 721 572 721 590 q 714 533 721 560 q 703 489 707 507 m 504 932 l 565 757 q 569 739 569 747 q 568 724 569 731 q 559 713 567 718 q 543 708 551 708 q 508 736 533 708 l 382 888 l 388 903 q 423 922 397 910 q 485 935 449 935 q 504 932 493 935 z "},"":{"ha":724,"x_min":118,"x_max":746,"o":"m 703 489 l 625 172 q 615 124 619 146 q 610 93 610 103 q 624 69 610 69 q 661 89 635 69 q 714 139 688 108 q 736 132 729 139 q 746 115 743 125 q 651 20 699 54 q 553 -14 603 -14 q 512 -1 522 -14 q 501 32 501 13 q 508 89 501 51 q 525 160 515 126 l 540 214 l 536 217 q 402 47 463 108 q 260 -14 342 -14 q 195 12 224 -14 q 167 97 167 38 q 181 190 167 139 l 242 424 q 254 472 249 451 q 260 503 260 493 q 246 526 260 526 q 207 508 236 526 q 150 457 178 489 q 128 464 136 457 q 118 481 121 471 q 222 576 167 542 q 328 610 278 610 q 369 597 360 610 q 378 564 378 583 q 367 507 378 544 q 349 436 357 469 l 289 210 q 279 160 282 182 q 276 121 276 138 q 288 81 276 93 q 318 69 300 69 q 426 141 371 69 q 558 343 482 213 l 599 496 q 610 549 606 522 q 625 592 614 575 q 663 610 636 610 q 708 600 696 610 q 721 572 721 590 q 714 533 721 560 q 703 489 707 507 m 590 925 q 611 928 599 928 q 639 924 617 928 q 681 896 661 919 l 682 881 l 490 729 q 462 708 472 714 q 444 703 451 703 q 431 708 436 703 q 428 721 426 714 q 435 739 431 732 q 451 760 440 746 l 590 925 z "},"":{"ha":724,"x_min":118,"x_max":746,"o":"m 703 489 l 625 172 q 615 124 619 146 q 610 93 610 103 q 624 69 610 69 q 661 89 635 69 q 714 139 688 108 q 736 132 729 139 q 746 115 743 125 q 651 20 699 54 q 553 -14 603 -14 q 512 -1 522 -14 q 501 32 501 13 q 508 89 501 51 q 525 160 515 126 l 540 214 l 536 217 q 402 47 463 108 q 260 -14 342 -14 q 195 12 224 -14 q 167 97 167 38 q 181 190 167 139 l 242 424 q 254 472 249 451 q 260 503 260 493 q 246 526 260 526 q 207 508 236 526 q 150 457 178 489 q 128 464 136 457 q 118 481 121 471 q 222 576 167 542 q 328 610 278 610 q 369 597 360 610 q 378 564 378 583 q 367 507 378 544 q 349 436 357 469 l 289 210 q 279 160 282 182 q 276 121 276 138 q 288 81 276 93 q 318 69 300 69 q 426 141 371 69 q 558 343 482 213 l 599 496 q 610 549 606 522 q 625 592 614 575 q 663 610 636 610 q 708 600 696 610 q 721 572 721 590 q 714 533 721 560 q 703 489 707 507 m 569 907 q 617 814 589 858 q 674 728 644 769 l 640 708 q 576 767 606 739 q 518 833 546 796 q 430 765 471 794 q 344 708 389 736 l 321 728 q 413 815 367 769 q 500 907 460 860 l 569 907 z "},"":{"ha":724,"x_min":118,"x_max":746,"o":"m 703 489 l 625 172 q 615 124 619 146 q 610 93 610 103 q 624 69 610 69 q 661 89 635 69 q 714 139 688 108 q 736 132 729 139 q 746 115 743 125 q 651 20 699 54 q 553 -14 603 -14 q 512 -1 522 -14 q 501 32 501 13 q 508 89 501 51 q 525 160 515 126 l 540 214 l 536 217 q 402 47 463 108 q 260 -14 342 -14 q 195 12 224 -14 q 167 97 167 38 q 181 190 167 139 l 242 424 q 254 472 249 451 q 260 503 260 493 q 246 526 260 526 q 207 508 236 526 q 150 457 178 489 q 128 464 136 457 q 118 481 121 471 q 222 576 167 542 q 328 610 278 610 q 369 597 360 610 q 378 564 378 583 q 367 507 378 544 q 349 436 357 469 l 289 210 q 279 160 282 182 q 276 121 276 138 q 288 81 276 93 q 318 69 300 69 q 426 141 371 69 q 558 343 482 213 l 599 496 q 610 549 606 522 q 625 592 614 575 q 663 610 636 610 q 708 600 696 610 q 721 572 721 590 q 714 533 721 560 q 703 489 707 507 m 331 796 q 349 841 331 822 q 394 860 368 860 q 440 841 421 860 q 458 796 458 822 q 440 751 458 769 q 394 732 421 732 q 349 751 368 732 q 331 796 331 769 m 553 796 q 572 841 553 822 q 617 860 590 860 q 662 841 643 860 q 681 796 681 822 q 662 751 681 769 q 617 732 643 732 q 572 751 590 732 q 553 796 553 769 z "},"":{"ha":699,"x_min":68,"x_max":763,"o":"m 490 0 l 426 -97 q 284 -262 360 -200 q 153 -325 208 -325 q 121 -320 142 -325 q 84 -302 100 -315 q 68 -267 68 -289 q 89 -215 68 -235 q 132 -196 110 -196 q 157 -202 140 -196 q 181 -215 174 -208 q 203 -231 188 -221 q 229 -240 219 -240 q 283 -198 244 -240 q 364 -86 321 -156 q 367 -33 369 -75 q 359 69 365 8 q 343 197 353 131 q 321 325 333 264 q 296 429 308 386 q 285 464 290 449 q 275 488 279 479 q 236 504 265 504 q 185 492 214 504 q 144 474 157 479 q 132 493 136 482 q 126 517 128 504 q 188 556 151 535 q 259 594 225 578 q 310 610 293 610 q 352 586 336 610 q 382 507 368 563 q 415 346 403 421 q 432 197 426 271 q 442 43 438 124 l 451 39 q 482 86 464 58 q 517 142 500 114 q 547 188 535 169 q 558 207 558 207 q 606 288 582 244 q 647 374 631 332 q 663 447 663 417 q 656 485 663 464 q 633 531 649 506 q 626 558 626 542 q 690 610 626 610 q 747 592 731 610 q 763 544 763 574 q 751 469 763 507 q 725 396 740 432 q 689 324 714 368 q 633 230 664 281 q 573 132 603 179 q 520 49 543 85 q 490 0 497 14 m 594 926 q 615 929 603 929 q 643 925 621 929 q 685 897 665 921 l 686 882 l 494 731 q 466 710 476 715 q 449 704 456 704 q 435 710 440 704 q 432 722 431 715 q 440 740 435 733 q 456 761 444 747 l 594 926 z "},"":{"ha":694,"x_min":-40,"x_max":728,"o":"m 74 -224 l 225 433 q 166 380 193 407 q 118 324 139 353 l 92 342 q 156 421 115 382 q 239 494 196 460 l 307 782 q 315 822 313 804 q 317 851 317 840 q 309 883 317 875 q 288 890 301 890 l 244 893 q 238 900 238 893 l 242 933 q 309 942 271 936 q 383 955 347 947 q 436 969 418 963 q 453 956 453 969 q 443 917 453 956 q 418 810 433 878 l 363 561 q 542 610 447 610 q 677 552 626 610 q 728 401 728 494 q 701 272 728 343 q 626 135 675 200 q 508 28 576 71 q 356 -14 439 -14 q 274 6 304 -14 q 239 32 244 26 l 178 -224 q 189 -268 169 -258 q 224 -281 208 -278 l 250 -285 q 258 -296 258 -286 l 258 -324 l 256 -326 q 230 -326 256 -326 q 169 -324 204 -325 q 107 -324 135 -324 q 48 -326 82 -324 q -12 -330 14 -328 q -37 -332 -37 -332 l -40 -329 l -40 -303 q -36 -294 -40 -296 q -26 -292 -32 -293 l 0 -287 q 50 -267 33 -282 q 74 -224 67 -253 m 614 379 q 604 452 614 414 q 569 517 594 490 q 496 544 543 544 q 413 532 453 544 q 349 507 372 519 l 253 93 q 358 35 289 35 q 478 72 429 35 q 558 166 528 110 q 601 281 588 222 q 614 379 614 339 z "},"":{"ha":699,"x_min":68,"x_max":763,"o":"m 490 0 l 426 -97 q 284 -262 360 -200 q 153 -325 208 -325 q 121 -320 142 -325 q 84 -302 100 -315 q 68 -267 68 -289 q 89 -215 68 -235 q 132 -196 110 -196 q 157 -202 140 -196 q 181 -215 174 -208 q 203 -231 188 -221 q 229 -240 219 -240 q 283 -198 244 -240 q 364 -86 321 -156 q 367 -33 369 -75 q 359 69 365 8 q 343 197 353 131 q 321 325 333 264 q 296 429 308 386 q 285 464 290 449 q 275 488 279 479 q 236 504 265 504 q 185 492 214 504 q 144 474 157 479 q 132 493 136 482 q 126 517 128 504 q 188 556 151 535 q 259 594 225 578 q 310 610 293 610 q 352 586 336 610 q 382 507 368 563 q 415 346 403 421 q 432 197 426 271 q 442 43 438 124 l 451 39 q 482 86 464 58 q 517 142 500 114 q 547 188 535 169 q 558 207 558 207 q 606 288 582 244 q 647 374 631 332 q 663 447 663 417 q 656 485 663 464 q 633 531 649 506 q 626 558 626 542 q 690 610 626 610 q 747 592 731 610 q 763 544 763 574 q 751 469 763 507 q 725 396 740 432 q 689 324 714 368 q 633 230 664 281 q 573 132 603 179 q 520 49 543 85 q 490 0 497 14 m 329 796 q 348 841 329 822 q 393 860 367 860 q 438 841 419 860 q 457 796 457 822 q 438 751 457 769 q 393 732 419 732 q 348 751 367 732 q 329 796 329 769 m 551 796 q 570 841 551 822 q 615 860 589 860 q 660 841 642 860 q 679 796 679 822 q 660 751 679 769 q 615 732 642 732 q 570 751 589 732 q 551 796 551 769 z "},"":{"ha":926,"x_min":4,"x_max":926,"o":"m 808 1053 l 469 1053 q 456 1060 460 1053 q 456 1074 453 1067 q 469 1100 457 1086 q 493 1114 482 1114 l 833 1114 q 848 1108 844 1114 q 850 1094 851 1101 q 834 1067 847 1082 q 808 1053 821 1053 m 224 110 q 214 78 214 93 q 264 40 214 44 l 301 38 q 310 26 311 38 l 307 0 l 303 -3 q 218 -1 267 -1 q 129 0 169 0 q 67 -1 90 0 q 6 -3 43 -1 l 4 0 l 8 26 q 21 38 10 38 q 98 59 65 40 q 169 142 131 78 l 607 864 q 635 903 624 892 q 661 914 647 914 q 681 903 676 914 q 689 872 686 892 l 817 119 q 842 61 824 79 q 900 39 861 43 l 914 38 q 925 26 926 38 l 922 0 l 919 -3 q 843 -1 883 -1 q 763 0 803 0 q 674 -1 724 0 q 586 -3 624 -1 l 585 0 l 588 26 q 599 38 589 38 l 638 40 q 706 88 706 46 q 704 100 706 93 l 669 335 l 392 335 q 358 330 368 335 q 340 311 347 325 l 224 110 m 426 393 l 658 393 l 601 764 l 599 764 l 397 411 q 394 403 394 406 q 426 393 394 393 z "},"":{"ha":675,"x_min":108,"x_max":685,"o":"m 569 601 q 616 597 590 596 q 667 599 642 599 l 571 167 q 562 123 567 147 q 557 89 557 99 q 564 73 557 76 q 574 69 571 69 q 604 87 585 69 q 651 143 624 104 q 672 136 665 143 q 683 121 678 129 q 614 24 657 61 q 506 -14 571 -14 q 460 8 471 -14 q 449 49 449 29 q 452 81 449 61 q 463 125 456 101 l 481 183 l 478 186 q 357 40 415 93 q 243 -14 299 -14 q 156 17 185 -14 q 118 91 128 47 q 108 174 108 135 q 142 333 108 256 q 228 474 175 411 q 342 573 281 536 q 458 610 403 610 q 521 607 500 610 q 569 601 542 604 m 500 304 q 522 378 513 338 q 538 456 532 418 q 546 517 543 493 q 549 540 549 540 q 463 567 507 567 q 372 531 415 567 q 293 437 328 494 q 239 315 258 379 q 219 196 219 251 q 233 100 219 138 q 281 63 246 63 q 342 97 303 63 q 424 187 381 132 q 500 304 467 242 m 642 749 l 303 749 q 290 756 293 749 q 289 769 286 763 q 303 796 290 782 q 326 810 315 810 l 667 810 q 681 803 678 810 q 683 790 685 797 q 667 763 681 778 q 642 749 654 749 z "},"":{"ha":926,"x_min":4,"x_max":926,"o":"m 224 110 q 214 78 214 93 q 264 40 214 44 l 301 38 q 310 26 311 38 l 307 0 l 303 -3 q 218 -1 267 -1 q 129 0 169 0 q 67 -1 90 0 q 6 -3 43 -1 l 4 0 l 8 26 q 21 38 10 38 q 98 59 65 40 q 169 142 131 78 l 607 864 q 635 903 624 892 q 661 914 647 914 q 681 903 676 914 q 689 872 686 892 l 817 119 q 842 61 824 79 q 900 39 861 43 l 914 38 q 925 26 926 38 l 922 0 l 919 -3 q 843 -1 883 -1 q 763 0 803 0 q 674 -1 724 0 q 586 -3 624 -1 l 585 0 l 588 26 q 599 38 589 38 l 638 40 q 706 88 706 46 q 704 100 706 93 l 669 335 l 392 335 q 358 330 368 335 q 340 311 347 325 l 224 110 m 426 393 l 658 393 l 601 764 l 599 764 l 397 411 q 394 403 394 406 q 426 393 394 393 m 679 960 q 557 1001 596 960 q 518 1101 518 1042 l 518 1117 l 557 1117 q 560 1102 557 1115 q 575 1072 563 1089 q 615 1044 588 1056 q 692 1032 642 1032 q 794 1055 744 1032 q 857 1117 843 1078 l 894 1117 q 848 1030 883 1065 q 767 977 813 994 q 679 960 722 960 z "},"":{"ha":675,"x_min":108,"x_max":683,"o":"m 569 601 q 616 597 590 596 q 667 599 642 599 l 571 167 q 562 123 567 147 q 557 89 557 99 q 564 73 557 76 q 574 69 571 69 q 604 87 585 69 q 651 143 624 104 q 672 136 665 143 q 683 121 678 129 q 614 24 657 61 q 506 -14 571 -14 q 460 8 471 -14 q 449 49 449 29 q 452 81 449 61 q 463 125 456 101 l 481 183 l 478 186 q 357 40 415 93 q 243 -14 299 -14 q 156 17 185 -14 q 118 91 128 47 q 108 174 108 135 q 142 333 108 256 q 228 474 175 411 q 342 573 281 536 q 458 610 403 610 q 521 607 500 610 q 569 601 542 604 m 500 304 q 522 378 513 338 q 538 456 532 418 q 546 517 543 493 q 549 540 549 540 q 463 567 507 567 q 372 531 415 567 q 293 437 328 494 q 239 315 258 379 q 219 196 219 251 q 233 100 219 138 q 281 63 246 63 q 342 97 303 63 q 424 187 381 132 q 500 304 467 242 m 328 899 q 362 808 328 843 q 451 774 396 774 q 555 806 506 774 q 628 899 604 839 l 661 882 q 603 781 640 822 q 521 717 565 739 q 436 694 476 694 q 323 744 363 694 q 286 882 283 793 l 328 899 z "},"":{"ha":965,"x_min":3,"x_max":963,"o":"m 953 -1 q 847 -31 894 -1 q 772 -101 800 -60 q 743 -179 743 -142 q 760 -226 743 -207 q 811 -244 778 -244 q 868 -231 843 -244 q 917 -196 893 -217 l 935 -206 q 853 -276 903 -254 q 767 -299 803 -299 q 686 -274 717 -299 q 656 -204 656 -250 q 703 -90 656 -147 q 824 1 751 -33 l 794 1 q 745 1 776 1 q 683 0 714 0 q 630 -1 651 0 q 608 -1 608 -1 l 607 1 l 611 28 q 624 39 614 39 l 663 39 q 715 50 694 39 q 735 85 735 61 q 733 100 735 94 l 688 339 l 396 339 q 358 333 369 339 q 340 315 347 326 l 213 100 q 205 84 208 93 q 201 68 201 75 q 260 39 201 39 l 300 39 q 310 28 310 39 l 304 1 l 301 -1 q 280 -1 301 -1 q 228 0 258 0 q 171 1 199 0 q 131 1 143 1 q 84 1 114 1 q 30 -1 54 0 q 6 -1 6 -1 l 3 1 l 8 28 q 21 39 11 39 l 38 39 q 106 58 81 39 q 151 113 131 78 l 610 872 q 636 909 625 899 q 657 919 647 919 q 682 910 674 919 q 696 872 690 900 l 847 119 q 875 59 856 79 q 936 39 894 39 l 951 39 q 963 28 963 39 l 958 1 l 954 -1 l 953 -1 m 429 393 l 676 393 l 606 764 l 400 418 q 396 406 396 410 q 429 393 396 393 z "},"":{"ha":675,"x_min":108,"x_max":689,"o":"m 463 122 l 485 197 l 482 200 q 359 45 419 107 q 243 -17 299 -17 q 156 15 185 -17 q 118 90 128 46 q 108 174 108 135 q 142 334 108 256 q 228 476 175 413 q 342 576 281 539 q 458 614 403 614 q 523 611 500 614 q 574 606 546 608 q 619 599 594 600 q 671 599 644 599 l 576 164 q 565 117 571 144 q 560 79 560 89 q 568 63 560 67 q 578 60 576 60 q 588 63 582 60 l 599 69 q 627 95 611 78 q 663 136 643 113 l 689 121 q 646 66 664 88 q 604 24 628 44 q 572 -6 596 15 q 522 -55 549 -26 q 477 -114 496 -83 q 458 -171 458 -144 q 477 -212 458 -193 q 531 -232 496 -232 q 585 -218 563 -232 q 633 -182 607 -204 l 653 -192 q 489 -286 575 -286 q 406 -262 439 -286 q 374 -192 374 -237 q 408 -97 374 -143 q 485 -12 442 -50 q 458 13 465 -6 q 451 46 451 31 q 454 83 451 65 q 463 122 457 101 m 500 304 q 523 378 513 338 q 540 458 533 419 q 549 520 546 496 q 553 544 553 544 q 463 571 511 571 q 372 534 415 571 q 293 439 328 497 q 239 316 258 381 q 219 196 219 251 q 233 99 219 138 q 281 60 246 60 q 342 94 303 60 q 424 185 381 129 q 500 304 467 242 z "},"":{"ha":856,"x_min":124,"x_max":931,"o":"m 469 -14 q 272 35 349 -14 q 160 163 196 83 q 124 335 124 242 q 133 438 124 386 q 205 627 153 540 q 329 778 257 714 q 485 878 401 843 q 651 914 568 914 q 754 905 713 914 q 824 884 796 896 q 878 863 853 872 q 931 851 903 853 q 922 743 925 796 q 918 636 919 690 l 878 631 q 849 743 872 690 q 772 829 825 796 q 626 863 719 863 q 533 840 588 863 q 422 769 478 817 q 320 645 365 721 q 254 464 275 569 q 243 347 243 404 q 267 197 243 267 q 344 85 292 128 q 479 43 396 43 q 652 78 572 43 q 818 194 732 114 q 844 174 838 194 q 663 33 760 81 q 469 -14 567 -14 m 554 968 q 538 983 538 968 q 567 1018 538 1000 l 763 1135 l 853 1072 l 618 985 q 580 973 596 978 q 554 968 564 968 z "},"":{"ha":540,"x_min":115,"x_max":625,"o":"m 290 -14 q 213 4 249 -14 q 157 53 178 22 q 124 130 132 88 q 115 207 115 172 q 147 378 115 300 q 229 513 179 457 q 331 584 272 558 q 432 610 390 610 q 540 588 507 610 q 580 535 572 565 q 588 476 588 504 q 565 432 588 450 q 515 414 543 414 q 488 428 497 414 q 478 458 478 442 q 485 488 478 476 q 492 514 492 499 q 470 558 492 549 q 433 567 449 567 q 333 528 381 567 q 258 415 286 489 q 229 238 229 342 q 239 147 229 175 q 264 100 249 119 q 297 74 279 81 q 333 68 315 68 q 433 99 389 68 q 517 175 476 129 q 547 151 540 175 q 431 33 497 81 q 290 -14 365 -14 m 533 932 q 554 935 542 935 q 582 931 560 935 q 624 903 604 926 l 625 888 l 433 736 q 405 715 415 721 q 388 710 394 710 q 374 715 379 710 q 371 728 369 721 q 378 746 374 739 q 394 767 383 753 l 533 932 z "},"":{"ha":856,"x_min":124,"x_max":931,"o":"m 469 -14 q 272 35 349 -14 q 160 163 196 83 q 124 335 124 242 q 133 438 124 386 q 205 627 153 540 q 329 778 257 714 q 485 878 401 843 q 651 914 568 914 q 754 905 713 914 q 824 884 796 896 q 878 863 853 872 q 931 851 903 853 q 922 743 925 796 q 918 636 919 690 l 878 631 q 849 743 872 690 q 772 829 825 796 q 626 863 719 863 q 533 840 588 863 q 422 769 478 817 q 320 645 365 721 q 254 464 275 569 q 243 347 243 404 q 267 197 243 267 q 344 85 292 128 q 479 43 396 43 q 652 78 572 43 q 818 194 732 114 q 844 174 838 194 q 663 33 760 81 q 469 -14 567 -14 m 731 1119 q 781 1049 753 1082 q 840 989 808 1017 l 811 960 q 743 999 775 979 q 683 1046 711 1019 q 599 998 639 1018 q 515 960 560 978 l 503 989 q 590 1051 547 1018 q 671 1119 632 1085 l 731 1119 z "},"":{"ha":540,"x_min":115,"x_max":590,"o":"m 290 -14 q 213 4 249 -14 q 157 53 178 22 q 124 130 132 88 q 115 207 115 172 q 147 378 115 300 q 229 513 179 457 q 331 584 272 558 q 432 610 390 610 q 540 588 507 610 q 580 535 572 565 q 588 476 588 504 q 565 432 588 450 q 515 414 543 414 q 488 428 497 414 q 478 458 478 442 q 485 488 478 476 q 492 514 492 499 q 470 558 492 549 q 433 567 449 567 q 333 528 381 567 q 258 415 286 489 q 229 238 229 342 q 239 147 229 175 q 264 100 249 119 q 297 74 279 81 q 333 68 315 68 q 433 99 389 68 q 517 175 476 129 q 547 151 540 175 q 431 33 497 81 q 290 -14 365 -14 m 486 897 q 533 804 506 849 q 590 718 561 760 l 557 699 q 492 758 522 729 q 435 824 463 786 q 347 756 388 785 q 261 699 306 726 l 238 718 q 330 805 283 760 q 417 897 376 850 l 486 897 z "},"":{"ha":856,"x_min":124,"x_max":931,"o":"m 469 -14 q 272 35 349 -14 q 160 163 196 83 q 124 335 124 242 q 133 438 124 386 q 205 627 153 540 q 329 778 257 714 q 485 878 401 843 q 651 914 568 914 q 754 905 713 914 q 824 884 796 896 q 878 863 853 872 q 931 851 903 853 q 922 743 925 796 q 918 636 919 690 l 878 631 q 849 743 872 690 q 772 829 825 796 q 626 863 719 863 q 533 840 588 863 q 422 769 478 817 q 320 645 365 721 q 254 464 275 569 q 243 347 243 404 q 267 197 243 267 q 344 85 292 128 q 479 43 396 43 q 652 78 572 43 q 818 194 732 114 q 844 174 838 194 q 663 33 760 81 q 469 -14 567 -14 m 610 1040 q 640 1088 615 1068 q 690 1107 664 1107 q 733 1088 718 1107 q 743 1040 749 1068 q 714 994 738 1014 q 663 974 690 974 q 620 994 636 974 q 610 1040 604 1014 z "},"":{"ha":540,"x_min":115,"x_max":588,"o":"m 290 -14 q 213 4 249 -14 q 157 53 178 22 q 124 130 132 88 q 115 207 115 172 q 147 378 115 300 q 229 513 179 457 q 331 584 272 558 q 432 610 390 610 q 540 588 507 610 q 580 535 572 565 q 588 476 588 504 q 565 432 588 450 q 515 414 543 414 q 488 428 497 414 q 478 458 478 442 q 485 488 478 476 q 492 514 492 499 q 470 558 492 549 q 433 567 449 567 q 333 528 381 567 q 258 415 286 489 q 229 238 229 342 q 239 147 229 175 q 264 100 249 119 q 297 74 279 81 q 333 68 315 68 q 433 99 389 68 q 517 175 476 129 q 547 151 540 175 q 431 33 497 81 q 290 -14 365 -14 m 371 793 q 401 840 376 821 q 451 860 425 860 q 494 840 479 860 q 504 793 510 821 q 475 747 499 767 q 424 726 451 726 q 381 747 397 726 q 371 793 365 767 z "},"":{"ha":856,"x_min":124,"x_max":931,"o":"m 469 -14 q 272 35 349 -14 q 160 163 196 83 q 124 335 124 242 q 133 438 124 386 q 205 627 153 540 q 329 778 257 714 q 485 878 401 843 q 651 914 568 914 q 754 905 713 914 q 824 884 796 896 q 878 863 853 872 q 931 851 903 853 q 922 743 925 796 q 918 636 919 690 l 878 631 q 849 743 872 690 q 772 829 825 796 q 626 863 719 863 q 533 840 588 863 q 422 769 478 817 q 320 645 365 721 q 254 464 275 569 q 243 347 243 404 q 267 197 243 267 q 344 85 292 128 q 479 43 396 43 q 652 78 572 43 q 818 194 732 114 q 844 174 838 194 q 663 33 760 81 q 469 -14 567 -14 m 631 968 q 581 1039 608 1007 q 521 1100 553 1071 l 549 1128 q 678 1043 621 1093 q 763 1091 722 1071 q 846 1128 803 1111 l 860 1100 q 772 1037 814 1069 q 690 968 731 1004 l 631 968 z "},"":{"ha":540,"x_min":115,"x_max":633,"o":"m 290 -14 q 213 4 249 -14 q 157 53 178 22 q 124 130 132 88 q 115 207 115 172 q 147 378 115 300 q 229 513 179 457 q 331 584 272 558 q 432 610 390 610 q 540 588 507 610 q 580 535 572 565 q 588 476 588 504 q 565 432 588 450 q 515 414 543 414 q 488 428 497 414 q 478 458 478 442 q 485 488 478 476 q 492 514 492 499 q 470 558 492 549 q 433 567 449 567 q 333 528 381 567 q 258 415 286 489 q 229 238 229 342 q 239 147 229 175 q 264 100 249 119 q 297 74 279 81 q 333 68 315 68 q 433 99 389 68 q 517 175 476 129 q 547 151 540 175 q 431 33 497 81 q 290 -14 365 -14 m 385 697 q 338 792 365 746 q 282 878 310 839 l 314 896 q 377 837 347 865 q 435 771 407 808 q 524 840 482 811 q 611 896 567 868 l 633 878 q 542 792 589 838 q 454 697 494 746 l 385 697 z "},"":{"ha":926,"x_min":22,"x_max":964,"o":"m 26 25 q 39 38 29 38 l 79 40 q 135 56 115 43 q 161 103 156 69 l 296 794 q 299 819 299 810 q 285 847 299 840 q 238 856 271 853 l 201 858 q 192 869 189 858 l 196 896 l 200 899 q 288 897 247 897 q 368 896 329 896 q 465 897 408 896 q 586 899 522 899 q 783 849 699 899 q 916 713 868 799 q 964 521 964 628 q 954 428 964 475 q 872 216 929 300 q 740 84 815 132 q 585 17 665 36 q 435 -3 506 -3 q 323 -2 367 -3 q 250 -1 279 -1 q 194 0 221 0 q 113 -1 154 0 q 25 -3 72 -1 l 22 0 l 26 25 m 268 101 q 267 83 267 90 q 293 53 267 61 q 403 44 319 44 q 540 60 474 44 q 664 114 607 75 q 763 221 721 153 q 825 394 804 289 q 838 519 838 458 q 808 683 838 607 q 711 805 779 758 q 526 851 643 851 q 444 842 478 851 q 404 797 411 833 l 268 101 m 572 968 q 522 1039 550 1007 q 463 1100 494 1071 l 490 1128 q 619 1043 563 1093 q 704 1091 664 1071 q 788 1128 744 1111 l 801 1100 q 714 1037 756 1069 q 632 968 672 1004 l 572 968 z "},"":{"ha":733,"x_min":113,"x_max":953,"o":"m 479 161 l 475 164 q 360 29 413 72 q 254 -14 308 -14 q 181 6 208 -14 q 138 58 153 26 q 117 123 122 89 q 113 186 113 157 q 144 344 113 268 q 226 480 175 419 q 336 575 276 540 q 451 610 396 610 q 520 588 492 610 q 561 533 549 565 l 563 533 l 614 782 q 624 851 624 829 q 616 883 624 875 q 594 890 608 890 l 551 893 q 544 900 544 893 l 549 933 q 616 942 578 936 q 690 955 654 947 q 743 969 725 963 q 760 956 760 969 q 750 917 760 956 q 725 810 740 878 l 578 167 q 569 123 574 147 q 564 89 564 99 q 571 73 564 76 q 581 69 578 69 q 611 87 592 69 q 658 143 631 104 q 678 136 672 143 q 690 121 685 129 q 621 24 664 61 q 513 -14 578 -14 q 467 8 478 -14 q 456 49 456 29 q 460 81 456 61 q 469 125 464 100 l 479 161 m 479 269 q 526 370 510 325 q 543 439 543 415 q 532 492 543 464 q 501 540 521 519 q 456 560 482 560 q 366 526 408 560 q 292 440 324 493 q 242 325 260 386 q 224 208 224 264 q 228 133 224 169 q 244 74 232 97 q 278 50 256 50 q 373 113 318 50 q 479 269 428 176 m 883 969 q 938 938 922 969 q 946 868 953 906 q 919 810 940 843 q 860 752 897 778 q 774 721 824 726 l 772 744 q 846 785 818 754 q 879 840 874 817 q 865 869 885 869 q 815 888 822 869 q 813 922 808 906 q 833 954 815 939 q 883 969 851 969 z "},"":{"ha":926,"x_min":22,"x_max":964,"o":"m 26 25 q 39 38 29 38 l 79 40 q 135 56 115 43 q 161 103 156 69 l 219 399 l 108 399 l 119 454 l 229 454 l 296 794 q 299 819 299 810 q 285 847 299 840 q 238 856 271 853 l 201 858 q 192 869 189 858 l 196 896 l 200 899 q 288 897 247 897 q 368 896 329 896 q 465 897 408 896 q 586 899 522 899 q 783 849 699 899 q 916 713 868 799 q 964 521 964 628 q 954 428 964 475 q 872 216 929 300 q 740 84 815 132 q 585 17 665 36 q 435 -3 506 -3 q 323 -2 367 -3 q 250 -1 279 -1 q 194 0 221 0 q 113 -1 154 0 q 25 -3 72 -1 l 22 0 l 26 25 m 268 101 q 267 83 267 90 q 293 53 267 61 q 403 44 319 44 q 540 60 474 44 q 664 114 607 75 q 763 221 721 153 q 825 394 804 289 q 838 519 838 458 q 808 683 838 607 q 711 805 779 758 q 526 851 643 851 q 444 842 478 851 q 404 797 411 833 l 338 454 l 556 454 l 544 399 l 326 399 l 268 101 z "},"":{"ha":679,"x_min":113,"x_max":813,"o":"m 813 794 l 800 740 l 710 740 l 578 167 q 569 123 574 147 q 564 89 564 99 q 571 73 564 76 q 581 69 578 69 q 611 87 592 69 q 658 143 631 104 q 678 136 672 143 q 690 121 685 129 q 621 24 664 61 q 513 -14 578 -14 q 467 8 478 -14 q 456 49 456 29 q 460 81 456 61 q 469 125 464 100 l 479 161 l 475 164 q 360 29 413 72 q 254 -14 308 -14 q 181 6 208 -14 q 138 58 153 26 q 117 123 122 89 q 113 186 113 157 q 144 344 113 268 q 226 480 175 419 q 336 575 276 540 q 451 610 396 610 q 520 588 492 610 q 561 533 549 565 l 563 533 l 606 740 l 419 740 l 432 794 l 617 794 q 624 851 624 832 q 616 883 624 875 q 594 890 608 890 l 551 893 q 544 900 544 893 l 549 933 q 616 942 578 936 q 690 955 654 947 q 743 969 725 963 q 760 956 760 969 q 750 917 760 956 q 725 810 740 878 l 722 794 l 813 794 m 479 269 q 526 370 510 325 q 543 439 543 415 q 532 492 543 464 q 501 540 521 519 q 456 560 482 560 q 366 526 408 560 q 292 440 324 493 q 242 325 260 386 q 224 208 224 264 q 228 133 224 169 q 244 74 232 97 q 278 50 256 50 q 373 113 318 50 q 479 269 428 176 z "},"":{"ha":731,"x_min":15,"x_max":768,"o":"m 768 897 q 767 869 768 893 q 765 814 767 846 q 761 749 763 782 q 757 696 760 717 l 718 689 q 703 771 713 738 q 668 822 693 804 q 593 840 643 840 l 454 840 q 396 793 406 840 l 340 501 l 510 501 q 561 516 544 501 q 588 560 578 531 l 597 594 q 610 606 600 606 l 639 606 l 643 600 q 614 475 621 517 q 605 425 610 454 q 596 354 600 396 l 589 350 l 560 350 q 553 354 554 350 q 553 361 551 358 l 556 396 q 557 407 557 403 q 543 440 557 431 q 499 449 529 449 l 329 449 l 261 100 q 260 86 260 92 q 272 60 260 67 q 301 54 283 54 l 482 54 q 610 108 558 54 q 697 236 663 161 l 738 229 q 690 113 715 175 q 643 -3 665 51 q 614 -2 643 -3 q 545 -1 585 -1 q 474 0 506 0 l 188 0 q 107 -1 149 0 q 18 -3 65 -1 l 15 0 l 21 28 q 25 34 22 31 q 33 38 28 38 l 74 40 q 131 57 114 43 q 154 100 149 71 l 289 793 q 292 813 292 804 q 277 843 292 833 q 232 856 263 853 l 193 858 q 185 868 182 858 l 190 896 l 193 899 q 281 897 240 897 q 361 896 322 896 l 699 896 q 733 897 722 896 q 763 901 744 899 q 768 897 768 901 m 722 1018 l 383 1018 q 370 1025 374 1018 q 369 1039 367 1032 q 383 1065 371 1051 q 407 1079 396 1079 l 747 1079 q 762 1073 758 1079 q 764 1060 765 1067 q 748 1033 761 1047 q 722 1018 735 1018 z "},"":{"ha":557,"x_min":115,"x_max":663,"o":"m 232 276 q 231 251 231 268 q 231 229 231 235 q 260 102 231 135 q 336 69 289 69 q 394 76 369 69 q 447 102 419 82 q 514 163 475 122 q 546 140 536 163 q 420 24 485 61 q 286 -14 356 -14 q 158 47 200 -14 q 115 197 115 108 q 135 335 115 264 q 195 469 154 407 q 301 571 236 532 q 457 610 367 610 q 536 591 507 610 q 577 549 565 572 q 589 507 589 525 q 586 470 589 492 q 567 424 583 449 q 514 373 551 399 q 408 322 476 347 q 232 276 340 297 m 493 514 q 478 556 493 544 q 425 567 463 567 q 363 548 396 567 q 297 478 329 529 q 242 329 265 428 q 324 347 281 335 q 406 380 368 358 q 469 434 444 401 q 493 514 493 467 m 619 749 l 281 749 q 267 756 271 749 q 267 769 264 763 q 281 796 268 782 q 304 810 293 810 l 644 810 q 659 803 656 810 q 661 790 663 797 q 645 763 658 778 q 619 749 632 749 z "},"":{"ha":731,"x_min":15,"x_max":786,"o":"m 768 897 q 767 869 768 893 q 765 814 767 846 q 761 749 763 782 q 757 696 760 717 l 718 689 q 703 771 713 738 q 668 822 693 804 q 593 840 643 840 l 454 840 q 396 793 406 840 l 340 501 l 510 501 q 561 516 544 501 q 588 560 578 531 l 597 594 q 610 606 600 606 l 639 606 l 643 600 q 614 475 621 517 q 605 425 610 454 q 596 354 600 396 l 589 350 l 560 350 q 553 354 554 350 q 553 361 551 358 l 556 396 q 557 407 557 403 q 543 440 557 431 q 499 449 529 449 l 329 449 l 261 100 q 260 86 260 92 q 272 60 260 67 q 301 54 283 54 l 482 54 q 610 108 558 54 q 697 236 663 161 l 738 229 q 690 113 715 175 q 643 -3 665 51 q 614 -2 643 -3 q 545 -1 585 -1 q 474 0 506 0 l 188 0 q 107 -1 149 0 q 18 -3 65 -1 l 15 0 l 21 28 q 25 34 22 31 q 33 38 28 38 l 74 40 q 131 57 114 43 q 154 100 149 71 l 289 793 q 292 813 292 804 q 277 843 292 833 q 232 856 263 853 l 193 858 q 185 868 182 858 l 190 896 l 193 899 q 281 897 240 897 q 361 896 322 896 l 699 896 q 733 897 722 896 q 763 901 744 899 q 768 897 768 901 m 571 958 q 449 999 488 958 q 410 1100 410 1040 l 410 1115 l 449 1115 q 451 1101 449 1114 q 467 1071 454 1088 q 506 1042 479 1054 q 583 1031 533 1031 q 685 1053 636 1031 q 749 1115 735 1076 l 786 1115 q 740 1028 775 1064 q 659 976 704 993 q 571 958 614 958 z "},"":{"ha":557,"x_min":115,"x_max":675,"o":"m 232 276 q 231 251 231 268 q 231 229 231 235 q 260 102 231 135 q 336 69 289 69 q 394 76 369 69 q 447 102 419 82 q 514 163 475 122 q 546 140 536 163 q 420 24 485 61 q 286 -14 356 -14 q 158 47 200 -14 q 115 197 115 108 q 135 335 115 264 q 195 469 154 407 q 301 571 236 532 q 457 610 367 610 q 536 591 507 610 q 577 549 565 572 q 589 507 589 525 q 586 470 589 492 q 567 424 583 449 q 514 373 551 399 q 408 322 476 347 q 232 276 340 297 m 493 514 q 478 556 493 544 q 425 567 463 567 q 363 548 396 567 q 297 478 329 529 q 242 329 265 428 q 324 347 281 335 q 406 380 368 358 q 469 434 444 401 q 493 514 493 467 m 342 900 q 376 810 342 844 q 465 775 410 775 q 569 808 519 775 q 642 900 618 840 l 675 883 q 617 782 654 824 q 535 718 579 740 q 450 696 490 696 q 337 745 376 696 q 300 883 297 794 l 342 900 z "},"":{"ha":731,"x_min":15,"x_max":768,"o":"m 503 1028 q 533 1075 508 1056 q 583 1094 557 1094 q 626 1075 611 1094 q 636 1028 642 1056 q 607 981 631 1001 q 556 961 583 961 q 513 981 529 961 q 503 1028 497 1001 m 768 897 q 767 869 768 893 q 765 814 767 846 q 761 749 763 782 q 757 696 760 717 l 718 689 q 703 771 713 738 q 668 822 693 804 q 593 840 643 840 l 454 840 q 396 793 406 840 l 340 501 l 510 501 q 561 516 544 501 q 588 560 578 531 l 597 594 q 610 606 600 606 l 639 606 l 643 600 q 614 475 621 517 q 605 425 610 454 q 596 354 600 396 l 589 350 l 560 350 q 553 354 554 350 q 553 361 551 358 l 556 396 q 556 407 556 401 q 542 440 556 431 q 499 449 529 449 l 329 449 l 261 100 q 260 86 260 92 q 272 60 260 67 q 301 54 283 54 l 482 54 q 610 108 558 54 q 697 236 663 161 l 738 229 q 690 113 715 175 q 643 -3 665 51 q 614 -2 643 -3 q 545 -1 585 -1 q 474 0 506 0 l 188 0 q 107 -1 149 0 q 18 -3 65 -1 l 15 0 l 21 28 q 25 34 22 31 q 33 38 28 38 l 74 40 q 131 57 114 43 q 154 100 149 71 l 289 793 q 292 813 292 804 q 277 843 292 833 q 232 856 263 853 l 193 858 q 185 868 182 858 l 190 896 l 193 899 q 281 897 240 897 q 361 896 322 896 l 699 896 q 733 897 722 896 q 763 901 744 899 q 768 897 768 901 z "},"":{"ha":557,"x_min":115,"x_max":589,"o":"m 232 276 q 231 251 231 268 q 231 229 231 235 q 260 102 231 135 q 336 69 289 69 q 394 76 369 69 q 447 102 419 82 q 514 163 475 122 q 546 140 536 163 q 420 24 485 61 q 286 -14 356 -14 q 158 47 200 -14 q 115 197 115 108 q 135 335 115 264 q 195 469 154 407 q 301 571 236 532 q 457 610 367 610 q 536 591 507 610 q 577 549 565 572 q 589 507 589 525 q 586 470 589 492 q 567 424 583 449 q 514 373 551 399 q 408 322 476 347 q 232 276 340 297 m 493 514 q 478 556 493 544 q 425 567 463 567 q 363 548 396 567 q 297 478 329 529 q 242 329 265 428 q 324 347 281 335 q 406 380 368 358 q 469 434 444 401 q 493 514 493 467 m 413 799 q 433 846 413 826 q 479 865 453 865 q 526 846 507 865 q 546 799 546 826 q 526 752 546 772 q 479 732 507 732 q 433 752 453 732 q 413 799 413 772 z "},"":{"ha":731,"x_min":15,"x_max":768,"o":"m 561 -311 q 469 -280 506 -311 q 432 -193 432 -249 q 469 -90 432 -144 q 569 -1 507 -36 q 520 -1 546 -1 q 474 0 494 0 l 188 0 q 107 -1 149 0 q 18 -3 65 -1 l 15 0 l 21 28 q 25 34 22 31 q 33 38 28 38 l 74 40 q 131 57 114 43 q 154 100 149 71 l 289 793 q 292 813 292 804 q 277 843 292 833 q 232 856 263 853 l 193 858 q 185 868 182 858 l 190 896 l 193 899 q 281 897 240 897 q 361 896 322 896 l 699 896 q 733 897 722 896 q 763 901 744 899 q 768 897 768 901 q 767 869 768 893 q 765 814 767 846 q 761 749 763 782 q 757 696 760 717 l 718 689 q 703 771 713 738 q 668 822 693 804 q 593 840 643 840 l 454 840 q 396 793 406 840 l 340 501 l 510 501 q 561 516 544 501 q 588 560 578 531 l 597 594 q 610 606 600 606 l 639 606 l 643 600 q 614 475 621 517 q 605 425 610 454 q 596 354 600 396 l 589 350 l 560 350 q 553 354 554 350 q 553 361 551 358 l 556 396 q 557 407 557 403 q 543 440 557 431 q 499 449 529 449 l 329 449 l 261 100 q 260 86 260 92 q 272 60 260 67 q 301 54 283 54 l 482 54 q 610 108 558 54 q 697 236 663 161 l 738 229 q 697 132 718 183 q 657 32 676 81 q 674 35 664 33 l 703 0 q 605 -29 647 0 q 539 -99 563 -58 q 515 -175 515 -139 q 537 -233 515 -208 q 596 -257 558 -257 q 650 -243 628 -257 q 693 -207 672 -229 l 714 -218 q 644 -289 689 -267 q 561 -311 599 -311 z "},"":{"ha":557,"x_min":115,"x_max":589,"o":"m 471 -150 q 388 -219 432 -197 q 300 -240 343 -240 q 217 -217 247 -240 q 199 -137 188 -194 q 231 -74 206 -106 q 294 -14 256 -43 q 286 -14 292 -14 q 158 47 200 -14 q 115 197 115 108 q 135 335 115 264 q 195 469 154 407 q 301 571 236 532 q 457 610 367 610 q 536 591 507 610 q 577 549 565 572 q 589 507 589 525 q 586 470 589 492 q 567 424 583 449 q 514 373 551 399 q 408 322 476 347 q 232 276 340 297 q 231 251 231 268 q 231 229 231 235 q 260 102 231 135 q 336 69 289 69 q 394 76 369 69 q 447 102 419 82 q 514 163 475 122 q 546 140 536 163 q 393 10 472 46 q 322 -56 347 -25 q 288 -122 296 -86 q 294 -169 282 -150 q 344 -187 306 -187 q 397 -173 374 -187 q 447 -135 421 -158 q 471 -150 465 -135 m 493 514 q 478 556 493 544 q 425 567 463 567 q 363 548 396 567 q 297 478 329 529 q 242 329 265 428 q 324 347 281 335 q 406 380 368 358 q 469 434 444 401 q 493 514 493 467 z "},"":{"ha":731,"x_min":15,"x_max":769,"o":"m 768 897 q 767 869 768 893 q 765 814 767 846 q 761 749 763 782 q 757 696 760 717 l 718 689 q 703 771 713 738 q 668 822 693 804 q 593 840 643 840 l 454 840 q 396 793 406 840 l 340 501 l 510 501 q 561 516 544 501 q 588 560 578 531 l 597 594 q 610 606 600 606 l 639 606 l 643 600 q 614 475 621 517 q 605 425 610 454 q 596 354 600 396 l 589 350 l 560 350 q 553 354 554 350 q 553 361 551 358 l 556 396 q 557 407 557 403 q 543 440 557 431 q 499 449 529 449 l 329 449 l 261 100 q 260 86 260 92 q 272 60 260 67 q 301 54 283 54 l 482 54 q 610 108 558 54 q 697 236 663 161 l 738 229 q 690 113 715 175 q 643 -3 665 51 q 614 -2 643 -3 q 545 -1 585 -1 q 474 0 506 0 l 188 0 q 107 -1 149 0 q 18 -3 65 -1 l 15 0 l 21 28 q 25 34 22 31 q 33 38 28 38 l 74 40 q 131 57 114 43 q 154 100 149 71 l 289 793 q 292 813 292 804 q 277 843 292 833 q 232 856 263 853 l 193 858 q 185 868 182 858 l 190 896 l 193 899 q 281 897 240 897 q 361 896 322 896 l 699 896 q 733 897 722 896 q 763 901 744 899 q 768 897 768 901 m 540 968 q 490 1039 518 1007 q 431 1100 463 1071 l 458 1128 q 588 1043 531 1093 q 672 1091 632 1071 q 756 1128 713 1111 l 769 1100 q 682 1037 724 1069 q 600 968 640 1004 l 540 968 z "},"":{"ha":557,"x_min":115,"x_max":647,"o":"m 232 276 q 231 251 231 268 q 231 229 231 235 q 260 102 231 135 q 336 69 289 69 q 394 76 369 69 q 447 102 419 82 q 514 163 475 122 q 546 140 536 163 q 420 24 485 61 q 286 -14 356 -14 q 158 47 200 -14 q 115 197 115 108 q 135 335 115 264 q 195 469 154 407 q 301 571 236 532 q 457 610 367 610 q 536 591 507 610 q 577 549 565 572 q 589 507 589 525 q 586 470 589 492 q 567 424 583 449 q 514 373 551 399 q 408 322 476 347 q 232 276 340 297 m 493 514 q 478 556 493 544 q 425 567 463 567 q 363 548 396 567 q 297 478 329 529 q 242 329 265 428 q 324 347 281 335 q 406 380 368 358 q 469 434 444 401 q 493 514 493 467 m 399 696 q 351 791 379 744 q 296 876 324 838 l 328 894 q 391 835 361 864 q 449 769 421 807 q 538 838 496 810 q 625 894 581 867 l 647 876 q 556 790 603 836 q 468 696 508 744 l 399 696 z "},"":{"ha":922,"x_min":117,"x_max":981,"o":"m 676 914 q 778 904 738 914 q 847 883 818 894 q 900 861 875 871 q 956 851 925 851 q 946 729 949 776 q 943 638 943 682 l 901 629 q 874 742 896 689 q 799 829 851 796 q 649 863 746 863 q 475 811 558 863 q 331 668 392 760 q 246 454 269 576 q 239 372 239 414 q 256 250 239 310 q 308 142 272 190 q 399 65 344 94 q 531 36 454 36 q 642 53 585 36 q 739 103 699 69 l 781 315 q 782 333 782 325 q 767 363 782 354 q 718 374 751 371 l 685 376 q 676 388 674 376 l 683 424 l 686 426 q 774 424 733 425 q 854 424 815 424 q 921 424 894 424 q 978 426 947 425 l 981 424 l 974 388 q 960 376 972 379 q 913 363 931 374 q 889 315 896 351 l 857 154 q 871 115 853 133 q 699 21 790 56 q 490 -14 608 -14 q 290 33 374 -14 q 161 159 206 79 q 117 338 117 239 q 125 426 117 382 q 203 632 147 542 q 338 785 260 722 q 503 881 415 847 q 676 914 590 914 m 740 1118 q 790 1048 763 1081 q 850 988 818 1015 l 821 958 q 753 998 785 978 q 693 1044 721 1018 q 609 997 649 1017 q 525 958 569 976 l 513 988 q 599 1050 557 1017 q 681 1118 642 1083 l 740 1118 z "},"":{"ha":663,"x_min":10,"x_max":717,"o":"m 576 404 q 516 242 576 301 q 365 183 456 183 q 312 190 336 183 q 271 207 288 197 q 250 166 261 189 q 239 122 239 143 q 269 73 239 89 q 347 47 299 57 q 451 19 396 36 q 551 -34 508 3 q 593 -139 593 -71 q 506 -286 593 -242 q 276 -331 419 -331 q 188 -324 235 -331 q 101 -302 142 -318 q 35 -258 60 -286 q 10 -189 10 -231 q 41 -109 10 -147 q 117 -40 72 -71 q 197 11 161 -8 q 166 47 171 26 q 161 78 161 68 q 185 158 161 114 q 236 229 210 203 q 190 305 208 263 q 172 393 172 347 q 194 498 172 449 q 263 578 215 547 q 389 610 311 610 q 469 594 435 610 q 525 551 503 579 q 599 597 561 585 q 663 610 636 610 q 701 596 686 610 q 717 563 717 582 q 705 530 717 543 q 674 517 693 517 q 649 524 657 517 q 635 540 640 532 q 628 550 632 546 q 614 554 624 554 q 585 544 607 554 q 549 519 564 535 q 570 465 564 499 q 576 404 576 432 m 474 404 q 451 522 474 475 q 383 568 428 568 q 315 545 338 568 q 283 482 292 522 q 275 392 275 442 q 282 319 275 358 q 310 253 289 281 q 372 225 331 225 q 436 252 414 225 q 466 320 458 279 q 474 404 474 361 m 224 -4 q 178 -40 207 -17 q 126 -93 149 -62 q 103 -157 103 -124 q 160 -249 103 -214 q 333 -285 217 -285 q 464 -250 425 -285 q 503 -176 503 -215 q 476 -114 503 -140 q 392 -61 450 -87 q 334 -38 369 -50 q 267 -17 299 -26 q 224 -4 236 -7 m 501 896 q 549 803 521 847 q 606 717 576 758 l 572 697 q 508 756 538 728 q 450 822 478 785 q 362 754 403 783 q 276 697 321 725 l 253 717 q 345 803 299 758 q 432 896 392 849 l 501 896 z "},"":{"ha":922,"x_min":117,"x_max":981,"o":"m 676 914 q 778 904 738 914 q 847 883 818 894 q 900 861 875 871 q 956 851 925 851 q 946 729 949 776 q 943 638 943 682 l 901 629 q 874 742 896 689 q 799 829 851 796 q 649 863 746 863 q 475 811 558 863 q 331 668 392 760 q 246 454 269 576 q 239 372 239 414 q 256 250 239 310 q 308 142 272 190 q 399 65 344 94 q 531 36 454 36 q 642 53 585 36 q 739 103 699 69 l 781 315 q 782 333 782 325 q 767 363 782 354 q 718 374 751 371 l 685 376 q 676 388 674 376 l 683 424 l 686 426 q 774 424 733 425 q 854 424 815 424 q 921 424 894 424 q 978 426 947 425 l 981 424 l 974 388 q 960 376 972 379 q 913 363 931 374 q 889 315 896 351 l 857 154 q 871 115 853 133 q 699 21 790 56 q 490 -14 608 -14 q 290 33 374 -14 q 161 159 206 79 q 117 338 117 239 q 125 426 117 382 q 203 632 147 542 q 338 785 260 722 q 503 881 415 847 q 676 914 590 914 m 699 963 q 576 1003 615 963 q 538 1104 538 1044 l 538 1119 l 576 1119 q 579 1105 576 1118 q 594 1075 582 1092 q 634 1047 607 1058 q 711 1035 661 1035 q 813 1058 764 1035 q 876 1119 863 1081 l 914 1119 q 867 1033 903 1068 q 787 980 832 997 q 699 963 742 963 z "},"":{"ha":663,"x_min":10,"x_max":717,"o":"m 576 404 q 516 242 576 301 q 365 183 456 183 q 312 190 336 183 q 271 207 288 197 q 250 166 261 189 q 239 122 239 143 q 269 73 239 89 q 347 47 299 57 q 451 19 396 36 q 551 -34 508 3 q 593 -139 593 -71 q 506 -286 593 -242 q 276 -331 419 -331 q 188 -324 235 -331 q 101 -302 142 -318 q 35 -258 60 -286 q 10 -189 10 -231 q 41 -109 10 -147 q 117 -40 72 -71 q 197 11 161 -8 q 166 47 171 26 q 161 78 161 68 q 185 158 161 114 q 236 229 210 203 q 190 305 208 263 q 172 393 172 347 q 194 498 172 449 q 263 578 215 547 q 389 610 311 610 q 469 594 435 610 q 525 551 503 579 q 599 597 561 585 q 663 610 636 610 q 701 596 686 610 q 717 563 717 582 q 705 530 717 543 q 674 517 693 517 q 649 524 657 517 q 635 540 640 532 q 628 550 632 546 q 614 554 624 554 q 585 544 607 554 q 549 519 564 535 q 570 465 564 499 q 576 404 576 432 m 474 404 q 451 522 474 475 q 383 568 428 568 q 315 545 338 568 q 283 482 292 522 q 275 392 275 442 q 282 319 275 358 q 310 253 289 281 q 372 225 331 225 q 436 252 414 225 q 466 320 458 279 q 474 404 474 361 m 224 -4 q 178 -40 207 -17 q 126 -93 149 -62 q 103 -157 103 -124 q 160 -249 103 -214 q 333 -285 217 -285 q 464 -250 425 -285 q 503 -176 503 -215 q 476 -114 503 -140 q 392 -61 450 -87 q 334 -38 369 -50 q 267 -17 299 -26 q 224 -4 236 -7 m 314 894 q 348 804 314 839 q 438 769 382 769 q 541 802 492 769 q 614 894 590 835 l 647 878 q 589 776 626 818 q 507 713 551 735 q 422 690 463 690 q 309 740 349 690 q 272 878 269 789 l 314 894 z "},"":{"ha":922,"x_min":117,"x_max":981,"o":"m 676 914 q 778 904 738 914 q 847 883 818 894 q 900 861 875 871 q 956 851 925 851 q 946 729 949 776 q 943 638 943 682 l 901 629 q 874 742 896 689 q 799 829 851 796 q 649 863 746 863 q 475 811 558 863 q 331 668 392 760 q 246 454 269 576 q 239 372 239 414 q 256 250 239 310 q 308 142 272 190 q 399 65 344 94 q 531 36 454 36 q 642 53 585 36 q 739 103 699 69 l 781 315 q 782 333 782 325 q 767 363 782 354 q 718 374 751 371 l 685 376 q 676 388 674 376 l 683 424 l 686 426 q 774 424 733 425 q 854 424 815 424 q 921 424 894 424 q 978 426 947 425 l 981 424 l 974 388 q 960 376 972 379 q 913 363 931 374 q 889 315 896 351 l 857 154 q 871 115 853 133 q 699 21 790 56 q 490 -14 608 -14 q 290 33 374 -14 q 161 159 206 79 q 117 338 117 239 q 125 426 117 382 q 203 632 147 542 q 338 785 260 722 q 503 881 415 847 q 676 914 590 914 m 635 1046 q 665 1093 640 1074 q 715 1113 689 1113 q 758 1093 743 1113 q 768 1046 774 1074 q 739 999 763 1019 q 688 979 715 979 q 645 999 661 979 q 635 1046 629 1019 z "},"":{"ha":663,"x_min":10,"x_max":717,"o":"m 576 404 q 516 242 576 301 q 365 183 456 183 q 312 190 336 183 q 271 207 288 197 q 250 166 261 189 q 239 122 239 143 q 269 73 239 89 q 347 47 299 57 q 451 19 396 36 q 551 -34 508 3 q 593 -139 593 -71 q 506 -286 593 -242 q 276 -331 419 -331 q 188 -324 235 -331 q 101 -302 142 -318 q 35 -258 60 -286 q 10 -189 10 -231 q 41 -109 10 -147 q 117 -40 72 -71 q 197 11 161 -8 q 166 47 171 26 q 161 78 161 68 q 185 158 161 114 q 236 229 210 203 q 190 305 208 263 q 172 393 172 347 q 194 498 172 449 q 263 578 215 547 q 389 610 311 610 q 469 594 435 610 q 525 551 503 579 q 599 597 561 585 q 663 610 636 610 q 701 596 686 610 q 717 563 717 582 q 705 530 717 543 q 674 517 693 517 q 649 524 657 517 q 635 540 640 532 q 628 550 632 546 q 614 554 624 554 q 585 544 607 554 q 549 519 564 535 q 570 465 564 499 q 576 404 576 432 m 474 404 q 451 522 474 475 q 383 568 428 568 q 315 545 338 568 q 283 482 292 522 q 275 392 275 442 q 282 319 275 358 q 310 253 289 281 q 372 225 331 225 q 436 252 414 225 q 466 320 458 279 q 474 404 474 361 m 224 -4 q 178 -40 207 -17 q 126 -93 149 -62 q 103 -157 103 -124 q 160 -249 103 -214 q 333 -285 217 -285 q 464 -250 425 -285 q 503 -176 503 -215 q 476 -114 503 -140 q 392 -61 450 -87 q 334 -38 369 -50 q 267 -17 299 -26 q 224 -4 236 -7 m 385 792 q 405 839 385 819 q 451 858 425 858 q 499 839 479 858 q 518 792 518 819 q 499 745 518 765 q 451 725 479 725 q 405 745 425 725 q 385 792 385 765 z "},"":{"ha":922,"x_min":117,"x_max":981,"o":"m 676 914 q 778 904 738 914 q 847 883 818 894 q 900 861 875 871 q 956 851 925 851 q 946 729 949 776 q 943 638 943 682 l 901 629 q 874 742 896 689 q 799 829 851 796 q 649 863 746 863 q 475 811 558 863 q 331 668 392 760 q 246 454 269 576 q 239 372 239 414 q 256 250 239 310 q 308 142 272 190 q 399 65 344 94 q 531 36 454 36 q 642 53 585 36 q 739 103 699 69 l 781 315 q 782 333 782 325 q 767 363 782 354 q 718 374 751 371 l 685 376 q 676 388 674 376 l 683 424 l 686 426 q 774 424 733 425 q 854 424 815 424 q 921 424 894 424 q 978 426 947 425 l 981 424 l 974 388 q 960 376 972 379 q 913 363 931 374 q 889 315 896 351 l 857 154 q 871 115 853 133 q 699 21 790 56 q 490 -14 608 -14 q 290 33 374 -14 q 161 159 206 79 q 117 338 117 239 q 125 426 117 382 q 203 632 147 542 q 338 785 260 722 q 503 881 415 847 q 676 914 590 914 m 510 -86 q 565 -119 549 -86 q 571 -206 582 -151 q 508 -301 558 -268 q 396 -343 457 -333 q 392 -310 388 -332 q 476 -276 444 -299 q 511 -236 507 -254 q 504 -208 515 -215 q 475 -200 493 -201 q 440 -185 458 -197 q 428 -146 422 -174 q 456 -103 433 -121 q 510 -86 479 -86 z "},"":{"ha":663,"x_min":10,"x_max":717,"o":"m 576 404 q 516 242 576 301 q 365 183 456 183 q 312 190 336 183 q 271 207 288 197 q 250 166 261 189 q 239 122 239 143 q 269 73 239 89 q 347 47 299 57 q 451 19 396 36 q 551 -34 508 3 q 593 -139 593 -71 q 506 -286 593 -242 q 276 -331 419 -331 q 188 -324 235 -331 q 101 -302 142 -318 q 35 -258 60 -286 q 10 -189 10 -231 q 41 -109 10 -147 q 117 -40 72 -71 q 197 11 161 -8 q 166 47 171 26 q 161 78 161 68 q 185 158 161 114 q 236 229 210 203 q 190 305 208 263 q 172 393 172 347 q 194 498 172 449 q 263 578 215 547 q 389 610 311 610 q 469 594 435 610 q 525 551 503 579 q 599 597 561 585 q 663 610 636 610 q 701 596 686 610 q 717 563 717 582 q 705 530 717 543 q 674 517 693 517 q 649 524 657 517 q 635 540 640 532 q 628 550 632 546 q 614 554 624 554 q 585 544 607 554 q 549 519 564 535 q 570 465 564 499 q 576 404 576 432 m 474 404 q 451 522 474 475 q 383 568 428 568 q 315 545 338 568 q 283 482 292 522 q 275 392 275 442 q 282 319 275 358 q 310 253 289 281 q 372 225 331 225 q 436 252 414 225 q 466 320 458 279 q 474 404 474 361 m 224 -4 q 178 -40 207 -17 q 126 -93 149 -62 q 103 -157 103 -124 q 160 -249 103 -214 q 333 -285 217 -285 q 464 -250 425 -285 q 503 -176 503 -215 q 476 -114 503 -140 q 392 -61 450 -87 q 334 -38 369 -50 q 267 -17 299 -26 q 224 -4 236 -7 m 429 710 q 373 742 389 710 q 364 811 357 774 q 415 903 375 863 q 469 941 436 925 q 542 963 501 957 q 545 950 546 958 q 543 935 544 942 q 452 894 482 922 q 418 842 422 865 q 422 822 414 821 q 454 824 429 824 q 506 804 496 824 q 513 767 515 785 q 487 730 508 750 q 429 710 465 710 z "},"":{"ha":935,"x_min":25,"x_max":1081,"o":"m 838 790 q 830 835 843 821 q 776 854 817 850 l 729 858 q 728 879 726 864 q 733 899 731 894 q 825 897 779 897 q 910 896 871 896 q 990 897 950 896 q 1076 899 1029 897 q 1079 876 1081 889 q 1074 858 1078 863 l 1031 854 q 969 835 988 850 q 944 790 951 819 l 810 106 q 817 60 804 74 q 871 42 831 46 l 918 38 q 919 17 921 32 q 914 -3 917 1 q 823 -1 868 -1 q 738 0 778 0 q 658 -1 697 0 q 571 -3 618 -1 q 568 20 567 7 q 574 38 569 33 l 617 42 q 678 61 660 46 q 703 106 697 76 l 769 446 l 335 446 l 268 106 q 276 60 263 74 q 329 42 289 46 l 376 38 q 377 17 379 32 q 372 -3 375 1 q 281 -1 326 -1 q 196 0 236 0 q 116 -1 156 0 q 29 -3 76 -1 q 26 20 25 7 q 32 38 28 33 l 75 42 q 137 61 118 46 q 161 106 156 76 l 296 790 q 288 835 301 821 q 235 854 275 850 l 188 858 q 187 879 185 864 q 192 899 189 894 q 283 897 238 897 q 368 896 329 896 q 448 897 408 896 q 535 899 488 897 q 538 876 539 889 q 532 858 536 863 l 489 854 q 428 835 446 850 q 403 790 410 819 l 347 504 l 782 504 l 838 790 m 746 1115 q 796 1045 768 1078 q 856 985 824 1013 l 826 956 q 758 995 790 975 q 699 1042 726 1015 q 615 994 654 1014 q 531 956 575 974 l 518 985 q 605 1047 563 1014 q 686 1115 647 1081 l 746 1115 z "},"":{"ha":721,"x_min":124,"x_max":733,"o":"m 244 100 q 233 47 238 74 q 218 3 229 21 q 181 -14 207 -14 q 135 -3 147 -14 q 124 24 124 7 q 130 57 124 35 q 142 100 136 79 l 293 782 q 303 851 303 825 q 295 883 303 875 q 274 890 288 890 l 231 893 q 224 900 224 893 l 228 933 q 295 942 257 936 q 369 955 333 947 q 422 969 404 963 q 439 956 439 969 q 429 917 439 956 q 404 810 419 878 l 319 433 q 431 545 383 507 q 517 597 479 583 q 592 610 556 610 q 658 585 632 610 q 683 499 683 561 q 678 455 683 481 q 665 393 674 429 l 613 172 q 602 124 607 146 q 597 93 597 103 q 611 69 597 69 q 649 89 622 69 q 701 139 675 108 q 724 132 717 139 q 733 115 731 125 q 638 20 686 54 q 540 -14 590 -14 q 497 -1 510 -14 q 483 32 483 13 q 491 89 483 51 q 507 160 499 126 l 560 382 q 571 440 568 418 q 574 475 574 461 q 560 517 574 507 q 525 526 547 526 q 425 472 488 526 q 297 331 363 417 l 244 100 m 599 1156 q 649 1085 621 1118 q 708 1025 676 1053 l 679 996 q 611 1035 643 1015 q 551 1082 579 1056 q 467 1034 507 1054 q 383 996 428 1014 l 371 1025 q 458 1088 415 1054 q 539 1156 500 1121 l 599 1156 z "},"":{"ha":935,"x_min":25,"x_max":1081,"o":"m 838 790 q 830 835 843 821 q 776 854 817 850 l 729 858 q 728 879 726 864 q 733 899 731 894 q 825 897 779 897 q 910 896 871 896 q 990 897 950 896 q 1076 899 1029 897 q 1079 876 1081 889 q 1074 858 1078 863 l 1031 854 q 969 835 988 850 q 944 790 951 819 l 939 758 l 1060 758 l 1050 711 l 929 711 l 810 106 q 817 60 804 74 q 871 42 831 46 l 918 38 q 919 17 921 32 q 914 -3 917 1 q 823 -1 868 -1 q 738 0 778 0 q 658 -1 697 0 q 571 -3 618 -1 q 568 20 567 7 q 574 38 569 33 l 617 42 q 678 61 660 46 q 703 106 697 76 l 769 446 l 335 446 l 268 106 q 276 60 263 74 q 329 42 289 46 l 376 38 q 377 17 379 32 q 372 -3 375 1 q 281 -1 326 -1 q 196 0 236 0 q 116 -1 156 0 q 29 -3 76 -1 q 26 20 25 7 q 32 38 28 33 l 75 42 q 137 61 118 46 q 161 106 156 76 l 281 711 l 231 711 l 240 758 l 290 758 l 296 790 q 288 835 301 821 q 235 854 275 850 l 188 858 q 187 879 185 864 q 192 899 189 894 q 283 897 238 897 q 368 896 329 896 q 448 897 408 896 q 535 899 488 897 q 538 876 539 889 q 532 858 536 863 l 489 854 q 428 835 446 850 q 403 790 410 819 l 397 758 l 832 758 l 838 790 m 782 504 l 822 711 l 388 711 l 347 504 l 782 504 z "},"":{"ha":721,"x_min":124,"x_max":733,"o":"m 244 100 q 233 47 238 74 q 218 3 229 21 q 181 -14 207 -14 q 135 -3 147 -14 q 124 24 124 7 q 130 57 124 35 q 142 100 136 79 l 283 736 l 199 736 l 211 790 l 294 790 q 303 851 303 828 q 295 883 303 875 q 274 890 288 890 l 231 893 q 224 900 224 893 l 228 933 q 295 942 257 936 q 369 955 333 947 q 422 969 404 963 q 439 956 439 969 q 429 917 439 956 q 404 810 419 878 l 400 790 l 618 790 l 606 736 l 388 736 l 319 433 q 431 545 383 507 q 517 597 479 583 q 592 610 556 610 q 658 585 632 610 q 683 499 683 561 q 678 455 683 481 q 665 393 674 429 l 613 172 q 602 124 607 146 q 597 93 597 103 q 611 69 597 69 q 649 89 622 69 q 701 139 675 108 q 724 132 717 139 q 733 115 731 125 q 638 20 686 54 q 540 -14 590 -14 q 497 -1 510 -14 q 483 32 483 13 q 491 89 483 51 q 507 160 499 126 l 560 382 q 571 440 568 418 q 574 475 574 461 q 560 517 574 507 q 525 526 547 526 q 425 472 488 526 q 297 331 363 417 l 244 100 z "},"":{"ha":389,"x_min":25,"x_max":586,"o":"m 296 790 q 288 835 301 821 q 235 854 275 850 l 188 858 q 187 879 185 864 q 192 899 189 894 q 283 897 238 897 q 368 896 329 896 q 448 897 408 896 q 535 899 488 897 q 538 876 539 889 q 532 858 536 863 l 489 854 q 428 835 446 850 q 403 790 410 819 l 268 106 q 276 60 263 74 q 329 42 289 46 l 376 38 q 377 17 379 32 q 372 -3 375 1 q 281 -1 326 -1 q 196 0 236 0 q 116 -1 156 0 q 29 -3 76 -1 q 26 20 25 7 q 32 38 28 33 l 75 42 q 137 61 118 46 q 161 106 156 76 l 296 790 m 471 1029 q 512 1044 493 1029 q 554 1101 531 1058 l 586 1093 q 440 968 536 968 q 397 979 417 968 q 358 1004 378 990 q 324 1025 342 1015 q 290 1035 307 1035 q 244 1019 263 1035 q 208 968 225 1003 l 176 975 q 235 1067 203 1036 q 313 1099 268 1099 q 365 1087 343 1099 q 404 1060 386 1075 q 434 1038 418 1047 q 471 1029 450 1029 z "},"":{"ha":383,"x_min":149,"x_max":517,"o":"m 413 792 q 451 806 433 792 q 489 864 468 821 l 517 856 q 386 731 472 731 q 347 742 365 731 q 313 767 329 753 q 282 788 297 778 q 250 797 267 797 q 209 781 226 797 q 176 731 192 765 l 149 738 q 201 830 172 799 q 271 861 231 861 q 318 849 299 861 q 354 822 338 838 q 381 801 367 810 q 413 792 394 792 m 340 444 l 278 172 q 267 124 272 146 q 263 93 263 103 q 276 69 263 69 q 314 89 288 69 q 367 139 340 108 q 389 132 382 139 q 399 115 396 125 q 303 20 351 54 q 206 -14 256 -14 q 162 -1 175 -14 q 149 32 149 13 q 157 89 149 51 q 172 160 165 126 l 238 446 q 247 491 244 475 q 250 517 250 507 q 244 535 250 528 q 225 544 238 543 l 169 549 q 168 588 154 571 q 262 600 217 594 q 340 606 307 606 q 369 576 369 606 q 360 522 369 558 q 340 444 350 486 z "},"":{"ha":389,"x_min":25,"x_max":618,"o":"m 296 790 q 288 835 301 821 q 235 854 275 850 l 188 858 q 187 879 185 864 q 192 899 189 894 q 283 897 238 897 q 368 896 329 896 q 448 897 408 896 q 535 899 488 897 q 538 876 539 889 q 532 858 536 863 l 489 854 q 428 835 446 850 q 403 790 410 819 l 268 106 q 276 60 263 74 q 329 42 289 46 l 376 38 q 377 17 379 32 q 372 -3 375 1 q 281 -1 326 -1 q 196 0 236 0 q 116 -1 156 0 q 29 -3 76 -1 q 26 20 25 7 q 32 38 28 33 l 75 42 q 137 61 118 46 q 161 106 156 76 l 296 790 m 575 1063 l 236 1063 q 223 1069 226 1063 q 222 1083 219 1076 q 236 1110 224 1096 q 260 1124 249 1124 l 600 1124 q 615 1117 611 1124 q 617 1104 618 1111 q 601 1077 614 1092 q 575 1063 588 1063 z "},"":{"ha":383,"x_min":149,"x_max":521,"o":"m 482 792 l 178 792 q 167 799 169 792 q 165 813 164 806 q 179 839 168 825 q 200 853 190 853 l 507 853 q 518 847 515 853 q 521 833 521 840 q 506 806 518 821 q 482 792 494 792 m 340 444 l 278 172 q 267 124 272 146 q 263 93 263 103 q 276 69 263 69 q 314 89 288 69 q 367 139 340 108 q 389 132 382 139 q 399 115 396 125 q 303 20 351 54 q 206 -14 256 -14 q 162 -1 175 -14 q 149 32 149 13 q 157 89 149 51 q 172 160 165 126 l 238 446 q 247 491 244 475 q 250 517 250 507 q 244 535 250 528 q 225 544 238 543 l 169 549 q 168 588 154 571 q 262 600 217 594 q 340 606 307 606 q 369 576 369 606 q 360 522 369 558 q 340 444 350 486 z "},"":{"ha":389,"x_min":25,"x_max":631,"o":"m 296 790 q 288 835 301 821 q 235 854 275 850 l 188 858 q 187 879 185 864 q 192 899 189 894 q 283 897 238 897 q 368 896 329 896 q 448 897 408 896 q 535 899 488 897 q 538 876 539 889 q 532 858 536 863 l 489 854 q 428 835 446 850 q 403 790 410 819 l 268 106 q 276 60 263 74 q 329 42 289 46 l 376 38 q 377 17 379 32 q 372 -3 375 1 q 281 -1 326 -1 q 196 0 236 0 q 116 -1 156 0 q 29 -3 76 -1 q 26 20 25 7 q 32 38 28 33 l 75 42 q 137 61 118 46 q 161 106 156 76 l 296 790 m 415 961 q 293 1002 332 961 q 254 1103 254 1043 l 254 1118 l 293 1118 q 296 1103 293 1117 q 311 1074 299 1090 q 351 1045 324 1057 q 428 1033 378 1033 q 530 1056 481 1033 q 593 1118 579 1079 l 631 1118 q 584 1031 619 1067 q 503 978 549 996 q 415 961 458 961 z "},"":{"ha":383,"x_min":149,"x_max":526,"o":"m 225 903 q 256 813 225 847 q 338 778 286 778 q 431 810 386 778 q 494 903 475 843 l 526 886 q 473 785 507 826 q 399 721 439 743 q 322 699 360 699 q 221 748 257 699 q 189 886 185 797 l 225 903 m 340 444 l 278 172 q 267 124 272 146 q 263 93 263 103 q 276 69 263 69 q 314 89 288 69 q 367 139 340 108 q 389 132 382 139 q 399 115 396 125 q 303 20 351 54 q 206 -14 256 -14 q 162 -1 175 -14 q 149 32 149 13 q 157 89 149 51 q 172 160 165 126 l 238 446 q 247 491 244 475 q 250 517 250 507 q 244 535 250 528 q 225 544 238 543 l 169 549 q 168 588 154 571 q 262 600 217 594 q 340 606 307 606 q 369 576 369 606 q 360 522 369 558 q 340 444 350 486 z "},"":{"ha":389,"x_min":25,"x_max":539,"o":"m 239 -312 q 147 -281 183 -312 q 110 -194 110 -250 q 149 -90 110 -144 q 251 0 188 -35 q 196 0 222 0 q 116 -1 156 0 q 29 -3 76 -1 q 26 20 25 7 q 32 38 28 33 l 75 42 q 137 61 118 46 q 161 106 156 76 l 296 790 q 288 835 301 821 q 235 854 275 850 l 188 858 q 187 879 185 864 q 192 899 189 894 q 283 897 238 897 q 368 896 329 896 q 448 897 408 896 q 535 899 488 897 q 538 876 539 889 q 532 858 536 863 l 489 854 q 428 835 446 850 q 403 790 410 819 l 268 106 q 276 60 263 74 q 329 42 289 46 l 376 38 q 378 23 379 33 q 375 6 378 13 l 381 -1 q 374 -1 375 -1 q 372 -3 372 -3 q 367 -3 369 -3 q 361 -3 364 -3 q 273 -37 311 -8 q 214 -105 235 -67 q 193 -176 193 -143 q 215 -234 193 -210 q 274 -258 236 -258 q 328 -244 306 -258 q 371 -208 351 -231 l 392 -219 q 322 -290 367 -268 q 239 -312 276 -312 z "},"":{"ha":383,"x_min":89,"x_max":413,"o":"m 279 792 q 299 839 279 819 q 346 858 319 858 q 393 839 374 858 q 413 792 413 819 q 393 745 413 765 q 346 725 374 725 q 299 745 319 725 q 279 792 279 765 m 340 444 l 278 172 q 267 124 272 146 q 263 93 263 103 q 276 69 263 69 q 314 89 288 69 q 367 139 340 108 q 389 132 382 139 q 399 115 396 125 q 329 40 363 69 q 319 24 336 38 q 288 -6 311 15 q 238 -55 264 -26 q 192 -114 211 -83 q 174 -171 174 -144 q 192 -212 174 -193 q 246 -232 211 -232 q 300 -218 278 -232 q 349 -182 322 -204 l 368 -192 q 203 -286 290 -286 q 122 -262 154 -286 q 89 -192 89 -237 q 123 -100 89 -143 q 199 -14 157 -57 q 160 1 171 -12 q 149 32 149 14 q 157 89 149 51 q 172 160 165 126 l 238 446 q 247 491 244 475 q 250 517 250 507 q 244 535 250 528 q 225 544 238 543 l 169 549 q 168 588 154 571 q 262 600 217 594 q 340 606 307 606 q 369 576 369 606 q 360 522 369 558 q 340 444 350 486 z "},"":{"ha":389,"x_min":25,"x_max":539,"o":"m 296 790 q 288 835 301 821 q 235 854 275 850 l 188 858 q 187 879 185 864 q 192 899 189 894 q 283 897 238 897 q 368 896 329 896 q 448 897 408 896 q 535 899 488 897 q 538 876 539 889 q 532 858 536 863 l 489 854 q 428 835 446 850 q 403 790 410 819 l 268 106 q 276 60 263 74 q 329 42 289 46 l 376 38 q 377 17 379 32 q 372 -3 375 1 q 281 -1 326 -1 q 196 0 236 0 q 116 -1 156 0 q 29 -3 76 -1 q 26 20 25 7 q 32 38 28 33 l 75 42 q 137 61 118 46 q 161 106 156 76 l 296 790 m 331 1042 q 360 1089 336 1069 q 411 1108 385 1108 q 454 1089 439 1108 q 464 1042 469 1069 q 435 995 458 1015 q 383 975 411 975 q 341 995 357 975 q 331 1042 325 1015 z "},"":{"ha":383,"x_min":149,"x_max":399,"o":"m 340 444 l 278 172 q 267 124 272 146 q 263 93 263 103 q 276 69 263 69 q 314 89 288 69 q 367 139 340 108 q 389 132 382 139 q 399 115 396 125 q 303 20 351 54 q 206 -14 256 -14 q 162 -1 175 -14 q 149 32 149 13 q 157 89 149 51 q 172 160 165 126 l 238 446 q 247 491 244 475 q 250 517 250 507 q 244 535 250 528 q 225 544 238 543 l 169 549 q 168 588 154 571 q 262 600 217 594 q 340 606 307 606 q 369 576 369 606 q 360 522 369 558 q 340 444 350 486 z "},"":{"ha":835,"x_min":25,"x_max":1000,"o":"m 296 790 q 288 835 301 821 q 235 854 275 850 l 188 858 q 187 879 185 864 q 192 899 189 894 q 283 897 238 897 q 368 896 329 896 q 448 897 408 896 q 535 899 488 897 q 538 876 539 889 q 532 858 536 863 l 489 854 q 428 835 446 850 q 403 790 410 819 l 268 106 q 276 60 263 74 q 329 42 289 46 l 376 38 q 377 17 379 32 q 372 -3 375 1 q 281 -1 326 -1 q 196 0 236 0 q 116 -1 156 0 q 29 -3 76 -1 q 26 20 25 7 q 32 38 28 33 l 75 42 q 137 61 118 46 q 161 106 156 76 l 296 790 m 867 726 l 751 143 q 699 -20 732 42 q 627 -118 665 -82 q 556 -181 589 -154 q 470 -228 508 -217 q 388 -239 432 -239 q 354 -231 375 -239 q 317 -209 333 -224 q 300 -172 300 -194 q 324 -127 300 -144 q 364 -110 349 -110 q 408 -124 394 -110 q 428 -151 422 -137 q 468 -176 440 -176 q 506 -166 485 -176 q 549 -126 526 -156 q 595 -40 572 -97 q 636 113 618 18 l 757 726 q 765 792 765 769 q 740 844 765 832 q 657 858 715 856 q 653 881 651 867 q 660 899 654 894 q 747 897 708 897 q 839 896 786 896 q 916 897 885 896 q 994 899 947 897 q 999 876 1000 890 q 992 858 997 863 q 930 848 953 857 q 892 812 907 839 q 867 726 878 785 z "},"":{"ha":700,"x_min":149,"x_max":767,"o":"m 285 792 q 305 839 285 819 q 351 858 325 858 q 399 839 379 858 q 418 792 418 819 q 399 745 418 765 q 351 725 379 725 q 305 745 325 725 q 285 792 285 765 m 633 792 q 653 839 633 819 q 700 858 674 858 q 747 839 728 858 q 767 792 767 819 q 747 745 767 765 q 700 725 728 725 q 653 745 674 725 q 633 792 633 765 m 171 160 l 236 446 q 246 491 243 475 q 249 517 249 507 q 242 535 249 528 q 224 544 236 543 l 168 549 q 167 588 153 571 q 260 600 215 594 q 339 606 306 606 q 368 576 368 606 q 358 522 368 558 q 339 444 349 485 l 276 172 q 276 82 261 106 q 324 58 292 58 q 399 101 358 58 q 483 212 439 143 q 574 360 526 281 l 593 446 q 602 491 600 475 q 604 517 604 507 q 598 535 604 528 q 579 544 592 543 l 524 549 q 522 588 508 571 q 616 600 571 594 q 694 606 661 606 q 724 576 724 606 q 715 524 724 563 q 696 444 706 486 l 671 325 q 615 90 644 199 q 550 -101 586 -19 q 466 -227 514 -182 q 353 -272 418 -272 q 273 -256 307 -272 q 239 -206 239 -239 q 252 -173 239 -183 q 279 -162 265 -162 q 328 -177 314 -162 q 350 -207 342 -192 q 378 -222 358 -222 q 408 -211 390 -222 q 446 -169 426 -200 q 481 -78 465 -137 q 512 63 499 -7 q 544 226 525 133 q 453 101 496 156 q 365 17 410 47 q 265 -14 321 -14 q 180 25 211 -14 q 171 160 149 64 z "},"":{"ha":510,"x_min":-6,"x_max":624,"o":"m 468 1118 q 519 1048 490 1081 q 578 988 547 1015 l 550 958 q 421 1044 475 996 q 338 997 378 1017 q 253 958 297 976 l 240 988 q 327 1050 285 1017 q 408 1118 369 1083 l 468 1118 m 539 806 q 528 740 535 785 q 516 645 522 696 q 505 554 510 594 q 500 500 500 514 q 515 472 500 478 q 564 463 529 465 l 560 428 l 486 421 l 446 178 q 383 -32 425 49 q 290 -156 340 -112 q 194 -215 240 -199 q 118 -231 147 -231 q 33 -208 71 -231 q -6 -150 -6 -185 q 5 -122 -6 -135 q 32 -110 15 -110 q 72 -121 56 -110 q 97 -151 88 -132 q 138 -181 113 -181 q 213 -151 178 -181 q 278 -51 249 -122 q 329 147 308 21 l 375 419 l 204 432 l 204 460 l 383 469 l 386 486 q 409 606 399 557 q 435 696 419 654 q 472 788 450 738 l 471 793 q 449 789 463 789 q 410 794 431 789 q 375 806 390 800 q 290 844 328 825 q 208 864 253 864 q 172 851 186 864 q 157 825 157 839 q 168 809 157 818 q 191 788 179 800 q 203 757 203 775 q 156 714 203 714 q 117 731 129 714 q 104 775 104 749 q 122 837 104 803 q 181 896 140 871 q 289 921 222 921 q 392 897 335 921 q 494 851 450 872 q 519 909 499 878 q 574 940 539 940 q 610 932 596 940 q 624 901 624 924 q 596 851 624 876 q 539 806 568 825 z "}}}
